<?xml version="1.0" encoding="UTF-8" standalone="no"?>
<svg
   xmlns:dc="http://purl.org/dc/elements/1.1/"
   xmlns:cc="http://creativecommons.org/ns#"
   xmlns:rdf="http://www.w3.org/1999/02/22-rdf-syntax-ns#"
   xmlns:svg="http://www.w3.org/2000/svg"
   xmlns="http://www.w3.org/2000/svg"
   xmlns:sodipodi="http://sodipodi.sourceforge.net/DTD/sodipodi-0.dtd"
   xmlns:inkscape="http://www.inkscape.org/namespaces/inkscape"
   fill="#000000"
   height="36"
   width="36"
   version="1.1"
   id="Layer_1"
   viewBox="0 0 21.600045 21.600046"
   xml:space="preserve"
   sodipodi:docname="Erase.svg"
   inkscape:version="1.0.2 (e86c870879, 2021-01-15)"><metadata
   id="metadata13"><rdf:RDF><cc:Work
       rdf:about=""><dc:format>image/svg+xml</dc:format><dc:type
         rdf:resource="http://purl.org/dc/dcmitype/StillImage" /><dc:title /></cc:Work></rdf:RDF></metadata><defs
   id="defs11">
	
</defs><sodipodi:namedview
   pagecolor="#ffffff"
   bordercolor="#666666"
   borderopacity="1"
   objecttolerance="10"
   gridtolerance="10"
   guidetolerance="10"
   inkscape:pageopacity="0"
   inkscape:pageshadow="2"
   inkscape:window-width="1920"
   inkscape:window-height="977"
   id="namedview9"
   showgrid="false"
   inkscape:pagecheckerboard="true"
   inkscape:zoom="5.7558492"
   inkscape:cx="90.078315"
   inkscape:cy="7.4459491"
   inkscape:window-x="0"
   inkscape:window-y="28"
   inkscape:window-maximized="1"
   inkscape:current-layer="Layer_1"
   inkscape:document-rotation="0" />

<g
   id="g835"
   transform="matrix(0.86875728,0,0,0.84670789,1.7742128,1.4108895)"><g
     id="g4"
     transform="matrix(0.03578149,0,0,0.04029234,1.6494517,0.86716386)">
		<path
   d="m 333.142,350.846 c 0.115,-0.115 0.215,-0.239 0.323,-0.357 L 463.146,220.783 c 10.878,-10.878 16.864,-25.368 16.855,-40.8 -0.01,-15.409 -5.999,-29.865 -16.854,-40.694 L 365.303,41.415 C 354.45,30.57 339.977,24.598 324.553,24.598 c -15.426,0 -29.895,5.974 -40.741,16.82 L 16.855,308.329 C 5.974,319.21 -0.012,333.713 0,349.168 c 0.013,15.425 6.002,29.884 16.854,40.7 l 62.592,62.606 c 0.061,0.061 0.127,0.112 0.188,0.171 0.174,0.165 0.349,0.331 0.534,0.483 0.082,0.067 0.171,0.126 0.255,0.19 0.175,0.135 0.349,0.271 0.532,0.395 0.07,0.047 0.145,0.085 0.215,0.13 0.205,0.131 0.412,0.26 0.627,0.376 0.051,0.026 0.103,0.048 0.154,0.074 0.239,0.123 0.482,0.241 0.732,0.346 0.033,0.014 0.067,0.024 0.101,0.037 0.269,0.108 0.54,0.208 0.819,0.293 0.034,0.011 0.07,0.017 0.104,0.027 0.276,0.081 0.556,0.154 0.841,0.211 0.082,0.017 0.165,0.023 0.247,0.038 0.239,0.041 0.479,0.084 0.724,0.107 0.33,0.033 0.663,0.051 0.998,0.051 h 137.91 159.308 c 5.522,0 10,-4.478 10,-10 0,-5.522 -4.478,-10 -10,-10 H 248.566 l 84.22,-84.236 c 0.118,-0.107 0.241,-0.207 0.356,-0.321 z M 220.285,435.404 H 90.66 L 30.985,375.715 C 23.909,368.661 20.008,359.228 20,349.152 19.992,339.046 23.897,329.57 30.996,322.471 L 160.821,192.668 311.912,343.759 Z M 174.965,178.527 297.953,55.56 c 7.069,-7.069 16.516,-10.963 26.6,-10.963 10.085,0 19.536,3.895 26.609,10.962 l 97.85,97.88 c 7.08,7.063 10.982,16.493 10.989,26.557 0.006,10.085 -3.899,19.547 -10.998,26.645 l -122.95,122.974 z"
   id="path2"
   style="fill:#ffffff;fill-opacity:1;stroke:#00ffff;stroke-opacity:1" />
	</g><path
     style="fill:#c8c8c8;fill-opacity:1;stroke:#00ffff;stroke-width:0.347473;stroke-linejoin:round"
     d="m 17.795207,18.457826 c -2.384032,-2.686748 -4.334605,-4.949665 -4.334605,-5.028706 0,-0.214193 7.376247,-8.4860833 7.741616,-8.6816226 0.490823,-0.2626806 1.422178,-0.1959603 1.912203,0.1369859 0.516818,0.3511514 5.871473,6.3372987 6.508665,7.2762537 0.59256,0.873185 0.575557,1.856541 -0.04844,2.801517 -0.480823,0.728153 -7.170705,8.345904 -7.349162,8.36847 -0.05262,0.0067 -2.046243,-2.186151 -4.430276,-4.872898 z"
     id="path19"
     transform="scale(0.60000126)" /></g></svg>
