<?xml version="1.0" encoding="UTF-8" standalone="no"?>
<!-- Created with Inkscape (http://www.inkscape.org/) -->

<svg
   version="1.1"
   id="svg2"
   width="16"
   height="20.020462"
   viewBox="0 0 42.666667 53.387898"
   sodipodi:docname="Flip.svg"
   inkscape:version="1.3 (0e150ed6c4, 2023-07-21)"
   xmlns:inkscape="http://www.inkscape.org/namespaces/inkscape"
   xmlns:sodipodi="http://sodipodi.sourceforge.net/DTD/sodipodi-0.dtd"
   xmlns="http://www.w3.org/2000/svg"
   xmlns:svg="http://www.w3.org/2000/svg">
  <defs
     id="defs6">
    <inkscape:path-effect
       effect="fill_between_many"
       method="originald"
       linkedpaths="#path154,0,1"
       id="path-effect692"
       is_visible="true"
       lpeversion="0"
       join="true"
       close="true"
       autoreverse="true" />
  </defs>
  <sodipodi:namedview
     id="namedview4"
     pagecolor="#000000"
     bordercolor="#666666"
     borderopacity="1.0"
     inkscape:pageshadow="2"
     inkscape:pageopacity="0.0"
     inkscape:pagecheckerboard="0"
     showgrid="false"
     inkscape:zoom="24.5625"
     inkscape:cx="11.379135"
     inkscape:cy="8.5699746"
     inkscape:window-width="1920"
     inkscape:window-height="1009"
     inkscape:window-x="-8"
     inkscape:window-y="-8"
     inkscape:window-maximized="1"
     inkscape:current-layer="g8"
     inkscape:showpageshadow="2"
     inkscape:deskcolor="#d1d1d1" />
  <g
     inkscape:groupmode="layer"
     inkscape:label="Image"
     id="g8"
     style="display:inline"
     transform="translate(-5.9125454,-4.6951703)">
    <g
       id="g1"
       transform="matrix(0.72565347,0,0,0.71937109,3.6848513,8.1572951)">
      <path
         style="display:inline;fill:#ffffff;fill-opacity:1;stroke:none;stroke-width:1px;stroke-linecap:butt;stroke-linejoin:miter;stroke-opacity:1"
         d="M 2.967122,57.115195 C 2.863989,38.443573 3.462256,19.962694 20.282892,19.973444 c 16.820635,0.01075 16.812346,0.127768 16.812346,0.127768 L 37.316776,7.704324 58.523345,26.640796 38.064072,45.005611 37.614928,33.294132 c 0,0 -9.327275,0.01722 -14.381883,0.09864 -5.054608,0.08142 -8.240517,3.439879 -7.030525,23.644357 l -13.235398,0.07807 z"
         id="path154"
         sodipodi:nodetypes="sscccccsccs"
         inkscape:label="path154"
         transform="matrix(-0.00774147,0.80115419,-0.81118275,-0.00764576,65.874315,11.400537)" />
      <path
         style="display:inline;fill:#ffffff;fill-opacity:1;stroke:none;stroke-width:0.80619px;stroke-linecap:butt;stroke-linejoin:miter;stroke-opacity:1"
         d="M 49.553011,45.766671 C 50.468868,30.834945 50.808109,16.024249 37.183406,15.276147 23.558703,14.528047 23.560199,14.622058 23.560199,14.622058 L 23.933376,4.6951703 5.9125454,18.889395 21.665313,34.500722 22.551168,25.152327 c 0,0 7.554052,0.433378 11.644508,0.725897 4.090457,0.292517 6.521239,3.122445 4.640529,19.230586 l 10.716806,0.657864 z"
         id="path154-4"
         sodipodi:nodetypes="sscccccsccs"
         inkscape:label="path154" />
    </g>
  </g>
</svg>
