<?xml version="1.0" encoding="UTF-8" standalone="no"?>
<svg
   version="1.1"
   x="0px"
   y="0px"
   viewBox="0 0 20 20"
   enable-background="new 0 0 512 512"
   xml:space="preserve"
   id="svg12"
   sodipodi:docname="Link.svg"
   inkscape:version="1.2.2 (b0a8486541, 2022-12-01)"
   width="20"
   height="20"
   xmlns:inkscape="http://www.inkscape.org/namespaces/inkscape"
   xmlns:sodipodi="http://sodipodi.sourceforge.net/DTD/sodipodi-0.dtd"
   xmlns="http://www.w3.org/2000/svg"
   xmlns:svg="http://www.w3.org/2000/svg"
   xmlns:rdf="http://www.w3.org/1999/02/22-rdf-syntax-ns#"
   xmlns:cc="http://creativecommons.org/ns#"><defs
     id="defs16" /><sodipodi:namedview
     id="namedview14"
     pagecolor="#ffffff"
     bordercolor="#000000"
     borderopacity="0.25"
     inkscape:showpageshadow="2"
     inkscape:pageopacity="0"
     inkscape:pagecheckerboard="0"
     inkscape:deskcolor="#d1d1d1"
     showgrid="false"
     shape-rendering="crispEdges"
     inkscape:zoom="19.625"
     inkscape:cx="0.89171975"
     inkscape:cy="5.8343949"
     inkscape:window-width="1854"
     inkscape:window-height="1011"
     inkscape:window-x="0"
     inkscape:window-y="0"
     inkscape:window-maximized="1"
     inkscape:current-layer="g6" /><g
     id="g6"
     transform="translate(0.70710678,53.514922)"
     style="stroke:#000000;stroke-opacity:1"><path
       d="m 15.73115,-50.759897 c -1.614907,-1.789926 -4.232943,-1.789926 -5.8473916,0 l -2.3071703,2.556881 c 0.1826443,-0.02203 0.367196,-0.03149 0.5526873,-0.03149 0.5838786,0 1.1516451,0.102835 1.68916,0.301103 l 1.3073666,-1.448936 c 0.449024,-0.498358 1.046167,-0.772195 1.681166,-0.772195 0.635061,0 1.232204,0.273837 1.681227,0.772195 0.449055,0.497315 0.69596,1.158309 0.69596,1.863353 0,0.704005 -0.246905,1.366039 -0.69596,1.863354 l -2.557955,2.835961 c -0.448991,0.49839 -1.046164,0.77216 -1.681164,0.77216 -0.6359675,0 -1.2321409,-0.27377 -1.6816186,-0.77216 -0.2186233,-0.241338 -0.388941,-0.522531 -0.5062916,-0.828904 -0.2914853,0.01783 -0.5640124,0.152128 -0.7722162,0.382925 l -0.6813637,0.756415 c 0.1864295,0.382925 0.425856,0.743858 0.7173406,1.068125 1.6144498,1.789996 4.2329415,1.789996 5.8478445,0 l 2.558408,-2.836998 c 1.613963,-1.789827 1.613963,-4.691863 -2.9e-5,-6.481786 z"
       id="path2"
       style="fill:#ffffff;fill-opacity:1;stroke:#000000;stroke-width:0.0318873;stroke-opacity:1" /><path
       d="m 10.276482,-38.781321 c -0.5848459,0 -1.1583079,-0.10492 -1.7080872,-0.311612 l -1.3163615,1.459481 c -0.4485696,0.498389 -1.0456825,0.772195 -1.6806816,0.772195 -0.6349984,0 -1.2311729,-0.273806 -1.6807104,-0.772195 -0.4495088,-0.497348 -0.6965066,-1.159318 -0.6965066,-1.863354 0,-0.704037 0.2469978,-1.366107 0.6965066,-1.864396 l 2.5579518,-2.835926 c 0.4495082,-0.497317 1.0457133,-0.771155 1.6807122,-0.771155 0.6359364,0 1.2321416,0.273838 1.6811348,0.771155 0.2186509,0.242344 0.3893629,0.523537 0.5072599,0.829877 0.292424,-0.01679 0.565435,-0.15213 0.773639,-0.382924 l 0.680426,-0.755409 c -0.186431,-0.384032 -0.426341,-0.744931 -0.718282,-1.069134 -1.6144476,-1.789925 -4.2329391,-1.789925 -5.8473884,0 l -2.557953,2.837 c -1.6153879,1.789994 -1.6153879,4.691928 0,6.482897 1.6144491,1.789991 4.2320321,1.789991 5.846452,0 l 2.3033544,-2.553696 c -0.171743,0.01776 -0.345394,0.0273 -0.520495,0.0273 z"
       id="path4"
       style="fill:#ffffff;fill-opacity:1;stroke:#000000;stroke-width:0.0318873;stroke-opacity:1" /></g><metadata
     id="metadata1579"><rdf:RDF><cc:Work
         rdf:about="" /></rdf:RDF></metadata></svg>
