<?xml version="1.0" encoding="UTF-8" standalone="no"?>
<!-- Uploaded to: SVG Repo, www.svgrepo.com, Generator: SVG Repo Mixer Tools -->

<svg
   fill="#000000"
   height="28"
   width="28"
   version="1.1"
   id="Capa_1"
   viewBox="0 0 28 28"
   xml:space="preserve"
   sodipodi:docname="Microphone.svg"
   inkscape:version="1.2.2 (b0a8486541, 2022-12-01)"
   xmlns:inkscape="http://www.inkscape.org/namespaces/inkscape"
   xmlns:sodipodi="http://sodipodi.sourceforge.net/DTD/sodipodi-0.dtd"
   xmlns="http://www.w3.org/2000/svg"
   xmlns:svg="http://www.w3.org/2000/svg"><defs
   id="defs11" /><sodipodi:namedview
   id="namedview9"
   pagecolor="#ffffff"
   bordercolor="#000000"
   borderopacity="0.25"
   inkscape:showpageshadow="2"
   inkscape:pageopacity="0.0"
   inkscape:pagecheckerboard="true"
   inkscape:deskcolor="#d1d1d1"
   showgrid="false"
   inkscape:zoom="11.101576"
   inkscape:cx="-5.2695219"
   inkscape:cy="-3.1076668"
   inkscape:window-width="1854"
   inkscape:window-height="1011"
   inkscape:window-x="0"
   inkscape:window-y="0"
   inkscape:window-maximized="1"
   inkscape:current-layer="g6" />
<g
   id="g6">
	<path
   d="m 20.569438,10.517231 c -0.30777,0 -0.557252,0.280006 -0.557252,0.625434 v 3.364159 c 0,3.97871 -3.106955,5.396384 -6.014638,5.396384 -2.907684,0 -6.0145844,-1.417674 -6.0145844,-5.396384 v -3.364159 c 0,-0.345428 -0.2494809,-0.625434 -0.5572497,-0.625434 -0.3077709,0 -0.5572519,0.280006 -0.5572519,0.625434 v 3.364159 c 0,2.119474 0.7430391,3.862125 2.1488193,5.039758 1.1371807,0.952603 2.6582557,1.496796 4.4230707,1.591173 v 4.504514 h -3.428211 c -0.3077711,0 -0.5572521,0.280007 -0.5572521,0.625435 0,0.345428 0.249481,0.625435 0.5572521,0.625435 h 7.97087 c 0.30777,0 0.557251,-0.280007 0.557251,-0.625435 0,-0.345428 -0.249481,-0.625435 -0.557251,-0.625435 h -3.428212 v -4.504514 c 1.764816,-0.09432 3.28589,-0.63857 4.423073,-1.591173 1.405778,-1.177572 2.148817,-2.920284 2.148817,-5.039758 v -3.364159 c 0,-0.345428 -0.249481,-0.625434 -0.557251,-0.625434 z"
   id="path2"
   style="fill:#ffffff;fill-opacity:1;stroke-width:0.0590361" />
	<path
   d="m 10.288259,17.969485 c 0.911105,0.668527 2.159127,1.007513 3.709344,1.007513 1.550219,0 2.798239,-0.338986 3.709346,-1.007513 1.087587,-0.798057 1.662448,-2.066189 1.662448,-3.667371 V 6.5763597 c 5.5e-5,-3.1511973 -2.208945,-5.3520434 -5.371794,-5.3520434 -3.162846,0 -5.3717918,2.2008461 -5.3717918,5.3520434 v 7.7257543 c -5.57e-5,1.601182 0.5748589,2.869314 1.6624478,3.667371 z M 13.997603,2.4751887 c 2.119117,0 4.257347,1.2681326 4.257347,4.101171 v 0.5758361 h -2.246392 c -0.30777,0 -0.557252,0.2800093 -0.557252,0.6254381 0,0.3454279 0.249482,0.6254344 0.557252,0.6254344 h 2.246392 v 1.4575782 h -2.246392 c -0.30777,0 -0.557252,0.2800095 -0.557252,0.6254385 0,0.345427 0.249482,0.625434 0.557252,0.625434 h 2.246392 v 1.457578 h -2.246392 c -0.30777,0 -0.557252,0.280009 -0.557252,0.625434 0,0.345428 0.249482,0.625439 0.557252,0.625439 h 2.246392 v 0.48221 c 0,1.191579 -0.378708,2.048675 -1.157858,2.620388 -0.716458,0.52574 -1.788276,0.803621 -3.099489,0.803621 -1.311212,0 -2.382974,-0.277881 -3.099487,-0.803621 C 10.119023,16.350855 9.7403126,15.493759 9.7403126,14.30218 v -0.48221 h 2.2463934 c 0.30777,0 0.557251,-0.280011 0.557251,-0.625439 0,-0.345425 -0.249481,-0.625434 -0.557251,-0.625434 H 9.7403126 v -1.457578 h 2.2463934 c 0.30777,0 0.557251,-0.280007 0.557251,-0.625434 0,-0.345429 -0.249481,-0.6254385 -0.557251,-0.6254385 H 9.7403126 V 8.4030683 h 2.2463934 c 0.30777,0 0.557251,-0.2800065 0.557251,-0.6254344 0,-0.3454288 -0.249481,-0.6254381 -0.557251,-0.6254381 H 9.7403126 V 6.5763597 c -5.6e-5,-2.8330384 2.1381754,-4.101171 4.2572904,-4.101171 z"
   id="path4"
   style="fill:#ffffff;fill-opacity:1;stroke:none;stroke-width:0.0590361;stroke-opacity:1" />
</g>
</svg>
