<?xml version="1.0" encoding="UTF-8" standalone="no"?>
<!-- Generator: Adobe Illustrator 15.0.0, SVG Export Plug-In . SVG Version: 6.00 Build 0)  -->

<svg
   id="Layer_1"
   enable-background="new 0 0 595.28 841.89"
   sodipodi:docname="mrv2.svg"
   xml:space="preserve"
   viewBox="0 0 299.99998 300"
   version="1.1"
   y="0px"
   x="0px"
   inkscape:version="1.3 (0e150ed6c4, 2023-07-21)"
   width="300"
   height="300"
   inkscape:export-filename="..\etc\mrv2.png"
   inkscape:export-xdpi="15.36"
   inkscape:export-ydpi="15.36"
   xmlns:inkscape="http://www.inkscape.org/namespaces/inkscape"
   xmlns:sodipodi="http://sodipodi.sourceforge.net/DTD/sodipodi-0.dtd"
   xmlns="http://www.w3.org/2000/svg"
   xmlns:svg="http://www.w3.org/2000/svg"
   xmlns:rdf="http://www.w3.org/1999/02/22-rdf-syntax-ns#"
   xmlns:cc="http://creativecommons.org/ns#"
   xmlns:dc="http://purl.org/dc/elements/1.1/"><title
   id="title1">mrv2</title><defs
   id="defs1" /><sodipodi:namedview
   id="namedview65"
   bordercolor="#666666"
   inkscape:pageshadow="2"
   guidetolerance="10"
   pagecolor="#ffffff"
   gridtolerance="10"
   inkscape:window-maximized="0"
   inkscape:zoom="1.1212866"
   objecttolerance="10"
   borderopacity="1"
   inkscape:current-layer="Layer_1"
   inkscape:cx="188.17669"
   inkscape:cy="168.55637"
   inkscape:window-y="4"
   inkscape:window-x="469"
   inkscape:window-width="1350"
   showgrid="false"
   inkscape:pageopacity="0"
   inkscape:window-height="1032"
   inkscape:showpageshadow="2"
   inkscape:pagecheckerboard="0"
   inkscape:deskcolor="#d1d1d1" />&#10;<path
   id="path3"
   d="m 147.68907,267.14474 c -13.823,-1.489 -27.537,-6.111 -40.729,-11.432 -15.840007,-6.389 -29.609007,-18.18 -44.979007,-25.647 -11.587,-5.632 -28.667,-11.182 -38.924,1.106 19.517,-33.419 41.483,-61.041 73.661,-73.197 18.407007,-6.953 41.322007,-9.923 59.837007,-2.354 16.928,6.919 34.903,18.076 49.492,31.049 6.577,5.849 13.975,12.766 19.146,20.529 3.183,4.774 5.602,10.427 9.179,14.624 -8.426,0.333 -16.328,12.329 -23.578,17.062 -11.307,7.384 -22.343,17.624 -34.677,22.267 -9.01,3.39 -18.93,7.01 -28.43,5.99 z"
   fill="#ffffff" />&#10;<path
   id="path5"
   d="m 65.259063,197.24474 c 0.916,-7.375 4.112,-14.859 8.044,-20.291 2.084,-2.877 4.258,-4.683 6.687,-6.906 2.888,-2.649 5.391,-5.534 8.862,-6.986 -6.322,1.941 -13.109,6.066 -18.861,10.013 -5.878,4.033 -11.47,8.449 -16.646,13.89 -4.899,5.142 -9.58,11.685 -13.607,17.935 -2.754,4.285 -5.661,11.637 -1.096,15.724 4.865,4.354 11.336,5.561 16.775,8.183 6.187,2.979 13.331,7.285 19.988,7.943 2.827,0.281 4.689,0.468 7.461,1.772 3.229,1.52 6.63,2.891 10.117,2.518 -2.916,-2.435 -6.134,-4.373 -9.149,-6.581 -2.396,-1.753 -4.519,-3.808 -6.515,-6.255 -3.438,-4.221 -6.448,-8.951 -9.238,-14.02 -2.79,-5.1 -3.56,-10.79 -2.8,-16.92 z"
   fill="#f4f4f4" />&#10;<path
   id="path7"
   d="m 56.719063,195.74474 c 2.295,-8.347 7.73,-15.934 12.995,-20.879 1.965,-1.843 4.178,-3.323 6.054,-5.276 -3.307,1.961 -6.595,4.113 -9.825,6.34 -3.759,2.59 -7.26,6.113 -10.688,9.324 -3.379,3.169 -6.548,6.37 -9.146,10.623 -2.042,3.334 -4.955,5.978 -6.94,9.571 -1.391,2.518 -3.122,5.813 -2.696,9.021 0.46,3.471 3.817,5.755 5.913,7.549 2.3,1.979 5.087,2.712 7.63,4.015 4.419,2.271 8.574,4.836 12.839,7.518 5.94,3.738 11.956,5.74 18.458,7.54 -1.534,-1.875 -4.114,-2.971 -6.075,-3.952 -3.094,-1.546 -5.607,-3.784 -8.033,-6.658 -6.14,-7.267 -12.367,-17.409 -11.543,-28.72 0.16,-2.03 0.52,-4.04 1.07,-6.01 z"
   fill="#e0e0e0" />&#10;<path
   id="path9"
   d="m 197.22907,227.93474 c -1.056,2.926 -2.523,5.622 -4.448,7.937 -3.094,3.721 -6.623,6.381 -10.187,9.264 -1.708,1.383 -4.441,3.008 -5.683,5.03 2.656,-1.706 6.348,-1.876 9.248,-2.663 7.87,-2.151 15.788,-6.134 23.077,-10.442 4.897,-2.892 13.567,-7.598 15.443,-14.831 2.351,-9.085 -6.309,-17.932 -10.57,-23.293 -7.067,-8.899 -14.718,-16.243 -23.065,-23.022 -3.17,-2.577 -6.901,-4.552 -10.43,-6.228 9.75,9.908 18.11,26.606 18.745,42.971 0.2,5.29 -0.44,10.58 -2.13,15.27 z"
   fill="#f4f4f4" />&#10;<path
   id="path11"
   d="m 203.61907,235.17474 c -1.611,1.455 -3.253,2.879 -4.677,4.799 1.336,0.202 2.847,-0.536 4.149,-1.038 3.1,-1.2 6.205,-2.464 9.136,-4.242 2.471,-1.491 3.557,-3.559 5.525,-5.729 3.128,-3.453 11.064,-7.826 7.414,-14.528 -2.719,-4.986 -6.815,-8.287 -10.625,-11.766 -3.91,-3.563 -7.146,-8.12 -11.014,-11.686 -3.021,-2.779 -6.131,-5.322 -9.096,-8.174 5.579,9.58 13.854,18.229 16.342,30.269 1.052,5.069 0.482,10.681 -1.609,15.179 -1.43,3.11 -3.46,5.04 -5.54,6.92 z"
   fill="#e0e0e0" />&#10;<path
   id="path13"
   d="m 199.23907,173.54474 c -4.683,-5.215 -9.62,-9.816 -15.226,-12.592 -26.061,-12.95 -52.547,-16.702 -79.676,-6.107 -11.516007,4.482 -23.000007,8.926 -33.871007,17.003 -9.793,7.281 -19.799,10.175 -28.129,20.557 -3.808,4.747 -7.12,10.085 -10.6,15.21 -1.88,2.771 -9.541,10.17 -10.038,13.319 7.826,-49.594 35.774,-85.611 74.631,-97.163 21.685007,-6.446 44.926007,-6.698 66.208007,0.558 41.161,14.032 65.07,63.984 110.26,68.996 -10.247,5.921 -25.498,14.445 -36.827,12.544 -14.99,-2.53 -25.08,-19.36 -36.72,-32.33 z"
   fill="#fde8d8" />&#10;<linearGradient
   id="SVGID_1_"
   y2="523.65997"
   gradientUnits="userSpaceOnUse"
   x2="495.45999"
   gradientTransform="matrix(-0.959,-0.2836,-0.2836,0.959,701.48907,-180.11626)"
   y1="523.65997"
   x1="393.38">&#10;	<stop
   id="stop16"
   style="stop-color:#D3D9BE"
   offset=".0547" />&#10;	<stop
   id="stop18"
   style="stop-color:#A9C38D"
   offset=".1934" />&#10;	<stop
   id="stop20"
   style="stop-color:#A3C186"
   offset=".263" />&#10;	<stop
   id="stop22"
   style="stop-color:#90B975"
   offset=".3682" />&#10;	<stop
   id="stop24"
   style="stop-color:#6BAC5A"
   offset=".4959" />&#10;	<stop
   id="stop26"
   style="stop-color:#229D3D"
   offset=".6402" />&#10;	<stop
   id="stop28"
   style="stop-color:#009B39"
   offset=".6606" />&#10;	<stop
   id="stop30"
   style="stop-color:#0A6930"
   offset=".9964" />&#10;</linearGradient>&#10;<path
   id="path32"
   d="m 111.12907,156.06474 c 29.52,-3.487 87.91,0.046 64.37,52.784 -10.83,24.267 -36.983,34.983 -59.791,29.84 -16.335003,-3.685 -31.849007,-22.343 -34.766007,-40.647 -1.342,-8.403 -1.066,-17.043 -0.169,-25.521 1.52,-14.26 20.380007,-15.27 30.360007,-16.45 z"
   fill="url(#SVGID_1_)"
   style="fill:url(#SVGID_1_)" />&#10;<path
   id="path34"
   d="m 151.35907,177.24474 c 7.99,33.093 -33.19,49.197 -42.828,19.683 -9.440007,-28.89 34.16,-55.62 42.83,-19.68 z"
   fill="#13110c" />&#10;<path
   id="path36"
   d="m 141.61907,193.76474 c 3.021,-9.293 15.078,-17.983 19.172,-6.874 2.508,6.797 3.25,16.393 -3.21,19.87 -3.878,2.087 -12.51,0.061 -15.289,-4.131 -1.67,-2.53 -1.68,-5.73 -0.67,-8.87 z"
   fill="#ffffff" />&#10;<path
   id="path38"
   d="m 98.529063,150.14474 c -16.579,7.807 -35.071,19.887 -48.617,34.558 -5.398,5.84 -10.786,13.043 -15.411,19.911 -4.861,7.228 -9.226,19.479 -15.298,24.923 17.871,-16.037 31.885,-39.551 51.214,-52.677 19.793,-13.423 41.896007,-21.986 64.499007,-19.11 17.709,2.249 32.588,2.801 47.907,16.302 9.531,8.416 17.377,18.582 25.736,28.694 7.39,8.94 17.775,15.184 27.607,18.786 15.495,5.676 31.052,-4.564 43.443,-15.115 -7.113,8.043 -20.393,7.964 -29.309,6.557 -10.104,-1.601 -16.4,-10.025 -24.491,-18.018 -25.249,-24.931 -47.549,-51.856 -81.269,-53.546 -15.98,-0.79 -30.98,1.67 -46.010007,8.75 z"
   fill="#13110c" />&#10;<path
   id="path40"
   d="m 196.71907,231.68474 c -2.142,0.883 -4.38,1.839 -6.735,2.886 -25.104,11.097 -63.693,11.509 -90.543003,3.47 -14.537004,-4.353 -25.807004,-11.37 -39.404004,-16.527 -16.022,-6.091 -37.796,-3.376 -46.111,10.634 18.83,-6.896 31.207,-10.988 51.483,-4.543 16.582,5.274 31.153,14.17 48.185007,18.37 15.965,3.928 29.439,4.225 45.71,3.604 11.396,-0.428 26.109,0.563 31.645,10.152 -3.593,-6.221 -11.537,-12.412 -17.705,-15.713 9.778,1.798 19.384,8.449 24.663,14.852 -2.097,-7.141 -10.645,-12.228 -17.916,-16.204 11.985,0.961 23.334,6.567 31.188,13.769 -3.438,-5.891 -15.028,-13.138 -23.29,-13.172 14.172,-0.773 29.215,6.376 37.643,15.073 -3.37,-10.21 -19.971,-18.366 -32.702,-18.585 13.402,-2.587 24.96,1.471 36.628,5.33 -5.975,-3.76 -13.023,-7.264 -20.674,-8.438 9.45,-3.149 21.563,0.076 29.498,4.545 -6.225,-4.642 -14.201,-10.165 -23.227,-9.947 -0.31,0.144 -0.299,0.152 0.032,0.026 13.055,-4.066 27.921,-5.208 41.253,-1.142 -26.42,-8.05 -38.13,-7.3 -59.63,1.56 z"
   fill="#13110c" />&#10;<path
   id="path42"
   d="m 202.45907,188.50474 c 15.276,26.222 50.632,13.192 65.928,-5.786 -16.571,15.641 -49.753,18.069 -65.921,1.884 17.227,5.013 45.147,-1.476 53.072,-23.814 -19.995,26.604 -50.883,13.37 -73.785,5.881 12.2,8.602 40.651,3.67 42.151,-17.61 -9.925,20.55 -39.27,15.457 -54.241,10.215 13.283,0.963 26.092,-7.722 31.009,-23.692 -14.941,27.023 -39.131,8.575 -57.152,17.568 22.925,10.134 47.109,28.256 69.591,47.226 l -10.66,-11.87 z"
   fill="#13110c" />&#10;<path
   id="path44"
   d="m 46.419063,67.904739 c 0.66,-1.064 1.287,-2.134 1.817,-3.226 -5.73,3.005 -8.925,9.615 -12.306,14.706 0.756,-5.505 3.029,-10.888 3.892,-16.418 -4.219,5.97 -6.325,13.256 -10.798,18.933 -1.701,-5.742 0.404,-15.397 3.139,-20.807 -4.187,9.141 -7.621,17.604 -9.972,27.361 -0.151,-5.73 -2.426,-11.874 -1.243,-17.553 -1.026,9.362 -3.575,18.646 -4.316,28.133003 -1.458,-4.718003 -6.631,-22.219003 -3.05,-25.642003 -2.404,11.742 -2.603,21.982 -2.231,33.851001 -2.3989997,-5.585 -6.0039997,-15.830001 -4.6399997,-21.843001 0.227,10.645 -0.429,20.592991 2.232,30.992001 -3.215,-5.78 -7.442,-14.833 -8.00300005,-21.581001 -0.675,9.181001 5.89000005,21.257001 9.99399975,29.439001 6.604,-8.307 19.108,-13.769 28.86,-17.88401 12.828,-5.41299 25.781,-10.464991 38.568,-15.999991 10.534,-4.56 21.223004,-8.65 31.982007,-12.667 11.53,-4.305 21.972,-9.296 34.211,-11.434 11.779,-2.058 23.219,-5.968 34.951,-8.487 11.452,-2.46 22.817,-4.657 34.526,-5.71 12.197,-1.098 23.858,1.708 35.737,1.709 -7.117,1.761 -16.526,2.362 -23.007,4.362 6.843,-0.331 13.249,-0.257 20.033,0.082 -4.188,0.7 -9.805,0.958 -14.107,2.373 7.118,1.274 14.292,-0.16 21.319,2.252 -4.578,0.924 -11.918,-1.093 -15.633,1.368 6.3,1.488 13.132,0.737 19.511,2.615 -3.364,0.652 -6.891,0.186 -10.259,0.805 4.689,1.734 10.769,1.014 15.637,3.447 -2.796,0.56 -6.516,0.609 -9.095,1.097 5.078,0.64 11.976,1.746 15.704,5.095 -2.767,-0.557 -6.353,-1.043 -8.863,-0.326 4.694,4.794 14.644,4.33 20.042,9.294 -4.952,-1.756 -10.315,-3.638 -15.645,-3.404 5.979,1.943 13.559,2.655 18.336,6.725 -4.264,0.246 -8.979,-1.03 -13.019,-1.691 3.082,3.478 11.039,4.402 15.595,6.485 -2.665,-1.217 -7.784,-1.852 -10.722,-2.08 2.297,4.096 8.766,6.134003 12.108,9.889001 4.013,4.49999 6.761,8.523 13.354,10.228 -1.703,-0.44 -8.903,-20.598001 -10.436,-23.242001 -4.89,-8.43 -10.673,-16.433 -17.255,-23.773 -6.394,-7.129 -13.581,-13.75 -21.74,-19.086 -3.713,-2.43 -7.705,-4.833 -11.912,-6.437001 -2.891,-1.102 -8.735,-1.192 -10.271,-4.096 -1.429,-0.027 -2.985,-0.63 -4.522,-0.136 0.584,-0.297 1.465,-0.781 2.237,-1.104 -2.077,-1.098 -5.064,-0.488 -7.623,-0.344 1.563,-0.766 3.647,-1.521 5.604,-1.728 -10.009,-3.727 -27.494,2.01 -37.959,3.882 -13.566,2.425 -27.172,4.745 -40.809,7.048001 -14.117,2.385 -28.239,5.832 -41.989,9.594 -10.047007,2.749 -20.264007,4.96 -30.203007,8.05 -6.504,2.022 -17.961,3.36 -22.694,8.292 0.824,-0.86 1.499,-1.872 2.446,-2.74 -4.086,2.438 -7.453,7.476 -11.8,8.909 1.04,-2.62 2.74,-5.08 4.28,-7.56 z" />&#10;<linearGradient
   id="SVGID_2_"
   y2="478.48001"
   gradientUnits="userSpaceOnUse"
   x2="326.14001"
   y1="478.48001"
   x1="225.96001"
   gradientTransform="translate(-146.34093,-273.07526)">&#10;	<stop
   id="stop47"
   style="stop-color:#D3D9BE"
   offset=".0547" />&#10;	<stop
   id="stop49"
   style="stop-color:#A9C38D"
   offset=".1934" />&#10;	<stop
   id="stop51"
   style="stop-color:#A3C186"
   offset=".263" />&#10;	<stop
   id="stop53"
   style="stop-color:#90B975"
   offset=".3682" />&#10;	<stop
   id="stop55"
   style="stop-color:#6BAC5A"
   offset=".4959" />&#10;	<stop
   id="stop57"
   style="stop-color:#229D3D"
   offset=".6402" />&#10;	<stop
   id="stop59"
   style="stop-color:#009B39"
   offset=".6606" />&#10;	<stop
   id="stop61"
   style="stop-color:#0A6930"
   offset=".9964" />&#10;</linearGradient>&#10;<path
   id="path63"
   d="m 85.929063,215.19474 c -2.528,-5.009 -4.789,-11.611 -5.481,-16.51 -0.563,-3.991 -0.833,-8.061 -0.831,-12.192 0.004,-4.544 1.491,-10.175 0.682,-14.333 4.567,-2.297 12.487,-0.141 17.548,-0.785 -4.911,0.627 -11.877,1.244 -16.168,3.968 5.154,0.289 10.995,-0.254 16.393,-0.324 -5.155,1.673 -10.969,1.821 -15.951,3.684 6.045,0.232 12.172,-1.238 18.154007,0 -6.431007,0.398 -13.654007,3.29 -19.718007,5.553 5.494,-1.229 11.189,-1.6 16.848,-1.674 -5.75,2.641 -11.933,4.769 -17.282,8.318 5.613,-1.342 12.316,-5.274 18.208,-3.633 -2.296,4.37 -12.113,6.593 -16.229,9.418 5.8,0.351 11.682,-5.285 17.998007,-4.784 -3.550007,4.832 -11.579007,6.755 -16.010007,11.148 5.349,-2.793 10.612,-5.875 16.440007,-7.264 -2.004007,4.742 -9.990007,7.521 -13.402007,11.166 3.831,-1.509 6.901,-4.802 10.988,-5.979 -1.842,4.344 -7.928,6.126 -9.657,10.845 3.665,-0.304 8.267,-5.411 12.071007,-6.758 -1.928007,4.492 -6.936007,7.39 -8.543007,12.369 4.121,-2.071 8.075007,-6.064 12.243007,-8.476 -2.386,3.574 -8.664007,8.604 -8.475007,13.368 4.228004,-3.784 8.286007,-7.836 12.937007,-11.165 -2.591,4.634 -8.017,10.221 -9.205003,15.302 2.554003,-1.311 3.929003,-5.313 5.647003,-7.78 2.112,-3.032 4.71,-6.08 7.763,-7.973 -2.644,5.437 -7.324,11.164 -8.276,17.461 3.135,-3.832 5.396,-8.72 8.299,-12.822 -0.84,6.101 -3.57,11.636 -3.718,17.956 2.904,-4.808 5.006,-11.595 9.416,-15.102 -1.592,4.891 -3.872,9.64 -1.691,14.852 2.233,-3.979 2.624,-9.515 4.529,-13.809 -0.339,4.17 -1.647,9.647 -0.45,13.576 1.155,-4.621 3.092,-8.313 4.737,-12.603 0.393,4.71 -1.248,8.855 0.381,13.513 0.841,-4.169 2,-8.368 2.878,-12.536 0.527,3.953 0.668,10.725 2.805,13.814 0.911,-3.199 0.999,-6.873 0.971,-10.213 2.094,2.294 1.647,6.995 3.896,9.232 0.428,-2.886 0.534,-6.438 0.131,-9.232 0.933,2.693 0.816,6.111 2.949,8.009 0.005,-2.284 -0.429,-4.753 -0.861,-6.966 1.807,2.782 3.712,5.304 5.764,7.879 -0.02,-3.279 -0.584,-6.651 -1.127,-9.836 1.392,2.798 2.968,6.077 5.763,7.391 0.136,-3.669 -1.81,-7.994 -3.466,-11.104 2.075,1.708 4.643,3.878 6.515,5.754 -1.741,-2.083 -3.341,-5.115 -4.37,-7.71 3.337,2.26 6.377,4.688 9.861,6.795 -0.096,-3.301 -2.017,-7.084 -3.776,-9.704 -0.078,-0.083 -0.081,-0.079 -0.011,0.015 2.955,2.446 6.124,4.568 9.756,5.544 -0.486,-2.876 -1.88,-7.229 -3.888,-9.223 2.818,1.351 7.385,4.896 10.341,2.894 -1.996,-1.944 -4.347,-4.014 -6.404,-5.808 2.823,1.123 5.71,2.466 8.73,2.899 -2.192,-1.177 -5.77,-2.905 -6.742,-5.332 2.548,0.398 7.842,2.137 9.918,0.213 -1.662,-2.701 -5.78,-2.227 -6.837,-5.772 1.99,0.715 4.642,1.65 6.565,0.652 -0.71,-2.863 -4.381,-3.4 -6.352,-5.028 1.985,0.668 7.11,1.321 8.325,-0.544 -1.861,-1.638 -4.464,-1.265 -6.505,-2.493 2.347,-0.479 5.018,-0.529 7.413,-0.519 -1.537,-1.905 -4.674,-2.595 -6.748,-3.877 1.496,0.178 3.063,0.521 4.522,-0.036 -0.697,-1.268 -2.176,-1.808 -3.651,-1.889 1.414,-0.459 2.9,-0.641 4.335,-0.678 -0.943,-0.119 -2.322,-0.541 -3.237,-0.8 1.207,-0.445 2.673,-0.621 3.889,-1.214 -1.306,-1.392 -3.78,-1.365 -5.251,-2.64 0.836,-0.067 1.548,-0.351 2.434,-0.293 -0.069,-0.019 -1.281,-0.54 -1.729,-0.675 1.831,-0.035 4.233,-0.273 5.729,-0.521 -0.322,3.002 0.923,6.39 1.087,9.48 0.229,4.342 -0.316,8.042 -0.883,12.261 -0.745,5.549 -2.746,10.105 -5.56,14.802 -6.76,11.289 -15.02,15.43 -26.396,19.587 -14.315,5.229 -29.281,4.51 -42.82,-2.499 -6.547007,-3.391 -12.161007,-8.814 -16.314007,-15.338 -0.61,-0.99 -1.23,-2.1 -1.84,-3.3 z"
   fill="url(#SVGID_2_)"
   style="fill:url(#SVGID_2_)" />&#10;<metadata
   id="metadata1"><rdf:RDF><cc:Work><dc:format>image/svg+xml</dc:format><dc:type
         rdf:resource="http://purl.org/dc/dcmitype/StillImage" /><cc:license
         rdf:resource="http://creativecommons.org/publicdomain/zero/1.0/" /><dc:publisher><cc:Agent
           rdf:about="http://openclipart.org/"><dc:title>Openclipart</dc:title></cc:Agent></dc:publisher><dc:date>2010-06-17T09:05:46</dc:date><dc:source>https://openclipart.org/detail/67411/occhio-01-by-emilie.rollandin</dc:source><dc:creator><cc:Agent><dc:title>emilie.rollandin</dc:title></cc:Agent></dc:creator><dc:subject><rdf:Bag><rdf:li>Eye</rdf:li><rdf:li>Occhio</rdf:li></rdf:Bag></dc:subject><dc:title>mrv2</dc:title><dc:description>Arch. Emilie Rollandin</dc:description></cc:Work><cc:License
       rdf:about="http://creativecommons.org/publicdomain/zero/1.0/"><cc:permits
         rdf:resource="http://creativecommons.org/ns#Reproduction" /><cc:permits
         rdf:resource="http://creativecommons.org/ns#Distribution" /><cc:permits
         rdf:resource="http://creativecommons.org/ns#DerivativeWorks" /></cc:License></rdf:RDF></metadata></svg>
