<?xml version="1.0" encoding="UTF-8" standalone="no"?>
<svg
   xmlns:dc="http://purl.org/dc/elements/1.1/"
   xmlns:cc="http://creativecommons.org/ns#"
   xmlns:rdf="http://www.w3.org/1999/02/22-rdf-syntax-ns#"
   xmlns:svg="http://www.w3.org/2000/svg"
   xmlns="http://www.w3.org/2000/svg"
   xmlns:sodipodi="http://sodipodi.sourceforge.net/DTD/sodipodi-0.dtd"
   xmlns:inkscape="http://www.inkscape.org/namespaces/inkscape"
   shape-rendering="geometricPrecision"
   text-rendering="geometricPrecision"
   image-rendering="optimizeQuality"
   fill-rule="evenodd"
   clip-rule="evenodd"
   viewBox="0 0 40 35"
   version="1.1"
   id="svg4"
   sodipodi:docname="Scrub.svg"
   width="40"
   height="35"
   inkscape:version="1.0.2 (e86c870879, 2021-01-15)">
  <metadata
     id="metadata10">
    <rdf:RDF>
      <cc:Work
         rdf:about="">
        <dc:format>image/svg+xml</dc:format>
        <dc:type
           rdf:resource="http://purl.org/dc/dcmitype/StillImage" />
        <dc:title />
      </cc:Work>
    </rdf:RDF>
  </metadata>
  <defs
     id="defs8" />
  <sodipodi:namedview
     pagecolor="#ffffff"
     bordercolor="#666666"
     borderopacity="1"
     objecttolerance="10"
     gridtolerance="10"
     guidetolerance="10"
     inkscape:pageopacity="0"
     inkscape:pageshadow="2"
     inkscape:window-width="1920"
     inkscape:window-height="977"
     id="namedview6"
     showgrid="false"
     inkscape:pagecheckerboard="true"
     inkscape:zoom="9.4296875"
     inkscape:cx="17.064209"
     inkscape:cy="7.1451512"
     inkscape:window-x="0"
     inkscape:window-y="28"
     inkscape:window-maximized="1"
     inkscape:current-layer="svg4"
     inkscape:document-rotation="0" />
  <path
     fill-rule="nonzero"
     d="M 4.292605,17.578778 C 3.964257,16.726887 3.799867,15.90885 3.807359,15.127171 3.815259,14.31514 4.006472,13.558242 4.389855,12.860476 l 0.02378,-0.0397 C 4.812219,12.191119 5.364927,11.665645 6.07506,11.24811 6.750917,10.850474 7.570798,10.549663 8.53763,10.348976 a 0.59395139,0.72710868 0 0 1 0.126929,-0.0086 c 1.408538,-0.02667 2.199828,-0.85545 3.023146,-1.7181278 0.889391,-0.931763 1.811788,-1.89816 3.468583,-2.218899 1.95582,-0.3785 2.880762,0.477274 3.818605,1.345362 0.772324,0.715029 1.556972,1.4408748 3.222727,1.092171 l 0.07624,-0.0098 c 0.852587,-0.09197 1.87078,0.4249748 2.721726,1.3878588 0.74193,0.839459 1.376128,2.029596 1.668961,3.450088 0.420555,2.039647 0.0886,3.024419 -0.32482,4.250775 -0.163361,0.484507 -0.341963,1.014291 -0.476528,1.685094 -0.158272,0.78963 -0.231809,1.579173 -0.242843,2.365869 -0.01156,0.796333 0.04177,1.602839 0.135076,2.4124 l 0.0037,0.04232 c 0.06123,0.901322 -0.07847,1.682453 -0.434461,2.332324 -0.346932,0.63407 -0.887302,1.112829 -1.63454,1.42295 a 32.784103,40.133934 0 0 1 -2.838945,1.315199 c 0.0526,-0.536185 0.07911,-1.066942 0.08889,-1.574776 a 31.296275,38.312551 0 0 0 2.300775,-1.090344 l 0.04899,-0.02283 c 0.497132,-0.202318 0.842214,-0.492177 1.044552,-0.862038 0.197019,-0.359987 0.272454,-0.829932 0.234999,-1.399737 -0.0972,-0.856657 -0.152047,-1.722666 -0.139882,-2.598582 0.01217,-0.898396 0.09588,-1.797159 0.275335,-2.691989 0.153649,-0.766881 0.351614,-1.353674 0.532645,-1.890852 0.329643,-0.977367 0.594094,-1.762695 0.268561,-3.341865 C 25.274093,12.897449 24.77309,11.955915 24.187505,11.293422 23.581521,10.607762 22.908208,10.232233 22.385863,10.283875 20.220536,10.732751 19.230334,9.817186 18.255606,8.914668 17.519714,8.2336832 16.793985,7.5622662 15.338034,7.8438852 14.020963,8.0989232 13.227879,8.929755 12.462803,9.731257 c -0.987131,1.034405 -1.935664,2.027769 -3.764707,2.066157 -0.843474,0.178418 -1.545841,0.43415 -2.109549,0.766085 -0.530701,0.312184 -0.936965,0.690246 -1.22098,1.132384 -0.2432,0.451254 -0.364438,0.934779 -0.369337,1.448823 -0.0055,0.552674 0.121094,1.158076 0.372579,1.811606 0.203507,0.495791 0.465651,0.979104 0.735359,1.476432 0.378414,0.697389 0.77076,1.42131 1.095772,2.317609 -0.433595,-0.09333 -0.8558,-0.04676 -1.264657,0.164713 C 5.681118,20.289028 5.392031,19.755997 5.111574,19.238837 4.824936,18.710151 4.546151,18.196573 4.299083,17.593767 Z M 4.1535,9.238282 H 4.07044 c 0,-1.6770648 -1.171994,-3.1122618 -2.542078,-3.1122618 v -0.101422 c 1.369932,0 2.542078,-1.436391 2.542078,-3.113173 H 4.1535 c 0,1.677056 1.172232,3.111983 2.542093,3.111983 v 0.101574 c -1.370387,0 -2.542093,1.436038 -2.542093,3.1132788 z m 6.585434,-2.2804988 h -0.04899 c 0,-0.987971 -0.691849,-1.834184 -1.498728,-1.834184 v -0.06086 c 0.806217,0 1.498728,-0.845632 1.498728,-1.833087 h 0.04899 c 0,0.489529 0.149908,0.918686 0.449154,1.284851 0.299027,0.365878 0.648483,0.549849 1.04948,0.549849 v 0.05996 c -0.806677,0 -1.498663,0.845013 -1.498663,1.832988 z m 9.607973,-0.475859 h -0.0382 c 0,-0.380793 -0.116767,-0.714762 -0.349382,-0.999764 -0.232814,-0.285018 -0.504761,-0.427973 -0.816891,-0.427973 v -0.04675 c 0.311275,0 0.58408,-0.143147 0.816899,-0.427974 0.232546,-0.286079 0.349382,-0.618989 0.349382,-0.998936 l 0.0382,1.84e-4 c 0,0.380795 0.116929,0.714938 0.3496,0.999759 0.232821,0.285017 0.504765,0.427973 0.816901,0.427973 v 0.04675 c -0.311278,0 -0.584082,0.14296 -0.816901,0.427973 -0.233689,0.283704 -0.349608,0.616697 -0.349608,0.998485 z M 10.363748,25.153483 a 0.43984504,0.53845341 0 0 1 -0.06051,-0.04585 60.355914,73.887038 0 0 1 -0.750229,-0.741744 C 9.212775,24.023535 8.821157,23.629697 8.546024,23.350123 8.359592,23.161912 8.145279,23.030548 7.944798,22.979218 c -0.130462,-0.02815 -0.24709,-0.02815 -0.340234,0.01688 -0.07449,0.04056 -0.139754,0.114376 -0.181822,0.228405 -0.05619,0.154065 -0.084,0.370831 -0.06988,0.667668 0.01371,0.26243 0.08861,0.547558 0.186506,0.827378 0.144579,0.404868 0.344844,0.78187 0.494106,1.021422 0.0094,0.01688 0.01873,0.02815 0.02305,0.04584 l 2.950415,5.158218 c 0.03746,0.06878 0.06051,0.142772 0.06555,0.217037 0.06051,0.593239 0.163167,1.044183 0.312211,1.323784 0.111875,0.205544 0.251844,0.308205 0.433451,0.302389 h 4.642675 c 0.288882,-0.0052 0.549933,-0.10822 0.792262,-0.31376 0.26568,-0.222571 0.503543,-0.570661 0.722517,-1.038603 0.0049,-0.0052 0.0095,-0.01688 0.0144,-0.02284 a 35.730787,43.741231 0 0 1 0.302981,-0.621897 c 0.470839,-0.947294 0.880885,-1.774488 0.927477,-2.950206 l -0.02819,-1.620445 c -0.0049,-0.02284 -0.0049,-0.04584 -0.0049,-0.06878 0,-0.02284 0,-0.177174 0.0049,-0.38247 0.0095,-1.072611 0.02299,-3.287936 -0.778445,-3.453466 h -0.517299 c -0.0049,0.302466 -0.01869,1.502202 -0.03243,1.798803 -0.01379,0.267982 -0.0282,0.519158 -0.0282,0.764587 a 0.38601243,0.47255212 0 0 1 -0.386986,0.473745 0.38601243,0.47255212 0 0 1 -0.386697,-0.473742 c 0,-0.245432 0.01379,-0.530894 0.0282,-0.827467 0.05116,-1.010092 0.111875,-3.059705 -0.545396,-3.202382 h -0.512693 c -0.0282,0 -0.05618,-0.0052 -0.08392,-0.01167 0.0049,0.36509 -0.0144,1.457603 -0.03243,1.822665 -0.01379,0.26836 -0.0282,0.695006 -0.0282,0.940439 a 0.38578838,0.47227784 0 0 1 -0.386843,0.473603 0.38601243,0.47255212 0 0 1 -0.386985,-0.473571 c 0,-0.245432 0.01442,-0.706293 0.0282,-1.003142 0.05186,-1.009905 0.112027,-2.884214 -0.545252,-3.026703 h -0.512766 c -0.03745,0 -0.06988,-0.006 -0.102435,-0.01762 v 2.558729 a 0.38601243,0.47255212 0 0 1 -0.38684,0.47382 0.38623639,0.47282629 0 0 1 -0.38706,-0.473832 V 19.38357 c 0,-0.827202 -0.274966,-1.352396 -0.629248,-1.569294 -0.130462,-0.08025 -0.270286,-0.119762 -0.405428,-0.119762 -0.135214,0 -0.274966,0.03969 -0.4055,0.119762 -0.349742,0.216962 -0.620027,0.742102 -0.620027,1.592144 v 6.624691 a 0.38593771,0.47246065 0 0 1 -0.386709,0.473562 0.38608704,0.47264346 0 0 1 -0.386986,-0.473567 v -0.878789 z m 3.617246,-6.517649 a 0.36286659,0.44421725 0 0 1 0.102435,-0.01688 h 0.536176 c 0.0282,0 0.06051,0.0052 0.0884,0.01167 0.713171,0.136889 1.03476,0.644828 1.165423,1.306517 a 0.39519605,0.48379461 0 0 1 0.163031,-0.04584 h 0.536103 c 0.0282,0 0.0605,0.0052 0.08861,0.01167 0.768959,0.14843 1.076798,0.724727 1.188648,1.455043 0.01869,-0.006 0.03745,-0.006 0.0605,-0.006 h 0.536103 c 0.0282,0 0.0605,0.006 0.08846,0.01167 1.473039,0.279802 1.454452,2.962823 1.440341,4.406536 v 0.37656 l 0.03243,1.66628 v 0.05116 c -0.05618,1.420863 -0.512693,2.339548 -1.039466,3.400912 a 36.57919,44.779838 0 0 0 -0.298383,0.610701 c -0.0049,0.0052 -0.0049,0.01167 -0.0095,0.01688 -0.274967,0.587595 -0.592004,1.038614 -0.955477,1.346645 -0.368328,0.31376 -0.778598,0.473566 -1.225906,0.4793 H 11.841448 C 11.379982,33.73014 11.02127,33.484633 10.755394,32.9996 10.541009,32.611662 10.401257,32.063912 10.326554,31.378934 l -2.889796,-5.055568 -0.0144,-0.01762 C 7.24989,26.026344 7.01692,25.58683 6.839852,25.101699 6.709176,24.736535 6.611275,24.342846 6.588082,23.955046 6.565032,23.49268 6.616192,23.127582 6.723079,22.836362 6.853756,22.477088 7.06814,22.242857 7.324522,22.117369 c 0.237652,-0.119663 0.508081,-0.136889 0.778517,-0.06878 0.326187,0.08027 0.66181,0.279917 0.945991,0.570665 0.23333,0.239624 0.62471,0.627626 1.006913,1.009992 l 0.316894,0.319575 v -4.536135 c 0,-1.261183 0.45679,-2.071382 1.048809,-2.43671 a 1.6555228,2.0266726 0 0 1 0.755228,-0.222572 c 0.260919,0 0.517302,0.07407 0.754997,0.222572 0.665558,0.410781 1.05814,1.676054 1.05814,1.664808 z m 15.589828,9.312112 c -0.368327,0.0052 -0.670671,-0.356085 -0.674848,-0.807094 -0.0043,-0.450993 0.290875,-0.820938 0.659291,-0.826141 0.682267,-0.01167 1.527473,0.02209 2.425679,0.24022 0.922025,0.22416 1.906167,0.642007 2.84604,1.398647 0.307673,0.247716 0.393256,0.754006 0.190895,1.130743 -0.20229,0.376651 -0.615923,0.481417 -0.923593,0.233691 -0.770458,-0.620135 -1.59273,-0.96658 -2.369907,-1.155504 -0.801289,-0.194896 -1.550172,-0.224681 -2.153603,-0.214554 z m -0.242415,-6.484755 c -0.364004,-0.07759 -0.607782,-0.502317 -0.544243,-0.947937 0.06338,-0.445526 0.410325,-0.744041 0.774335,-0.666261 1.805379,0.392175 3.141561,0.89611 4.320802,1.651104 1.181036,0.756476 2.173773,1.745887 3.296261,3.112167 0.261511,0.318263 0.262646,0.83611 0.003,1.156249 -0.259978,0.320025 -0.682987,0.321452 -0.944492,0.003 -1.03253,-1.256781 -1.931258,-2.157555 -2.971927,-2.824255 -1.042352,-0.667472 -2.25945,-1.120477 -3.933495,-1.484353 z m 0.918661,-6.36208 c -0.363932,-0.0723 -0.611098,-0.492882 -0.551954,-0.93843 0.05906,-0.445526 0.402622,-0.748183 0.766504,-0.675785 1.813216,0.361489 3.481507,1.15259 4.988968,2.295951 1.573618,1.193533 2.967069,2.766023 4.162816,4.629729 0.228132,0.355296 0.177716,0.870147 -0.112529,1.149572 -0.290321,0.27939 -0.710795,0.217558 -0.939048,-0.137758 -1.104572,-1.721659 -2.381331,-3.166097 -3.812336,-4.251776 -1.359936,-1.031572 -2.865448,-1.745055 -4.502387,-2.071545 z"
     id="path2-3"
     style="fill:#000000;fill-opacity:1;stroke-width:0.0826108" />
  <path
     fill-rule="nonzero"
     d="M 3.6223046,17.099101 C 3.2939569,16.24721 3.1295672,15.429173 3.137059,14.647494 3.145009,13.835463 3.3361718,13.078565 3.719555,12.380799 l 0.023785,-0.0397 C 4.1419236,11.711442 4.6946321,11.185968 5.4047647,10.768433 6.0806215,10.370797 6.9005034,10.069986 7.8673346,9.869299 a 0.59395139,0.72710868 0 0 1 0.1269295,-0.0086 C 9.4028024,9.834029 10.194092,9.0052488 11.01741,8.142571 c 0.889391,-0.9317635 1.811788,-1.8981599 3.468583,-2.2188988 1.95582,-0.3785002 2.880762,0.4772736 3.818605,1.3453622 0.772324,0.7150284 1.556972,1.4408743 3.222727,1.0921704 l 0.07624,-0.00975 c 0.852587,-0.091968 1.87078,0.424975 2.721726,1.3878594 0.74193,0.8394588 1.376128,2.0295958 1.668961,3.4500878 0.420555,2.039647 0.0886,3.024419 -0.32482,4.250775 -0.163361,0.484507 -0.341963,1.014291 -0.476528,1.685094 -0.158272,0.78963 -0.231809,1.579173 -0.242843,2.365869 -0.01156,0.796333 0.04177,1.602839 0.135076,2.4124 l 0.0037,0.04232 c 0.06123,0.901322 -0.07847,1.682453 -0.434461,2.332324 -0.346932,0.63407 -0.887302,1.112829 -1.63454,1.42295 a 32.784103,40.133934 0 0 1 -2.838945,1.315199 c 0.0526,-0.536185 0.07911,-1.066942 0.08889,-1.574776 a 31.296275,38.312551 0 0 0 2.300775,-1.090344 l 0.04899,-0.02283 c 0.497132,-0.202318 0.842214,-0.492177 1.044552,-0.862038 0.197019,-0.359987 0.272454,-0.829932 0.234999,-1.399737 -0.0972,-0.856657 -0.152047,-1.722666 -0.139882,-2.598582 0.01217,-0.898396 0.09588,-1.797159 0.275335,-2.691989 0.153649,-0.766881 0.351614,-1.353674 0.532645,-1.890852 0.329643,-0.977367 0.594094,-1.762695 0.268561,-3.341865 C 24.603798,12.417822 24.102795,11.476288 23.51721,10.813795 22.911226,10.128135 22.237913,9.7526062 21.715568,9.8042482 19.550241,10.253124 18.560039,9.3375592 17.585311,8.4350407 16.849419,7.7540561 16.12369,7.0826395 14.667739,7.3642579 13.350668,7.6192956 12.557584,8.4501283 11.792508,9.25163 c -0.987131,1.034405 -1.9356643,2.027769 -3.7647066,2.066157 -0.8434742,0.178418 -1.545841,0.43415 -2.1095496,0.766085 -0.5307011,0.312184 -0.9369644,0.690246 -1.22098,1.132384 -0.2431999,0.451254 -0.3644383,0.934779 -0.3693369,1.448823 -0.00551,0.552674 0.1210942,1.158076 0.3725786,1.811606 0.2035075,0.495791 0.465651,0.979104 0.7353599,1.476432 0.3784136,0.697389 0.7707595,1.42131 1.0957714,2.317609 C 6.0980504,20.177398 5.6758452,20.223963 5.2669883,20.435439 5.0108231,19.809401 4.721736,19.27637 4.441279,18.75921 4.1546409,18.230524 3.8758556,17.716946 3.6287883,17.11414 Z M 3.4831999,8.758605 h -0.083059 c 0,-1.6770648 -1.171994,-3.1122621 -2.54207745,-3.1122621 V 5.544921 c 1.36993195,0 2.54207745,-1.4363907 2.54207745,-3.1131732 h 0.083059 c 0,1.6770566 1.1722323,3.1119835 2.5420926,3.1119835 v 0.1015734 c -1.3703862,0 -2.5420926,1.4360379 -2.5420926,3.1132789 z M 10.068634,6.4781062 h -0.04899 c 0,-0.9879715 -0.6918489,-1.8341847 -1.4987276,-1.8341847 v -0.060862 c 0.8062161,0 1.4987276,-0.8456319 1.4987276,-1.8330869 h 0.04899 c 0,0.4895298 0.149908,0.9186864 0.449154,1.2848518 0.299027,0.3658777 0.648483,0.5498487 1.04948,0.5498487 v 0.059961 c -0.806677,0 -1.498663,0.8450126 -1.498663,1.8329878 z m 9.607973,-0.475859 h -0.0382 c 0,-0.3807927 -0.116767,-0.7147618 -0.349382,-0.9997646 C 19.056211,4.7174647 18.784264,4.5745095 18.472134,4.5745095 v -0.046753 c 0.311275,0 0.58408,-0.1431464 0.816899,-0.4279734 0.232546,-0.2860788 0.349382,-0.618989 0.349382,-0.9989366 l 0.0382,1.849e-4 c 0,0.3807945 0.116929,0.7149373 0.3496,0.9997582 0.232821,0.2850176 0.504765,0.4279731 0.816901,0.4279731 v 0.046753 c -0.311278,0 -0.584082,0.1429602 -0.816901,0.4279732 -0.233689,0.2837039 -0.349608,0.6166972 -0.349608,0.9984846 z M 9.6934477,24.673806 a 0.43984504,0.53845341 0 0 1 -0.06051,-0.04585 60.355914,73.887038 0 0 1 -0.7502286,-0.741744 C 8.5424752,23.543858 8.150857,23.15002 7.8757238,22.870446 7.6892916,22.682235 7.4749786,22.550871 7.2744978,22.499541 c -0.1304616,-0.02815 -0.2470896,-0.02815 -0.3402337,0.01688 -0.074487,0.04056 -0.1397538,0.114376 -0.1818217,0.228405 -0.056188,0.154065 -0.083996,0.370831 -0.069878,0.667668 0.013706,0.26243 0.088609,0.547558 0.1865055,0.827378 0.1445794,0.404868 0.3448441,0.78187 0.4941058,1.021422 0.00939,0.01688 0.018735,0.02815 0.023049,0.04584 l 2.9504153,5.158218 c 0.03746,0.06878 0.06051,0.142772 0.06555,0.217037 0.06051,0.593239 0.163167,1.044183 0.312211,1.323784 0.111875,0.205544 0.251844,0.308205 0.433451,0.302389 h 4.642675 c 0.288882,-0.0052 0.549933,-0.10822 0.792262,-0.31376 0.26568,-0.222571 0.503543,-0.570661 0.722517,-1.038603 0.0049,-0.0052 0.0095,-0.01688 0.0144,-0.02284 a 35.730787,43.741231 0 0 1 0.302981,-0.621897 c 0.470839,-0.947294 0.880885,-1.774488 0.927477,-2.950206 l -0.02819,-1.620445 c -0.0049,-0.02284 -0.0049,-0.04584 -0.0049,-0.06878 0,-0.02284 0,-0.177174 0.0049,-0.38247 0.0095,-1.072611 0.02299,-3.287936 -0.778445,-3.453466 H 17.22623 c -0.0049,0.302466 -0.01869,1.502202 -0.03243,1.798803 -0.01379,0.267982 -0.0282,0.519158 -0.0282,0.764587 a 0.38601243,0.47255212 0 0 1 -0.386986,0.473745 0.38601243,0.47255212 0 0 1 -0.386697,-0.473742 c 0,-0.245432 0.01379,-0.530894 0.0282,-0.827467 0.05116,-1.010092 0.111875,-3.059705 -0.545396,-3.202382 h -0.512693 c -0.0282,0 -0.05618,-0.0052 -0.08392,-0.01167 0.0049,0.36509 -0.0144,1.457603 -0.03243,1.822665 -0.01379,0.26836 -0.0282,0.695006 -0.0282,0.940439 a 0.38578838,0.47227784 0 0 1 -0.386843,0.473603 0.38601243,0.47255212 0 0 1 -0.386985,-0.473571 c 0,-0.245432 0.01442,-0.706293 0.0282,-1.003142 0.05186,-1.009905 0.112027,-2.884214 -0.545252,-3.026703 h -0.512766 c -0.03745,0 -0.06988,-0.006 -0.102435,-0.01762 v 2.558729 a 0.38601243,0.47255212 0 0 1 -0.38684,0.47382 0.38623639,0.47282629 0 0 1 -0.38706,-0.473832 v -2.728464 c 0,-0.827202 -0.274966,-1.352396 -0.629248,-1.569294 -0.130462,-0.08025 -0.270286,-0.119762 -0.405428,-0.119762 -0.135214,0 -0.274966,0.03969 -0.4055,0.119762 -0.349742,0.216962 -0.620027,0.742102 -0.620027,1.592144 v 6.624691 A 0.38593771,0.47246065 0 0 1 10.090585,26.024996 0.38608704,0.47264346 0 0 1 9.7035991,25.551429 V 24.67264 Z m 3.6172463,-6.517649 a 0.36286659,0.44421725 0 0 1 0.102435,-0.01688 h 0.536176 c 0.0282,0 0.06051,0.0052 0.0884,0.01167 0.713171,0.136889 1.03476,0.644828 1.165423,1.306517 a 0.39519605,0.48379461 0 0 1 0.163031,-0.04584 h 0.536103 c 0.0282,0 0.0605,0.0052 0.08861,0.01167 0.768959,0.14843 1.076798,0.724727 1.188648,1.455043 0.01869,-0.006 0.03745,-0.006 0.0605,-0.006 h 0.536103 c 0.0282,0 0.0605,0.006 0.08846,0.01167 1.473039,0.279802 1.454452,2.962823 1.440341,4.406536 v 0.37656 l 0.03243,1.66628 v 0.05116 c -0.05618,1.420863 -0.512693,2.339548 -1.039466,3.400912 a 36.57919,44.779838 0 0 0 -0.298383,0.610701 c -0.0049,0.0052 -0.0049,0.01167 -0.0095,0.01688 -0.274967,0.587595 -0.592004,1.038614 -0.955477,1.346645 -0.368328,0.31376 -0.778598,0.473566 -1.225906,0.4793 H 11.171148 C 10.709682,33.250463 10.35097,33.004956 10.085094,32.519923 9.870709,32.131985 9.7309574,31.584235 9.6562543,30.899257 L 6.7664581,25.843689 6.7520624,25.826066 C 6.5795938,25.546664 6.3466244,25.10715 6.1695561,24.622019 6.0388804,24.256855 5.9409793,23.863166 5.9177862,23.475366 5.8947372,23.013 5.9458922,22.647902 6.0527834,22.356682 6.1834599,21.997408 6.3978437,21.763177 6.6542256,21.637689 6.8918779,21.518026 7.1623068,21.5008 7.4327434,21.568909 c 0.3261861,0.08027 0.6618094,0.279917 0.9459905,0.570665 0.2333305,0.239624 0.6247103,0.627626 1.006913,1.009992 l 0.3168936,0.319575 v -4.536135 c 0,-1.261183 0.4567905,-2.071382 1.0488095,-2.43671 a 1.6555228,2.0266726 0 0 1 0.755228,-0.222572 c 0.260919,0 0.517302,0.07407 0.754997,0.222572 0.665558,0.410781 1.05814,1.676054 1.05814,1.664808 z m 15.589828,9.312112 c -0.368327,0.0052 -0.670671,-0.356085 -0.674848,-0.807094 -0.0043,-0.450993 0.290875,-0.820938 0.659291,-0.826141 0.682267,-0.01167 1.527473,0.02209 2.425679,0.24022 0.922025,0.22416 1.906167,0.642007 2.84604,1.398647 0.307673,0.247716 0.393256,0.754006 0.190895,1.130743 -0.20229,0.376651 -0.615923,0.481417 -0.923593,0.233691 -0.770458,-0.620135 -1.59273,-0.96658 -2.369907,-1.155504 -0.801289,-0.194896 -1.550172,-0.224681 -2.153603,-0.214554 z m -0.242415,-6.484755 c -0.364004,-0.07759 -0.607782,-0.502317 -0.544243,-0.947937 0.06338,-0.445526 0.410325,-0.744041 0.774335,-0.666261 1.805379,0.392175 3.141561,0.89611 4.320802,1.651104 1.181036,0.756476 2.173773,1.745887 3.296261,3.112167 0.261511,0.318263 0.262646,0.83611 0.003,1.156249 -0.259978,0.320025 -0.682987,0.321452 -0.944492,0.003 -1.03253,-1.256781 -1.931258,-2.157555 -2.971927,-2.824255 -1.042352,-0.667472 -2.25945,-1.120477 -3.933495,-1.484353 z m 0.918661,-6.36208 c -0.363932,-0.0723 -0.611098,-0.492882 -0.551954,-0.93843 0.05906,-0.445526 0.402622,-0.748183 0.766504,-0.675785 1.813216,0.361489 3.481507,1.15259 4.988968,2.295951 1.573618,1.193533 2.967069,2.766023 4.162816,4.629729 0.228132,0.355296 0.177716,0.870147 -0.112529,1.149572 -0.290321,0.27939 -0.710795,0.217558 -0.939048,-0.137758 -1.104572,-1.721659 -2.381331,-3.166097 -3.812336,-4.251776 -1.359936,-1.031572 -2.865448,-1.745055 -4.502387,-2.071545 z"
     id="path2"
     style="fill:#ffffff;fill-opacity:1;stroke-width:0.0826108" />
</svg>
