<?xml version="1.0" encoding="UTF-8" standalone="no"?>
<!-- Created with Inkscape (http://www.inkscape.org/) -->

<svg
   width="20"
   height="20"
   viewBox="0 0 5.2916665 5.2916666"
   version="1.1"
   id="svg8"
   inkscape:version="1.2-rc (6364d40632, 2022-05-08)"
   sodipodi:docname="Settings.svg"
   xmlns:inkscape="http://www.inkscape.org/namespaces/inkscape"
   xmlns:sodipodi="http://sodipodi.sourceforge.net/DTD/sodipodi-0.dtd"
   xmlns="http://www.w3.org/2000/svg"
   xmlns:svg="http://www.w3.org/2000/svg"
   xmlns:rdf="http://www.w3.org/1999/02/22-rdf-syntax-ns#"
   xmlns:cc="http://creativecommons.org/ns#"
   xmlns:dc="http://purl.org/dc/elements/1.1/">
  <defs
     id="defs2" />
  <sodipodi:namedview
     id="base"
     pagecolor="#ffffff"
     bordercolor="#666666"
     borderopacity="1.0"
     inkscape:pageopacity="0.0"
     inkscape:pageshadow="2"
     inkscape:zoom="32.6"
     inkscape:cx="9.7392638"
     inkscape:cy="10"
     inkscape:document-units="px"
     inkscape:current-layer="ForwardPlayback"
     showgrid="true"
     units="px"
     inkscape:window-width="1920"
     inkscape:window-height="1137"
     inkscape:window-x="-8"
     inkscape:window-y="-8"
     inkscape:window-maximized="1"
     inkscape:pagecheckerboard="0"
     inkscape:snap-bbox="true"
     inkscape:bbox-nodes="true"
     inkscape:showpageshadow="2"
     inkscape:deskcolor="#d1d1d1">
    <inkscape:grid
       type="xygrid"
       id="grid4526"
       empspacing="10" />
  </sodipodi:namedview>
  <metadata
     id="metadata5">
    <rdf:RDF>
      <cc:Work
         rdf:about="">
        <dc:format>image/svg+xml</dc:format>
        <dc:type
           rdf:resource="http://purl.org/dc/dcmitype/StillImage" />
      </cc:Work>
    </rdf:RDF>
  </metadata>
  <g
     inkscape:label="Layer 1"
     inkscape:groupmode="layer"
     id="layer1"
     transform="translate(0,-291.70831)">
    <g
       id="ForwardPlayback"
       inkscape:label="#g4524"
       inkscape:export-xdpi="96"
       inkscape:export-ydpi="96">
      <path
         id="path7624"
         style="fill:#f0f0f0;fill-opacity:1;stroke:none;stroke-width:0.264583;stroke-dasharray:none;stroke-opacity:1"
         d="M 2.3812499 292.50206 L 2.3812499 293.05862 A 1.3229166 1.3229123 0 0 0 1.9166788 293.25085 L 1.5234212 292.85759 L 1.1492838 293.23173 L 1.5425415 293.62499 A 1.3229166 1.3229123 0 0 0 1.3503051 294.08956 L 0.79374998 294.08956 L 0.79374998 294.61873 L 1.3503051 294.61873 A 1.3229166 1.3229123 0 0 0 1.5745809 295.12877 L 1.1978597 295.53908 L 1.5875 295.89668 L 1.9637044 295.48689 A 1.3229166 1.3229123 0 0 0 2.3812499 295.64967 L 2.3812499 296.20623 L 2.9104166 296.20623 L 2.9104166 295.65019 A 1.3229166 1.3229123 0 0 0 3.3749877 295.45744 L 3.7682454 295.85069 L 4.1423827 295.47656 L 3.7491251 295.0833 A 1.3229166 1.3229123 0 0 0 3.9418782 294.61873 L 4.4979166 294.61873 L 4.4979166 294.08956 L 3.9413614 294.08956 A 1.3229166 1.3229123 0 0 0 3.7491251 293.62499 L 4.1423827 293.23173 L 3.7682454 292.85759 L 3.3749877 293.25085 A 1.3229166 1.3229123 0 0 0 2.9104166 293.05862 L 2.9104166 292.50206 L 2.3812499 292.50206 z M 2.6458333 293.56039 A 0.79374983 0.79374715 0 0 1 3.4395833 294.35414 A 0.79374983 0.79374715 0 0 1 2.6458333 295.14789 A 0.79374983 0.79374715 0 0 1 1.8520833 294.35414 A 0.79374983 0.79374715 0 0 1 2.6458333 293.56039 z " />
    </g>
  </g>
</svg>
