<?xml version="1.0" encoding="UTF-8" standalone="no"?>
<!-- Uploaded to: SVG Repo, www.svgrepo.com, Generator: SVG Repo Mixer Tools -->

<svg
   version="1.1"
   id="Layer_1"
   viewBox="0 0 25 25"
   xml:space="preserve"
   sodipodi:docname="Trashcan.svg"
   width="25"
   height="25"
   inkscape:version="1.1.2 (0a00cf5339, 2022-02-04)"
   xmlns:inkscape="http://www.inkscape.org/namespaces/inkscape"
   xmlns:sodipodi="http://sodipodi.sourceforge.net/DTD/sodipodi-0.dtd"
   xmlns="http://www.w3.org/2000/svg"
   xmlns:svg="http://www.w3.org/2000/svg"><defs
   id="defs23"><marker
     style="overflow:visible;"
     id="marker1872"
     refX="0.0"
     refY="0.0"
     orient="auto"
     inkscape:stockid="Arrow1Send"
     inkscape:isstock="true"><path
       transform="scale(0.2) rotate(180) translate(6,0)"
       style="fill-rule:evenodd;fill:context-stroke;stroke:context-stroke;stroke-width:1.0pt;"
       d="M 0.0,0.0 L 5.0,-5.0 L -12.5,0.0 L 5.0,5.0 L 0.0,0.0 z "
       id="path1870" /></marker><marker
     style="overflow:visible;"
     id="Arrow1Send"
     refX="0.0"
     refY="0.0"
     orient="auto"
     inkscape:stockid="Arrow1Send"
     inkscape:isstock="true"><path
       transform="scale(0.2) rotate(180) translate(6,0)"
       style="fill-rule:evenodd;fill:context-stroke;stroke:context-stroke;stroke-width:1.0pt;"
       d="M 0.0,0.0 L 5.0,-5.0 L -12.5,0.0 L 5.0,5.0 L 0.0,0.0 z "
       id="path1599" /></marker><marker
     style="overflow:visible;"
     id="marker1854"
     refX="0.0"
     refY="0.0"
     orient="auto"
     inkscape:stockid="Arrow1Mend"
     inkscape:isstock="true"><path
       transform="scale(0.4) rotate(180) translate(10,0)"
       style="fill-rule:evenodd;fill:context-stroke;stroke:context-stroke;stroke-width:1.0pt;"
       d="M 0.0,0.0 L 5.0,-5.0 L -12.5,0.0 L 5.0,5.0 L 0.0,0.0 z "
       id="path1852" /></marker><marker
     style="overflow:visible;"
     id="Arrow1Mend"
     refX="0.0"
     refY="0.0"
     orient="auto"
     inkscape:stockid="Arrow1Mend"
     inkscape:isstock="true"><path
       transform="scale(0.4) rotate(180) translate(10,0)"
       style="fill-rule:evenodd;fill:context-stroke;stroke:context-stroke;stroke-width:1.0pt;"
       d="M 0.0,0.0 L 5.0,-5.0 L -12.5,0.0 L 5.0,5.0 L 0.0,0.0 z "
       id="path1593" /></marker></defs><sodipodi:namedview
   id="namedview21"
   pagecolor="#ffffff"
   bordercolor="#666666"
   borderopacity="1.0"
   inkscape:pageshadow="2"
   inkscape:pageopacity="0.0"
   inkscape:pagecheckerboard="true"
   showgrid="false"
   inkscape:zoom="8"
   inkscape:cx="3.125"
   inkscape:cy="-1.5625"
   inkscape:window-width="1920"
   inkscape:window-height="964"
   inkscape:window-x="0"
   inkscape:window-y="27"
   inkscape:window-maximized="1"
   inkscape:current-layer="Layer_1" />









<path
   style="fill:#e1e7f2;fill-opacity:1;stroke:#000000;stroke-width:0.852365px;stroke-linecap:butt;stroke-linejoin:miter;stroke-opacity:1"
   d="m 5.3256289,23.237084 c 3.8956303,0.02884 10.8535931,-0.125538 14.8006821,0 1.071828,-1.230653 1.589948,-15.3785188 0,-17.101324 -4.213194,-0.016358 -10.5417467,-0.1492395 -14.9366047,0 -1.4896047,2.0092384 -1.3047705,16.228933 0.1359226,17.101324 z"
   id="path1874"
   sodipodi:nodetypes="ccccc" /><path
   style="fill:#e1e7f2;fill-opacity:1;stroke:#000000;stroke-width:0.340858px;stroke-linecap:butt;stroke-linejoin:miter;stroke-opacity:1"
   d="m 5.9792324,5.4278594 c 3.5855666,0.00508 9.9897266,-0.021811 13.6226566,0 0.986518,-0.2138239 1.4634,-2.671982 0,-2.9713159 -3.877854,-0.00275 -9.7027012,-0.025925 -13.7477608,0 C 4.483085,2.8056446 4.6532078,5.2762837 5.9792324,5.4278594 Z"
   id="path4652"
   sodipodi:nodetypes="ccccc" /><path
   style="fill:#aeb2ba;fill-opacity:1;stroke:#000000;stroke-width:0.239698px;stroke-linecap:butt;stroke-linejoin:miter;stroke-opacity:1"
   d="m 7.262219,8.3324242 c -0.00267,3.3920208 0.0114,9.4504928 0,12.8873228 0.1117732,0.933268 1.396736,1.384408 1.5532081,0 0.00144,-3.668532 0.013551,-9.178963 0,-13.0056741 C 8.6329401,6.9170367 7.341453,7.0779765 7.262219,8.3324242 Z"
   id="path4843"
   sodipodi:nodetypes="ccccc" /><path
   style="fill:#aeb2ba;fill-opacity:1;stroke:#000000;stroke-width:0.239698px;stroke-linecap:butt;stroke-linejoin:miter;stroke-opacity:1"
   d="m 11.66591,8.3451096 c -0.0027,3.3920204 0.0114,9.4504924 0,12.8873224 0.111773,0.933268 1.396736,1.384408 1.553208,0 0.0015,-3.668532 0.01355,-9.178962 0,-13.0056739 C 13.036631,6.9297219 11.745143,7.0906617 11.66591,8.3451096 Z"
   id="path5871"
   sodipodi:nodetypes="ccccc" /><path
   style="fill:#aeb2ba;fill-opacity:1;stroke:#000000;stroke-width:0.239698px;stroke-linecap:butt;stroke-linejoin:miter;stroke-opacity:1"
   d="m 15.851107,8.2802665 c -0.0027,3.3920205 0.0114,9.4504925 0,12.8873225 0.111773,0.933268 1.396736,1.384408 1.553208,0 0.0015,-3.668532 0.01355,-9.178963 0,-13.005674 -0.182487,-1.2970361 -1.473974,-1.1360963 -1.553208,0.1183515 z"
   id="path5873"
   sodipodi:nodetypes="ccccc" /></svg>
