<?xml version="1.0" encoding="UTF-8" standalone="no"?>
<!-- Created with Inkscape (http://www.inkscape.org/) -->

<svg
   version="1.1"
   id="svg2"
   width="24"
   height="24"
   viewBox="0 0 64 64"
   sodipodi:docname="undo.svg"
   inkscape:version="1.1.2 (0a00cf5339, 2022-02-04)"
   xmlns:inkscape="http://www.inkscape.org/namespaces/inkscape"
   xmlns:sodipodi="http://sodipodi.sourceforge.net/DTD/sodipodi-0.dtd"
   xmlns:xlink="http://www.w3.org/1999/xlink"
   xmlns="http://www.w3.org/2000/svg"
   xmlns:svg="http://www.w3.org/2000/svg">
  <defs
     id="defs6">
    <inkscape:path-effect
       effect="fill_between_many"
       method="originald"
       linkedpaths="#path154,0,1|"
       id="path-effect692" />
  </defs>
  <sodipodi:namedview
     id="namedview4"
     pagecolor="#ffffff"
     bordercolor="#666666"
     borderopacity="1.0"
     inkscape:pageshadow="2"
     inkscape:pageopacity="0.0"
     inkscape:pagecheckerboard="0"
     showgrid="false"
     inkscape:zoom="12.28125"
     inkscape:cx="19.867684"
     inkscape:cy="38.554707"
     inkscape:window-width="1920"
     inkscape:window-height="958"
     inkscape:window-x="0"
     inkscape:window-y="27"
     inkscape:window-maximized="1"
     inkscape:current-layer="svg2" />
  <g
     inkscape:groupmode="layer"
     inkscape:label="Image"
     id="g8"
     style="display:none">
    <path
       style="display:none;fill:none;stroke:#000000;stroke-width:1px;stroke-linecap:butt;stroke-linejoin:miter;stroke-opacity:1"
       d="M 58.515058,57.115195 C 58.618191,38.443573 58.019924,19.962694 41.199288,19.973444 24.378653,19.984194 24.386942,20.101212 24.386942,20.101212 L 24.165404,7.704324 2.9588353,26.640796 23.418108,45.005611 23.867252,33.294132 c 0,0 9.327275,0.01722 14.381883,0.09864 5.054608,0.08142 8.240517,3.439879 7.030525,23.644357 l 13.235398,0.07807 z"
       id="path154"
       sodipodi:nodetypes="sscccccsccs" />
  </g>
  <path
     inkscape:original-d="M 0,0"
     inkscape:path-effect="#path-effect692"
     d="M 58.515058,57.115195 C 58.618191,38.443573 58.019924,19.962694 41.199288,19.973444 24.378653,19.984194 24.386942,20.101212 24.386942,20.101212 L 24.165404,7.704324 2.9588353,26.640796 23.418108,45.005611 23.867252,33.294132 c 0,0 9.327275,0.01722 14.381883,0.09864 5.054608,0.08142 8.240517,3.439879 7.030525,23.644357 l 13.235398,0.07807 z"
     id="path694"
     style="display:inline;fill:#ffffff" />
</svg>
