<?xml version="1.0" encoding="UTF-8" standalone="no"?>
<!-- Uploaded to: SVG Repo, www.svgrepo.com, Generator: SVG Repo Mixer Tools -->

<svg
   version="1.1"
   id="Layer_1"
   viewBox="0 0 25 25"
   xml:space="preserve"
   sodipodi:docname="UpFolder.svg"
   width="25"
   height="25"
   inkscape:version="1.1.2 (0a00cf5339, 2022-02-04)"
   xmlns:inkscape="http://www.inkscape.org/namespaces/inkscape"
   xmlns:sodipodi="http://sodipodi.sourceforge.net/DTD/sodipodi-0.dtd"
   xmlns="http://www.w3.org/2000/svg"
   xmlns:svg="http://www.w3.org/2000/svg"><defs
   id="defs23"><marker
     style="overflow:visible;"
     id="marker1872"
     refX="0.0"
     refY="0.0"
     orient="auto"
     inkscape:stockid="Arrow1Send"
     inkscape:isstock="true"><path
       transform="scale(0.2) rotate(180) translate(6,0)"
       style="fill-rule:evenodd;fill:context-stroke;stroke:context-stroke;stroke-width:1.0pt;"
       d="M 0.0,0.0 L 5.0,-5.0 L -12.5,0.0 L 5.0,5.0 L 0.0,0.0 z "
       id="path1870" /></marker><marker
     style="overflow:visible;"
     id="Arrow1Send"
     refX="0.0"
     refY="0.0"
     orient="auto"
     inkscape:stockid="Arrow1Send"
     inkscape:isstock="true"><path
       transform="scale(0.2) rotate(180) translate(6,0)"
       style="fill-rule:evenodd;fill:context-stroke;stroke:context-stroke;stroke-width:1.0pt;"
       d="M 0.0,0.0 L 5.0,-5.0 L -12.5,0.0 L 5.0,5.0 L 0.0,0.0 z "
       id="path1599" /></marker><marker
     style="overflow:visible;"
     id="marker1854"
     refX="0.0"
     refY="0.0"
     orient="auto"
     inkscape:stockid="Arrow1Mend"
     inkscape:isstock="true"><path
       transform="scale(0.4) rotate(180) translate(10,0)"
       style="fill-rule:evenodd;fill:context-stroke;stroke:context-stroke;stroke-width:1.0pt;"
       d="M 0.0,0.0 L 5.0,-5.0 L -12.5,0.0 L 5.0,5.0 L 0.0,0.0 z "
       id="path1852" /></marker><marker
     style="overflow:visible;"
     id="Arrow1Mend"
     refX="0.0"
     refY="0.0"
     orient="auto"
     inkscape:stockid="Arrow1Mend"
     inkscape:isstock="true"><path
       transform="scale(0.4) rotate(180) translate(10,0)"
       style="fill-rule:evenodd;fill:context-stroke;stroke:context-stroke;stroke-width:1.0pt;"
       d="M 0.0,0.0 L 5.0,-5.0 L -12.5,0.0 L 5.0,5.0 L 0.0,0.0 z "
       id="path1593" /></marker></defs><sodipodi:namedview
   id="namedview21"
   pagecolor="#ffffff"
   bordercolor="#666666"
   borderopacity="1.0"
   inkscape:pageshadow="2"
   inkscape:pageopacity="0.0"
   inkscape:pagecheckerboard="true"
   showgrid="false"
   inkscape:zoom="32"
   inkscape:cx="11.8125"
   inkscape:cy="4.875"
   inkscape:window-width="1613"
   inkscape:window-height="713"
   inkscape:window-x="218"
   inkscape:window-y="75"
   inkscape:window-maximized="0"
   inkscape:current-layer="g4938" />









<g
   id="g4508"
   transform="matrix(0.89839563,0,0,0.86222442,1.4157121,1.593296)"><g
     id="g2563"
     inkscape:label="folder"><path
       id="SVGCleanerId_0"
       style="fill:#ffc36e;stroke-width:0.0546214"
       d="M 9.3815295,5.6025951 H 3.7623928 c -0.2929952,0 -0.560884,-0.2572523 -0.6918928,-0.6645797 L 2.5107114,3.1982599 3.0705,1.4585043 C 3.2015088,1.0511769 3.4693538,0.79392458 3.7623928,0.79392458 h 5.6191805 c 0.2929952,0 0.5608841,0.25725232 0.6918927,0.66457972 l 0.559745,1.7397556 -0.559789,1.7397555 C 9.9424135,5.3453428 9.6745685,5.6025951 9.3815295,5.6025951 Z"
       inkscape:label="handle" /><g
       id="g4938"
       transform="matrix(1,0,0,1.1566281,0,-0.92491013)"
       inkscape:label="sheets"><path
         style="fill:#eff2fa;stroke-width:0.0464729"
         d="M 22.539124,3.2943677 H 2.426256 c -0.2136013,0 -0.3868045,0.1948488 -0.3868045,0.4351443 V 5.9051349 H 22.925929 V 3.7294627 c 0,-0.2402955 -0.173203,-0.435095 -0.386805,-0.435095 z"
         id="path6" /><rect
         x="2.0394516"
         y="5.0348463"
         style="fill:#e1e6f2;stroke-width:0.0464729"
         width="20.886478"
         height="0.87023938"
         id="rect8" /></g><path
       style="fill:#ffd782;stroke-width:0.0464729"
       d="M 22.92593,5.0348463 H 10.787815 c -0.146476,0 -0.28042,0.09311 -0.345925,0.240493 L 9.9890117,6.2942413 C 9.858003,6.5891023 9.5900703,6.7753253 9.2971189,6.7753253 H 3.6779384 c -0.2929952,0 -0.560884,-0.186223 -0.6918928,-0.481084 L 2.5331233,5.2753393 C 2.467619,5.1279583 2.3336745,5.0348463 2.1871989,5.0348463 H 2.0394525 c -0.4272463,0 -0.7735651,0.389599 -0.7735651,0.87024 V 22.43978 c 0,0.48064 0.3463188,0.870239 0.7735651,0.870239 H 22.92593 c 0.427246,0 0.773565,-0.389599 0.773565,-0.870239 V 5.9050863 c 0,-0.480641 -0.346319,-0.87024 -0.773565,-0.87024 z"
       id="path10" /><path
       style="fill:#ffc36e;stroke-width:0.0464729"
       d="M 22.539124,21.569541 H 2.426256 c -0.2136013,0 -0.3868045,-0.194849 -0.3868045,-0.435144 v 0 c 0,-0.240296 0.1732032,-0.435144 0.3868045,-0.435144 h 20.112868 c 0.213602,0 0.386805,0.194848 0.386805,0.435144 v 0 c 0,0.240345 -0.173203,0.435144 -0.386805,0.435144 z"
       id="path12" /><path
       style="display:inline;fill:#ffd782;stroke-width:0.0464726"
       d="M 22.715804,4.0798702 H 10.577842 c -0.146474,0 -0.280416,0.09311 -0.34592,0.240493 L 9.7790492,5.3392652 C 9.6480415,5.6341262 9.3801127,5.8203492 9.087165,5.8203492 H 3.4680557 c -0.2929915,0 -0.5608769,-0.186223 -0.691884,-0.481084 L 2.323255,4.3203632 C 2.2577516,4.1729822 2.1238087,4.0798702 1.977335,4.0798702 H 1.8295905 c -0.4272408,0 -0.7735553,0.389599 -0.7735553,0.87024 V 21.484804 c 0,0.48064 0.3463145,0.870239 0.7735553,0.870239 H 22.715804 c 0.427241,0 0.773555,-0.389599 0.773555,-0.870239 V 4.9501102 c 0,-0.480641 -0.346314,-0.87024 -0.773555,-0.87024 z"
       id="path2531" /><g
       id="g4652"
       inkscape:label="label"><path
         style="fill:#eff2fa;stroke-width:0.0464729"
         d="m 15.576995,10.691476 h 5.801804 c 0.213601,0 0.386804,-0.194849 0.386804,-0.435145 V 6.7753249 c 0,-0.2402954 -0.173203,-0.4351443 -0.386804,-0.4351443 h -5.801804 c -0.213602,0 -0.386805,0.1948489 -0.386805,0.4351443 v 3.4810061 c 0,0.240296 0.173203,0.435145 0.386805,0.435145 z"
         id="path14" /><path
         style="fill:#191a1c;fill-opacity:1;stroke-width:0.0464729"
         d="m 20.60519,8.0807086 h -4.25463 c -0.213602,0 -0.386805,-0.1948489 -0.386805,-0.4351443 v 0 c 0,-0.2402955 0.173203,-0.4351443 0.386805,-0.4351443 h 4.25463 c 0.213601,0 0.386804,0.1948488 0.386804,0.4351443 v 0 c 0,0.2403447 -0.173203,0.4351443 -0.386804,0.4351443 z"
         id="path16" /><path
         style="fill:#191a1c;fill-opacity:1;stroke-width:0.0464729"
         d="m 20.60519,9.8211872 h -4.25463 c -0.213602,0 -0.386805,-0.1948488 -0.386805,-0.4351443 v 0 c 0,-0.2402955 0.173203,-0.4351443 0.386805,-0.4351443 h 4.25463 c 0.213601,0 0.386804,0.1948488 0.386804,0.4351443 v 0 c 0,0.2403448 -0.173203,0.4351443 -0.386804,0.4351443 z"
         id="path18" /></g></g><g
     id="g4463"
     inkscape:label="arrow"
     transform="matrix(0.99269171,0,0,1.2036243,0.08146291,-3.6215221)"><path
       style="fill:none;stroke:#000000;stroke-width:1.06229;stroke-linecap:round;stroke-linejoin:round;stroke-miterlimit:4;stroke-dasharray:none;stroke-opacity:1"
       d="m 17.122345,17.522109 -9.7077141,-0.0044 v -7.254792"
       id="path1502"
       sodipodi:nodetypes="ccc" /><path
       style="fill:none;stroke:#000000;stroke-width:1px;stroke-linecap:round;stroke-linejoin:miter;stroke-opacity:1"
       d="m 7.4146309,10.262917 c -2.425639,2.367068 -2.425639,2.367068 -2.425639,2.367068"
       id="path3628" /><path
       style="fill:none;stroke:#000000;stroke-width:1px;stroke-linecap:round;stroke-linejoin:miter;stroke-opacity:1"
       d="m 7.4146309,10.262917 2.5460842,2.310925"
       id="path3823"
       sodipodi:nodetypes="cc" /></g></g></svg>
