/* XPM */
static const char* const viewer16_xpm[] = {
/* columns rows colors chars-per-pixel */
"64 64 212 2 ",
"   c black",
".  c #0D0B06",
"X  c #0C0B0A",
"o  c #110F0A",
"O  c #0E110A",
"+  c #13110C",
"@  c #121A0F",
"#  c #141312",
"$  c #191711",
"%  c #111D10",
"&  c #1B1A14",
"*  c gray11",
"=  c #211F1A",
"-  c #0F2F16",
";  c #122412",
":  c #102A15",
">  c #0E3B1A",
",  c #25221D",
"<  c #202918",
"1  c #25311C",
"2  c #242323",
"3  c #2A2722",
"4  c #2D2A26",
"5  c #2D2C29",
"6  c #302B25",
"7  c #2D3523",
"8  c #34312C",
"9  c gray20",
"0  c #3B3631",
"q  c #3B3A36",
"w  c gray23",
"e  c #443E37",
"r  c #403F3B",
"t  c #0E461E",
"y  c #21401F",
"u  c #144F23",
"i  c #0A5A26",
"p  c #294524",
"a  c #39432C",
"s  c #11742F",
"d  c #067931",
"f  c #337737",
"g  c #474539",
"h  c #44413C",
"j  c #434343",
"k  c #4B4844",
"l  c #4C4C4A",
"z  c #544D45",
"x  c #514F4C",
"c  c #53524E",
"v  c #5A534A",
"b  c #545453",
"n  c #595855",
"m  c #5C5C5B",
"M  c #635A52",
"N  c #5C604E",
"B  c #597B48",
"V  c #6B645D",
"C  c #6C7158",
"Z  c #646363",
"A  c #686764",
"S  c #6B6A67",
"D  c #6C6C6C",
"F  c #746D66",
"G  c #72716E",
"H  c #7D7268",
"J  c #757474",
"K  c #7B7B76",
"L  c #7B7B7A",
"P  c #83786E",
"I  c #847D77",
"U  c #048534",
"Y  c #048A36",
"T  c #0C8138",
"R  c #12853C",
"E  c #019337",
"W  c #08953A",
"Q  c #1A9A44",
"!  c #258847",
"~  c #2C934B",
"^  c #359257",
"/  c #2AA14A",
"(  c #36A451",
")  c #4F8D4F",
"_  c #4B955E",
"`  c #688754",
"'  c #748A5F",
"]  c #74935D",
"[  c #46A74F",
"{  c #44A35A",
"}  c #55A955",
"|  c #6AAD5D",
" . c #519C6D",
".. c #5B9969",
"X. c #768D6A",
"o. c #55AC62",
"O. c #58AB64",
"+. c #65AA68",
"@. c #75AA61",
"#. c #67B166",
"$. c #74B264",
"%. c #7BB165",
"&. c #72B46C",
"*. c #7DB56D",
"=. c #6AAB71",
"-. c #75AE7B",
";. c #6CBF7E",
":. c #77B378",
">. c #85817B",
",. c #93867C",
"<. c #95897E",
"1. c #83B56C",
"2. c #83B86F",
"3. c #89B577",
"4. c #8DB975",
"5. c #96BD7C",
"6. c #94C07E",
"7. c #7CC396",
"8. c #858483",
"9. c #868981",
"0. c #898986",
"q. c #8B8B8A",
"w. c #968C82",
"e. c #908F8D",
"r. c #9E9085",
"t. c #92918F",
"y. c #949392",
"u. c #9A9997",
"i. c #9B9B9B",
"p. c #A3968A",
"a. c #A69E98",
"s. c #89B587",
"d. c #9CBE83",
"f. c #92BB8D",
"g. c #98A091",
"h. c #9CBE96",
"j. c #A1A19E",
"k. c #AEA298",
"l. c #B6A699",
"z. c #A2B193",
"x. c #A5A5A3",
"c. c #AAA7A3",
"v. c #AAA9A7",
"b. c #ACACAB",
"n. c #AFBEA9",
"m. c #B2B0AD",
"M. c #BEB6AE",
"N. c #B4B4B3",
"B. c #B8B7B6",
"V. c #B9B8B7",
"C. c #BCBCBB",
"Z. c #C6B6A8",
"A. c #CBBEB3",
"S. c #9EC083",
"D. c #9DC193",
"F. c #A6C389",
"G. c #A5C28A",
"H. c #A9C596",
"J. c #B0C996",
"K. c #B5CA9C",
"L. c #98C1A6",
"P. c #9CD8B2",
"I. c #B3CAA4",
"U. c #BBCDA4",
"Y. c #BFCFAD",
"T. c #B3CBB1",
"R. c #C2D5AE",
"E. c #C2C0BE",
"W. c #D4C2B4",
"Q. c #DCCABB",
"!. c #C6D5B7",
"~. c #CEDABD",
"^. c #B6D3C1",
"/. c #C4C4C3",
"(. c #CDC6C1",
"). c gray80",
"_. c #CADAC6",
"`. c #D4D9C9",
"'. c #D4D3D3",
"]. c #D8D7D6",
"[. c #DDDDDC",
"{. c #E7D4C5",
"}. c #ECDACC",
"|. c #F1DDCE",
" X c #EFDFD2",
".X c #F3DFD0",
"XX c #D8E3CA",
"oX c #C7E0D1",
"OX c #D7E3D7",
"+X c #E5EBDA",
"@X c #F6E2D2",
"#X c #F9E5D5",
"$X c #FDE8D7",
"%X c #FCE7D8",
"&X c #FDE9D9",
"*X c #E1E1E1",
"=X c #E4E4E4",
"-X c #E8E5E2",
";X c #ECECEB",
":X c gray93",
">X c #FDEEE2",
",X c #F0EFEF",
"<X c #E6F2E8",
"1X c #FEF0E5",
"2X c #F3F5EE",
"3X c #FEF4EC",
"4X c #F4F4F3",
"5X c #F6F6F6",
"6X c #FEF9F5",
"7X c gray98",
"8X c #FDFDFD",
"9X c white",
/* pixels */
"9X9X9X9X9X9X9X9X9X9X9X9X9X9X9X9X9X9X9X9X9X9X9X9X9X9X9X9X9X9X9X9X9X9X9X9X9X9X9X9X9X9X9X9X9X9X9X9X9X9X9X9X9X9X9X9X9X9X9X9X9X9X9X9X",
"9X9X9X9X9X9X9X9X9X9X9X9X9X9X9X9X9X9X9X9X9X9X9X9X9X9X9X9X9X9X9X9X9X9X9X9X9X9X9X9X9X9X9X9X9X9X9X9X9X9X9X9X9X9X9X9X9X9X9X9X9X9X9X9X",
"9X9X9X9X9X9X9X9X9X9X9X9X9X9X9X9X9X9X9X9X9X9X9X9X9X9X9X9X9X9X9X9X9X9X9X9X9X9X9X9X9X9X9X9X9X9X9X9X9X9X9X9X9X9X9X9X9X9X9X9X9X9X9X9X",
"9X9X9X9X9X9X9X9X9X9X9X9X9X9X9X9X9X9X9X9X9X9X9X9X9X9X9X9X9X9X9X9X9X9X9X9X9X9X9X9X9X9X9X9X9X9X9X9X9X9X9X9X9X9X9X9X9X9X9X9X9X9X9X9X",
"9X9X9X9X9X9X9X9X9X9X9X9X9X9X9X9X9X9X9X9X9X9X9X9X9X9X9X9X9X9X9X9X9X9X9X9X9X9X9X9X9X9X9X9X9X9X9X9X9X9X9X9X9X9X9X9X9X9X9X9X9X9X9X9X",
"9X9X9X9X9X9X9X9X9X9X9X9X9X9X9X9X9X9X9X9X9X9X9X9X9X9X9X9X9X9X9X9X9X9X9X9X9X9X9X9X9X9X9X9X9X9X9X9X9X9X9X9X9X9X9X9X9X9X9X9X9X9X9X9X",
"9X9X9X9X9X9X9X9X9X9X9X9X9X9X9X9X9X9X9X9X9X9X9X9X9X9X9X9X9X9X9X9X9X9X9X9X9X9X9X9X9X9X5X[./.b.x.).9X9X9X9X9X9X9X9X9X9X9X9X9X9X9X9X",
"9X9X9X9X9X9X9X9X9X9X9X9X9X9X9X9X9X9X9X9X9X9X9X9X9X9X9X9X9X9X9X9X9X9X9X9X9X5X=X/.i.D j * X     5 8.[.9X9X9X9X9X9X9X9X9X9X9X9X9X9X",
"9X9X9X9X9X9X9X9X9X9X9X9X9X9X9X9X9X9X9X9X9X9X9X9X9X9X9X9X9X9X9X5X=X).b.8.Z w 2 X                   3 m x.;X9X9X9X9X9X9X9X9X9X9X9X",
"9X9X9X9X9X9X9X9X9X9X9X9X9X9X9X9X9X9X9X9X9X9X9X9X9X9X5X[.C.y.Z j 3 #                                     w N.7X9X9X9X9X9X9X9X9X9X",
"9X9X9X9X9X9X9X9X9X9X9X9X9X9X9X9X9X9X9X9X9X9X7X[.b.L j 2 X                                 X # # # X       X J ;X9X9X9X9X9X9X9X9X",
"9X9X9X9X9X9X9X9X9X9X9X9X9X9X9X9X9X9X7X=XC.8.l *                               # 9 b L i.V.).'.'.).N.q.m 5     l [.9X9X9X9X9X9X9X",
"9X9X9X9X9X9X9X9X9X9X9X9X9X9X9X:X/.q.b 2 X                             * j L b.'.:X9X9X9X9X9X9X9X5X'.q.b 2 X     w '.9X9X9X9X9X9X",
"9X9X9X9X9X9X7X7X:X5X7X7X'.i.Z 9 X                           X * j J b.[.5X9X9X9X9X9X9X9X9X9X9X9X9X9X*Xi.D l X     w [.9X9X9X9X9X",
"9X9X9X9X9X5X;X).C.b./.Z *                             * l q.C.[.5X9X9X9X9X9X9X9X9X9X9X9X9X9X9X9X9X9X9X4X=XN.S 2     j =X9X9X9X9X",
"9X9X7X9X9X).'.8.J D 9                           X w q.'.7X9X9X9X9X9X9X9X9X9X9X9X9X9X9X9X9X9X9X9X9X9X9X9X9X9X=Xi.9     Z 5X9X9X9X",
"9X9X:X4X[.q.y.9 * X                         3 S C.4X9X9X9X9X9X9X9X9X9X9X9X9X9X9X9X9X9X9X9X9X9X9X9X9X9X9X9X9X9X:XL *     y.9X9X9X",
"9X9X;X=Xq.w *                         # l i.=X9X9X9X9X9X9X9X9X9X9X9X9X9X9X9X9X9X9X9X9X9X9X9X9X9X9X9X9X9X9X9X9X9X[.q.l # * ).9X9X",
"9X5XB.C.9 X                       3 J ).5X9X9X9X9X9X9X9X9X9X9X9X9X9X9X9X9X9X9X9X9X9X9X9X9X9X9X9X9X9X9X9X9X9X9X9X9X:XB.L # b 5X9X",
"9X5Xq.8.X                   X j i.=X9X9X9X9X9X9X9X9X9X9X9X9X9X9X9X9X9X9X9X9X9X9X9X9X9X9X9X9X9X9X9X9X9X9X9X9X9X9X9X9X/.b # X B.9X",
"4X[.S 9                 * Z C.4X9X9X9X9X9X9X9X9X9X9X9X9X9X9X9X9X9X9X9X9X9X9X9X9X9X9X9X9X9X9X9X9X9X9X9X9X9X9X9X9X9X9X7Xi.*   Z 7X",
"'.b.l               9 q.'.7X9X9X9X9X9X9X9X9X9X9X9X9X9X9X9X9X9X9X9X9X9X9X9X9X9X9X9X9X9X9X9X9X9X9X9X9X9X9X9X9X9X9X9X9X9X9X).w * ).",
").8.*         # b b.:X9X9X9X9X9X9X9X9X9X9X9X9X9X9X9X9X9X9X9X9X9X9X9X9X9X9X9X9X9X9X9X9X9X9X9X9X9X9X9X9X9X9X9X9X9X9X9X9X9X9X'.9 J ",
"[.D       * D ).7X9X9X9X9X9X9X9X9X9X9X9X9X9X9X9X9X9X9X9X9X9X9X9X9X9X9X9X9X9X9X9X9X9X9X9X9X9X9X9X9X9X9X9X9X9X9X9X9X9X9X9X9X9X'.J ",
"7XL   X m ).9X9X9X9X9X9X9X9X9X9X9X9X9X9X9X9X9X9X9X9X9X9X9X9X9X9X9X9X9X9X9X9X9X9X9X9X9X9X9X9X9X9X9X9X9X9X9X9X9X9X9X9X9X9X9X9X9X7X",
"9XC.2 y.5X9X9X9X9X9X9X9X9X9X9X9X9X9X9X9X9X9X9X6X3X3X3X3X3X3X3X6X9X9X9X9X9X9X9X9X9X9X9X9X9X9X9X9X9X9X9X9X9X9X9X9X9X9X9X9X9X9X9X9X",
"9X5X).7X9X9X9X9X9X9X9X9X9X9X9X9X9X9X9X6X3X>X$X$X$X$X$X$X$X$X$X$X$X>X3X6X9X9X9X9X9X9X9X9X9X9X9X9X9X9X9X9X9X9X9X9X9X9X9X9X9X9X9X9X",
"9X9X9X9X9X9X9X9X9X9X9X9X9X9X9X9X9X3X>X$X$X$X$X$X$X$X$X$X$X$X$X$X$X$X$X$X1X6X9X9X9X9X9X9X9X9X9X9X9X9X9X9X9X9X9X9X9X9X9X9X9X9X9X9X",
"9X9X9X9X9X9X9X9X9X9X9X9X9X9X9X6X>X$X$X$X$X$X$X$X$X$X$X$X$X$X$X$X$X$X$X$X$X$X3X9X9X9X9X9X9X9X9X9X9X9X9X9X9X9X9X9X9X9X9X9X9X9X9X9X",
"9X9X9X9X9X9X9X9X9X9X9X9X9X9X3X$X$X$X$X$X$X$X$X$X$X$X$X#X.X|.|.@X$X$X$X$X$X$X$X&X6X7X=X9X9X9X9X9X9X9X9X9X9X9X9X9X9X9X9X9X9X9X9X9X",
"9X9X9X9X9X9X9X9X9X9X9X9X9X>X$X$X$X$X$X$X$X$X$X{.Z.<.V v g h g z V w.A.@X$X$X$X$X&Xm.'.9X9X9X9X9X9X9X9X9X9X9X9X9X9X9X9X9X9X9X9X9X",
"9X9X9X9X9X9X9X9X9X9X9X9X>X$X$X$X$X$X$X$X@XZ.H 0 & o X X o o o X X + = z a.}.|.W.P <.>X9X9X9X9X7X9X9X9X9X9X9X9X9X9X9X9X9X9X9X9X9X",
"9X9X9X9X9X9X9X9X9X9X9X>X$X$X$X$X$X$X#XZ.M = o o o o o o o o o + + + + X $ e h 8 H |.$X1X9X9X4X/.7X9X9X9X9X9X9X9X9X9X9X9X9X9X9X9X",
"9X9X9X9X9X9X9X9X9X9X1X$X$X$X$X$X$XW.V = o o + ; > t u p p 7 1 < & + o + + o . z {.&X$X$X1X;X0.m.9X9X9X9X9X9X9X9X9X9X9X9X9X9X9X9X",
"9X9X9X9X9X9X9X9X9X3X$X$X$X$X$X|.w.6 o + : t s U E W s y 1 p B @.] C g $ o + + $ M W.Q.Z.<.k G 4X9X9X9X9X9X5X:X9X9X9X9X9X9X9X9X9X",
"9X9X9X9X9X9X9X9X6X&X$X$X$X$XW.v + O - i d U Y E U > + o o o & ` 5.S.d.' 7 o + + + , 3 , 8 >. X6X9X9X9X9X4Xb.=X9X9X9X9X9X9X9X9X9X",
"9X9X9X9X9X9X9X9X1X$X$X$X$Xl.8 + l X._ ! T U Y Y > o + + + + o 7 3.S.G.H.z.N & o + o $ P {.&X&X&X6X9X7X).G m.9X9X9X9X9X9X9X9X9X9X",
"9X9X9X9X9X9X9X6X$X$X$X#Xr.= 2 e.;X!.-._ ! Y Y i + + + + + + + $ ] G.G.H.U.!.j.8 o + + 4 M I p.k.a.q.m r x.9X9X9X9X9X9X9X9X9X9X9X",
"9X9X9X9X9X9X9X>X$X$X#X,.$ r C.9X7X_.h.+.~ Y Y - o + + + + + + + X.K.G.J.K.s.OX].n + + + X o o + + , M (.9X9X9X9X9X9X9X9X9X9X9X9X",
"9X9X9X9X9X9X6X$X$X%Xw.$ k '.7X9X7X~.h.=.~ Y d % + + + + + + & 0.:X2XU.J.U...T.9X:XS + + + + 8 F r.W.#X&X3X9X9X5X=X7X9X9X9X9X9X9X",
"9X9X9X9X9X9X3X$X$Xk.& k '.5X7X9X7X!.H.f.O.W d @ + + + + + o S 7X9X9XXXK.U...L.9X9X=Xb o + + 8 Z.&X&X&X&X$X}.M.c.-X9X9X9X9X9X9X9X",
"9X9X9X9X9X9X&X$XA.5 h /.4X5X9X9X9X~.D.s.=.Q U ; + + + + + & E.9X9X9X+XU.I...L.9X9X9X'.r o + o 8 p.l.l.r.F M <.}.&X3X9X9X9X9X9X9X",
"9X9X9X9X9X6X$X}.z 8 C.=X4X5X9X9X9X`.I.D.:.Q E t o + + + + = ).9X9X9X+XU.H._ ^.9X9X9X7XC.4 o + + + $ , 0 H W.$X1X6X9X9X9X9X9X9X9X",
"9X9X9X9X9X3X$XI 3 b.=X=X4X5X9X9X9X+XY.D.{ W E s ; o + + + o K 2X9X7X~.U.f.^ OX9X9X9X7X5Xa.= o + + & ,.}.>X3X6X9X9X9X9X9X9X9X9X9X",
"9X9X9X9X9X1XA.8 y.=X=X=X4X5X9X9X9X2X!.-.o.Q W / f < + + & a ] J.R.Y.U.f._  .4X9X9X9X7X5X:Xy.2 o + + 8 c.4X9X9X9X9X7X5X7X9X9X9X9X",
"9X9X9X9X9X>XG q.=X=X=X=X4X5X7X9X9X9X`.D.O.( ( } [ } ) B ] 4.S.G.G.J.f.-.! L.9X9X9X9X7X5X4X=Xb.h + o o & l >.u.i.y.N.4X9X9X9X9X9X",
"9X9X9X9X9XE.G N.y.e.i.B.[.5X7X9X9X9X<XU.:.o.&.#.} | $.1.4.5.d.d.d.3.-.R  .,X9X9X9X9X7X5X4X=X=X'.y.r $ X . . $ h j.4X9X9X9X9X9X9X",
"9X9X9X9X'.l , 3 8 q q 0 l q.'.5X9X9X9XXXG.:.*.$.| $.%.1.4.5.G.#.{ { R ~ oX9X9X9X9X9X7X5X5X[.)./.'./.u.J D 8.B.:X9X9X9X9X9X9X9X9X",
"9X9X9XC.x V a.).=X:X=X).b.>.D 0.).7X9X7X~.S.5.*.*.$.%.%.2.3.3.O.W Y ^ _.9X9X9X9X9X9X:X/.0.c r x S 8.x./.[.5X9X9X9X9X9X9X9X9X9X9X",
"9X9X7X/.[.9X9X9X9X9X9X9X7X;X[./.y.t./.4X9XXXJ.4.4.1.%.$.| } [ Q / 7.<X9X9X9X9X9X;Xx.c = o + q 8.'.7X9X9X7X9X9X9X9X9X9X9X9X9X9X9X",
"9X9X9X9X9X9X9X9X9X9X9X9X9X9X4X4X4X[.x.q.j.).OX!.H.6.2.$.#.O.;.P.<X9X9X9X9X:X/.8.q & , 5 8 A i.v.j./.5X9X9X9X9X9X9X9X9X9X9X9X9X9X",
"9X9X9X9X9X9X9X9X9X9X9X9X9X9X9X9X7X9X9X:XC.I A G 9.g.z.n.T._.[.[.'./.b.q.A h 4 5 , 8 c J c.B.b.E.:X4X4X9X9X9X9X9X9X9X9X9X9X9X9X9X",
"9X9X9X9X9X9X9X9X9X9X9X9X9X9X9X9X9X9X9X9X9X7X[.b.K b r 0 8 8 5 4 , * & + o 8 A L v.x.t.e.J 0.[.4X,X9X9X9X9X9X9X9X9X9X9X9X9X9X9X9X",
"9X9X9X9X9X9X9X9X9X9X9X9X9X9X9X9X9X9X9X9X9X9X9X9X9X5X=X'./.N.b.b.b.N.B.B.b.q.8.m.j.'.=X/.[.C.8.'.9X9X9X9X9X9X9X9X9X9X9X9X9X9X9X9X",
"9X9X9X9X9X9X9X9X9X9X9X9X9X9X9X9X9X9X9X9X9X9X9X9X9X9X9X9X9X9X9X9X9X9X9X9X9X9X5X=X;X/.4X7X=X9X;XC.5X9X9X9X9X9X9X9X9X9X9X9X9X9X9X9X",
"9X9X9X9X9X9X9X9X9X9X9X9X9X9X9X9X9X9X9X9X9X9X9X9X9X9X9X9X9X9X9X9X9X9X9X9X9X9X9X9X9X7X7X9X9X9X9X7X9X9X9X9X9X9X9X9X9X9X9X9X9X9X9X9X",
"9X9X9X9X9X9X9X9X9X9X9X9X9X9X9X9X9X9X9X9X9X9X9X9X9X9X9X9X9X9X9X9X9X9X9X9X9X9X9X9X9X9X9X9X9X9X9X9X9X9X9X9X9X9X9X9X9X9X9X9X9X9X9X9X",
"9X9X9X9X9X9X9X9X9X9X9X9X9X9X9X9X9X9X9X9X9X9X9X9X9X9X9X9X9X9X9X9X9X9X9X9X9X9X9X9X9X9X9X9X9X9X9X9X9X9X9X9X9X9X9X9X9X9X9X9X9X9X9X9X",
"9X9X9X9X9X9X9X9X9X9X9X9X9X9X9X9X9X9X9X9X9X9X9X9X9X9X9X9X9X9X9X9X9X9X9X9X9X9X9X9X9X9X9X9X9X9X9X9X9X9X9X9X9X9X9X9X9X9X9X9X9X9X9X9X",
"9X9X9X9X9X9X9X9X9X9X9X9X9X9X9X9X9X9X9X9X9X9X9X9X9X9X9X9X9X9X9X9X9X9X9X9X9X9X9X9X9X9X9X9X9X9X9X9X9X9X9X9X9X9X9X9X9X9X9X9X9X9X9X9X",
"9X9X9X9X9X9X9X9X9X9X9X9X9X9X9X9X9X9X9X9X9X9X9X9X9X9X9X9X9X9X9X9X9X9X9X9X9X9X9X9X9X9X9X9X9X9X9X9X9X9X9X9X9X9X9X9X9X9X9X9X9X9X9X9X",
"9X9X9X9X9X9X9X9X9X9X9X9X9X9X9X9X9X9X9X9X9X9X9X9X9X9X9X9X9X9X9X9X9X9X9X9X9X9X9X9X9X9X9X9X9X9X9X9X9X9X9X9X9X9X9X9X9X9X9X9X9X9X9X9X",
"9X9X9X9X9X9X9X9X9X9X9X9X9X9X9X9X9X9X9X9X9X9X9X9X9X9X9X9X9X9X9X9X9X9X9X9X9X9X9X9X9X9X9X9X9X9X9X9X9X9X9X9X9X9X9X9X9X9X9X9X9X9X9X9X",
"9X9X9X9X9X9X9X9X9X9X9X9X9X9X9X9X9X9X9X9X9X9X9X9X9X9X9X9X9X9X9X9X9X9X9X9X9X9X9X9X9X9X9X9X9X9X9X9X9X9X9X9X9X9X9X9X9X9X9X9X9X9X9X9X"
};
