/* XPM */
static char * erase_xpm[] = {
"28 28 147 2",
"  	c None",
". 	c #C89A98",
"+ 	c #DB6160",
"@ 	c #E93B3B",
"# 	c #EA3535",
"$ 	c #EB3433",
"% 	c #EC3131",
"& 	c #EC3232",
"* 	c #ED2F2F",
"= 	c #EE2C2C",
"- 	c #EF2929",
"; 	c #DD5D5C",
"> 	c #D67170",
", 	c #E85854",
"' 	c #E7C9C2",
") 	c #E4C1BA",
"! 	c #E3C1BA",
"~ 	c #E4C0B8",
"{ 	c #E3BEB8",
"] 	c #E4BFB8",
"^ 	c #E4BEB8",
"/ 	c #E5BFB8",
"( 	c #E5BDB6",
"_ 	c #DAB6AF",
": 	c #DE5857",
"< 	c #CF8482",
"[ 	c #EE605E",
"} 	c #E7C9C3",
"| 	c #DEB0A6",
"1 	c #DEADA4",
"2 	c #DFAEA4",
"3 	c #DFADA4",
"4 	c #E0ADA3",
"5 	c #E0ACA3",
"6 	c #E1ABA2",
"7 	c #E2AAA2",
"8 	c #E2A9A1",
"9 	c #E7C8C1",
"0 	c #F49592",
"a 	c #E5BFBA",
"b 	c #E2B5AC",
"c 	c #DEAEA5",
"d 	c #E1AAA2",
"e 	c #E2AAA1",
"f 	c #E3A9A0",
"g 	c #FB7474",
"h 	c #EE6E6C",
"i 	c #EACDC7",
"j 	c #E1A9A0",
"k 	c #E6A9A1",
"l 	c #E6BDB7",
"m 	c #E0ACA2",
"n 	c #E1ABA3",
"o 	c #E3A9A1",
"p 	c #E3A8A0",
"q 	c #E4A8A0",
"r 	c #E8C8C1",
"s 	c #F77978",
"t 	c #E3938C",
"u 	c #ED9894",
"v 	c #EACCC7",
"w 	c #E0AAA0",
"x 	c #E0ABA2",
"y 	c #E4A7A0",
"z 	c #E6BBB4",
"A 	c #E0B5AD",
"B 	c #EB8782",
"C 	c #E86C68",
"D 	c #D44948",
"E 	c #A8A2A0",
"F 	c #EACEC9",
"G 	c #E2ABA4",
"H 	c #E5A79F",
"I 	c #E9C6C0",
"J 	c #F38280",
"K 	c #E5958E",
"L 	c #A67978",
"M 	c #A7A19E",
"N 	c #DB6361",
"O 	c #EDB1AC",
"P 	c #E2A9A0",
"Q 	c #E5A7A0",
"R 	c #E5A69F",
"S 	c #E6A69F",
"T 	c #E6A59E",
"U 	c #E6BBB2",
"V 	c #E5BBB4",
"W 	c #E78B85",
"X 	c #E67C76",
"Y 	c #D63F3E",
"Z 	c #97928F",
"` 	c #ABA4A2",
" .	c #EACBC6",
"..	c #E5AFA7",
"+.	c #E6A69E",
"@.	c #E7A49D",
"#.	c #E8A39D",
"$.	c #E8A39C",
"%.	c #E9A29C",
"&.	c #EAD0CA",
"*.	c #EF9490",
"=.	c #E79991",
"-.	c #9D7270",
";.	c #9D9795",
">.	c #EAD0CB",
",.	c #EDD7D2",
"'.	c #EDD8D3",
").	c #EDD6D1",
"!.	c #EDD5D0",
"~.	c #F3BDBA",
"{.	c #EB7C79",
"].	c #E77D78",
"^.	c #D33D3D",
"/.	c #8C8785",
"(.	c #A29C99",
"_.	c #EFA9A6",
":.	c #FF8787",
"<.	c #FB7878",
"[.	c #E8827E",
"}.	c #A95D5C",
"|.	c #928D8A",
"1.	c #EF908D",
"2.	c #EB5F5C",
"3.	c #D33A3A",
"4.	c #86817F",
"5.	c #9C9794",
"6.	c #EF8F8D",
"7.	c #EF8D8B",
"8.	c #EF8D8A",
"9.	c #EE918D",
"0.	c #A6605E",
"a.	c #948E8C",
"b.	c #E04948",
"c.	c #E83131",
"d.	c #EC2A2A",
"e.	c #CF4242",
"f.	c #A8A19F",
"g.	c #989290",
"h.	c #908B88",
"i.	c #8D8885",
"j.	c #8B8583",
"k.	c #8A8583",
"l.	c #8E8987",
"m.	c #948F8C",
"n.	c #9F9996",
"o.	c #ABA5A2",
"p.	c #A9A3A0",
"                                                        ",
"                                                        ",
"                                                        ",
"                                                        ",
"                                                        ",
"                                                        ",
"                . + @ # $ % & & & % * = - ;             ",
"              . > , ' ) ! ~ { ] ^ / / ( _ - :           ",
"              < [ } | 1 2 3 4 5 6 6 7 8 9 0 -           ",
"            . - a b c 2 3 5 5 6 d e 8 f ' g -           ",
"            < h i 1 3 3 5 5 6 d e 8 j b k g -           ",
"          . - l b m 5 n 6 7 8 o p q q r s t -           ",
"          < u v w x 6 d e 8 f p y q z A B C D E         ",
"        . - F G 5 6 d e 8 p p q q H I J K - L M         ",
"        N O v P 8 f p y q Q R S T U V W X Y Z `         ",
"        -  ...q H R +.T @.@.#.$.%.&.*.=.- -.;.          ",
"        - >.,.'.).).).).).).).).!.~.{.].^./.(.          ",
"        - _.:.:.:.:.:.:.:.:.:.:.:.<.[.- }.|.E           ",
"        - 1.g g g g g g g g g g g g 2.3.4.5.            ",
"        - 6.6.7.7.7.7.7.7.7.7.8.8.9.- 0.a.              ",
"        b.c.- - - - - - - - - - - d.e.a.f.              ",
"            (.g.h.i.j.k.k.j.k./.l.m.n.                  ",
"                o.f.f.f.f.E p.`                         ",
"                                                        ",
"                                                        ",
"                                                        ",
"                                                        ",
"                                                        "};
