/* XPM */
static char * file_save_24_xpm[] = {
"24 24 192 2",
"  	c None",
". 	c #565A2E",
"+ 	c #7A7A43",
"@ 	c #7E7A47",
"# 	c #7A723E",
"$ 	c #76723E",
"% 	c #767A46",
"& 	c #767644",
"* 	c #86824A",
"= 	c #8A8246",
"- 	c #8E864A",
"; 	c #96925A",
"> 	c #968E56",
", 	c #5E6236",
"' 	c #8E824A",
") 	c #92864E",
"! 	c #928A4C",
"~ 	c #8A8A4E",
"{ 	c #867A42",
"] 	c #928252",
"^ 	c #9E8E52",
"/ 	c #9A8E52",
"( 	c #AA9A59",
"_ 	c #A29656",
": 	c #827E4A",
"< 	c #666A3E",
"[ 	c #A69658",
"} 	c #867A4E",
"| 	c #524222",
"1 	c #2A2A10",
"2 	c #1E1E16",
"3 	c #625A3A",
"4 	c #B29E62",
"5 	c #B6A262",
"6 	c #B6A664",
"7 	c #AE9E5A",
"8 	c #BAA662",
"9 	c #B6A25C",
"0 	c #92764A",
"a 	c #F6D66E",
"b 	c #CA9A52",
"c 	c #322E12",
"d 	c #121A12",
"e 	c #928A5A",
"f 	c #BEAA62",
"g 	c #C6B66A",
"h 	c #BAAA62",
"i 	c #A29252",
"j 	c #4E522A",
"k 	c #827E42",
"l 	c #B2A25E",
"m 	c #CAB66A",
"n 	c #8A7A46",
"o 	c #A67E3A",
"p 	c #E2C262",
"q 	c #CA9242",
"r 	c #6E5A2A",
"s 	c #12160A",
"t 	c #3A3E26",
"u 	c #9E9255",
"v 	c #CABA66",
"w 	c #C6B262",
"x 	c #867E46",
"y 	c #262E1A",
"z 	c #5A5E32",
"A 	c #52562A",
"B 	c #86864A",
"C 	c #4E4E2E",
"D 	c #866A36",
"E 	c #BA863A",
"F 	c #A28246",
"G 	c #7E6236",
"H 	c #161A0D",
"I 	c #222A10",
"J 	c #4E5A32",
"K 	c #565E2A",
"L 	c #6A6E3A",
"M 	c #1A260E",
"N 	c #364626",
"O 	c #424E28",
"P 	c #3A4A22",
"Q 	c #323E26",
"R 	c #262A1A",
"S 	c #9E7636",
"T 	c #BA8E4A",
"U 	c #D6A252",
"V 	c #564616",
"W 	c #121E10",
"X 	c #3A4E2E",
"Y 	c #465632",
"Z 	c #6A7242",
"` 	c #5E6632",
" .	c #3E4625",
"..	c #121A0A",
"+.	c #32421F",
"@.	c #36421E",
"#.	c #363E1E",
"$.	c #1E2616",
"%.	c #4A3A22",
"&.	c #AE823E",
"*.	c #927236",
"=.	c #363214",
"-.	c #1A1A0C",
";.	c #161E0D",
">.	c #2A3216",
",.	c #0E160D",
"'.	c #223216",
").	c #3A4622",
"!.	c #363A1C",
"~.	c #362E12",
"{.	c #26260A",
"].	c #12160E",
"^.	c #DAD886",
"/.	c #757575",
"(.	c #C2C2C2",
"_.	c #8F8F8F",
":.	c #777777",
"<.	c #A7995A",
"[.	c #7E662E",
"}.	c #2E260A",
"|.	c #3A4226",
"1.	c #5E5626",
"2.	c #565626",
"3.	c #767676",
"4.	c #E0C771",
"5.	c #EEB256",
"6.	c #5E421A",
"7.	c #2E2214",
"8.	c #1E1E0D",
"9.	c #525226",
"0.	c #726A2E",
"a.	c #262A0F",
"b.	c #EAB252",
"c.	c #5E3E14",
"d.	c #52421D",
"e.	c #4E4A26",
"f.	c #6E622E",
"g.	c #524A18",
"h.	c #696969",
"i.	c #6A6A6A",
"j.	c #CAAA52",
"k.	c #4A461E",
"l.	c #2A260A",
"m.	c #0A0E02",
"n.	c #060E06",
"o.	c #121206",
"p.	c #3E2E12",
"q.	c #423212",
"r.	c #BAB97B",
"s.	c #0E120A",
"t.	c #0E1206",
"u.	c #3A2616",
"v.	c #26160A",
"w.	c #DAD89B",
"x.	c #1E2612",
"y.	c #323218",
"z.	c #0E0E06",
"A.	c #0E120E",
"B.	c #261E0E",
"C.	c #1A160C",
"D.	c #DADADA",
"E.	c #060A02",
"F.	c #0A0E0A",
"G.	c #16120C",
"H.	c #C4C4C4",
"I.	c #838383",
"J.	c #020A06",
"K.	c #020A02",
"L.	c #0A0E06",
"M.	c #120E0A",
"N.	c #060606",
"O.	c #020606",
"P.	c #060602",
"Q.	c #0E0A06",
"R.	c #060A06",
"S.	c #060E0A",
"T.	c #CCCCCC",
"U.	c #A0A0A0",
"V.	c #020602",
"W.	c #0A0A02",
"X.	c #D3D3D3",
"Y.	c #BDBDBD",
"Z.	c #26220E",
"`.	c #322A0A",
" +	c #020202",
".+	c #DADAC5",
"++	c #DAD9C5",
"@+	c #46261A",
"#+	c #0A0602",
"$+	c #9B9A71",
"%+	c #CFBC71",
"&+	c #E4BF67",
"                                                ",
"          . + + @ # $ % & @ @ * = = - ; > &     ",
"          , ' - ) - ' ! ~ { ] ^ ^ / ^ ( _ :     ",
"          < _ ( _ [ [ } | 1 2 3 4 ( 5 6 4 !     ",
"          < 7 8 9 4 6 0 a b c d e 8 f g h i     ",
"          j k ( l m n o p q r s t + u v w x     ",
"          y , z A B C D E F G H I J K w 7 L     ",
"          M N O P Q R S T U V W M X Y Z `  .    ",
"          ..+.@.Q #.$.%.&.*.=.-.;.N N X X >.    ",
"          ,.'.@.).A !.,.%.~.{.].H N ).+. .>.    ",
"  ^.^./.(.(.(._.:./.(./.^.<.[.}.H y |.1.2.I     ",
"  ^.^.3.(.(.(._.:.3.(.3.^.4.5.6.7.8.9.0.2.a.    ",
"  ^.^./.(.(.(._.:./.(./.^.4.b.c.d.e.8.C f.g.    ",
"  ^.^.h._._._.3.i.h._.h.^.4.j.k.l.m.n.o.p.q.    ",
"  ^.^.r.r.r.r.r.r.r.r.r.^.4.1 s.$.8.].t.u.v.    ",
"  ^.^.w.w.w.w.w.w.w.w.w.^.4.n.t.x.y.z.A.B.C.    ",
"  ^.^.D.D.D.D.D.D.D.D.D.^.4.E.n.-.z.F.F.s G.    ",
"  ^.^.H.I.I.I.I.I.I.I.H.^.4.J.E.K.L.L.n.z.M.    ",
"  ^.^.D.D.D.D.D.D.D.D.D.^.4.N.O.P.Q.E.R.S.z.    ",
"  ^.^.T.U.U.U.U.U.U.U.T.^.4.V.P.K.W.P.E.J.N.    ",
"  ^.^.X.Y.Y.Y.Y.Y.Y.Y.X.^.4.7.Z.`.G.E.S.R. +    ",
"  ^.^..+.+++.+.+++.+.+++^.4.@+}.}.C.P.P.K.#+    ",
"  $+%+4.4.4.4.4.4.4.4.4.4.&+                    ",
"                                                "};
