/* XPM */
static char * file_delete_24_xpm[] = {
"24 24 236 2",
"  	c None",
". 	c #EA5C5C",
"+ 	c #B36A4F",
"@ 	c #7A7A43",
"# 	c #7E7A47",
"$ 	c #7A723E",
"% 	c #76723E",
"& 	c #767A46",
"* 	c #767644",
"= 	c #86824A",
"- 	c #8A8246",
"; 	c #8E864A",
"> 	c #96925A",
", 	c #A18656",
"' 	c #DF5E59",
") 	c #B57451",
"! 	c #92864E",
"~ 	c #8E824A",
"{ 	c #928A4C",
"] 	c #8A8A4E",
"^ 	c #867A42",
"/ 	c #928252",
"( 	c #9E8E52",
"_ 	c #9A8E52",
": 	c #B09359",
"< 	c #E0635B",
"[ 	c #E95C5B",
"} 	c #BB8158",
"| 	c #A69658",
"1 	c #867A4E",
"2 	c #524222",
"3 	c #2A2A10",
"4 	c #1E1E16",
"5 	c #625A3A",
"6 	c #B29E62",
"7 	c #AA9A59",
"8 	c #B99D61",
"9 	c #E0695D",
"0 	c #CB5F55",
"a 	c #E85D5C",
"b 	c #C18B60",
"c 	c #B6A664",
"d 	c #92764A",
"e 	c #F6D66E",
"f 	c #CA9A52",
"g 	c #322E12",
"h 	c #121A12",
"i 	c #928A5A",
"j 	c #BBA361",
"k 	c #DF6E5D",
"l 	c #E85D5B",
"m 	c #58522D",
"n 	c #D76257",
"o 	c #E95D5C",
"p 	c #9E734A",
"q 	c #A67E3A",
"r 	c #E2C262",
"s 	c #CA9242",
"t 	c #6E5A2A",
"u 	c #12160A",
"v 	c #3A3E26",
"w 	c #C76554",
"x 	c #E95C5C",
"y 	c #AA714D",
"z 	c #262E1A",
"A 	c #6C6139",
"B 	c #D75C56",
"C 	c #DE5A58",
"D 	c #96673C",
"E 	c #BA863A",
"F 	c #A28246",
"G 	c #7E6236",
"H 	c #161A0D",
"I 	c #9D483E",
"J 	c #C8805A",
"K 	c #6A6E3A",
"L 	c #1A260E",
"M 	c #364626",
"N 	c #5A502F",
"O 	c #E15B59",
"P 	c #E15E57",
"Q 	c #BF884C",
"R 	c #D6A252",
"S 	c #564616",
"T 	c #843E38",
"U 	c #AD664F",
"V 	c #5E6632",
"W 	c #3E4625",
"X 	c #121A0A",
"Y 	c #32421F",
"Z 	c #36421E",
"` 	c #564430",
" .	c #E05A58",
"..	c #E06157",
"+.	c #987038",
"@.	c #854433",
"#.	c #A45347",
"$.	c #3A4E2E",
"%.	c #2A3216",
"&.	c #0E160D",
"*.	c #223216",
"=.	c #3A4622",
"-.	c #795736",
";.	c #E55B5A",
">.	c #D15552",
",.	c #E95B5B",
"'.	c #B2554B",
").	c #3C4622",
"!.	c #121A0E",
"~.	c #323E26",
"{.	c #424E28",
"].	c #3A4A22",
"^.	c #4A5232",
"/.	c #6D3F2E",
"(.	c #E75B5B",
"_.	c #B64B48",
":.	c #2C2F1C",
"<.	c #3A4226",
"[.	c #5E5626",
"}.	c #565626",
"|.	c #222A10",
"1.	c #1E1E0D",
"2.	c #363A1C",
"3.	c #4A461E",
"4.	c #1E2612",
"5.	c #0E1A0E",
"6.	c #A24F3E",
"7.	c #E15A57",
"8.	c #3A2518",
"9.	c #525226",
"0.	c #726A2E",
"a.	c #262A0F",
"b.	c #3A3612",
"c.	c #5A5626",
"d.	c #524A18",
"e.	c #472F17",
"f.	c #E7605A",
"g.	c #AA5141",
"h.	c #4E4A26",
"i.	c #4E4E2E",
"j.	c #6E622E",
"k.	c #221E0E",
"l.	c #52421D",
"m.	c #4A421A",
"n.	c #2B1A13",
"o.	c #D75754",
"p.	c #EA615C",
"q.	c #7A352F",
"r.	c #060E06",
"s.	c #121206",
"t.	c #3E2E12",
"u.	c #423212",
"v.	c #120E0A",
"w.	c #5E3E14",
"x.	c #6A461E",
"y.	c #312214",
"z.	c #C6514F",
"A.	c #67472A",
"B.	c #A54A40",
"C.	c #6B332E",
"D.	c #0E1206",
"E.	c #3A2616",
"F.	c #26160A",
"G.	c #624A22",
"H.	c #5C4324",
"I.	c #C34F4E",
"J.	c #E45A59",
"K.	c #4F3021",
"L.	c #1A220E",
"M.	c #0A0F07",
"N.	c #AB4643",
"O.	c #E85B5B",
"P.	c #502825",
"Q.	c #261E0E",
"R.	c #1A160C",
"S.	c #1A1A0C",
"T.	c #423A17",
"U.	c #B54E47",
"V.	c #E75B5A",
"W.	c #522A24",
"X.	c #0A1209",
"Y.	c #060A02",
"Z.	c #0F1109",
"`.	c #BB4D4A",
" +	c #E45A5A",
".+	c #4C2820",
"++	c #16120C",
"@+	c #0F120A",
"#+	c #A04540",
"$+	c #612D28",
"%+	c #020A02",
"&+	c #020A06",
"*+	c #0F0E07",
"=+	c #C7504E",
"-+	c #DF5857",
";+	c #3F1E1B",
">+	c #8A3838",
",+	c #7B3831",
"'+	c #1A1212",
")+	c #060E10",
"!+	c #060A06",
"~+	c #060606",
"{+	c #020606",
"]+	c #060602",
"^+	c #26130F",
"/+	c #CE5251",
"(+	c #D85555",
"_+	c #9D4A3D",
":+	c #664E1E",
"<+	c #96622E",
"[+	c #422E1E",
"}+	c #060A0E",
"|+	c #020602",
"1+	c #0A0A02",
"2+	c #28130F",
"3+	c #D75554",
"4+	c #9E413E",
"5+	c #17160A",
"6+	c #26220E",
"7+	c #6E5226",
"8+	c #AE7232",
"9+	c #B27236",
"0+	c #825A2E",
"a+	c #2E2214",
"b+	c #322A0A",
"c+	c #351E1B",
"d+	c #DE5757",
"e+	c #AB4543",
"f+	c #070804",
"g+	c #826232",
"h+	c #664216",
"i+	c #5E3A26",
"j+	c #46261A",
"k+	c #2E260A",
"l+	c #3F1F1A",
"m+	c #E35959",
"      .                                         ",
"    . . + @ # $ % & * # # = - - ; > , '         ",
"  . . . . ) ! ; ~ { ] ^ / ( ( _ ( : < . . .     ",
"    . . . [ } | | 1 2 3 4 5 6 7 8 9 . . .       ",
"      0 . . a b c d e f g h i j k . . l         ",
"      m n . . o p q r s t u v w . . x y         ",
"      z A B . . C D E F G H I . . . J K         ",
"      L M N O . . P Q R S T . . . U V W         ",
"      X Y Z `  .. . ..+.@.. . . #.$.$.%.        ",
"      &.*.Z =.-.;.. . >.,.. . '.).Y W %.        ",
"      !.~.{.].^./.(.. . . . _.:.<.[.}.|.        ",
"      1.2.3.2.4.5.6.. . . 7.8.1.9.0.}.a.        ",
"      1.b.c.d.a.e.f.. . . . g.h.1.i.j.d.        ",
"      k.l.S m.n.o.. . p.. . . q.r.s.t.u.        ",
"      v.w.x.y.z.. .  .A.B.. . . C.D.E.F.        ",
"      v.G.H.I.. . J.K.L.M.N.. . O.P.Q.R.        ",
"      S.T.U.. . V.W.5.X.Y.Z.`.. .  +.+++        ",
"      @+#+. . . $+r.u %+&+Y.*+=+. . -+;+        ",
"      >+. . . ,+'+)+X.!+~+{+]+^+/+. . (+        ",
"      . . . _+:+s <+[+}+|+]+%+1+2+3+. . .       ",
"    . . . 4+5+6+7+8+9+0+a+6+b+++Y.c+d+. . .     ",
"    . . e+f+!+2 g+h+0+i+j+k+k+R.]+]+l+m+. .     ",
"      .                                 .       ",
"                                                "};
