/* XPM */
static char * file_delete_all_24_xpm[] = {
"24 24 290 2",
"  	c None",
". 	c #575A2E",
"+ 	c #BD6752",
"@ 	c #E55D5A",
"# 	c #96734B",
"$ 	c #7A723E",
"% 	c #76723E",
"& 	c #767A46",
"* 	c #767644",
"= 	c #7E7A47",
"- 	c #86824A",
"; 	c #8A8246",
"> 	c #8E864A",
", 	c #96925A",
"' 	c #968E56",
") 	c #AD5E4B",
"! 	c #EA5C5C",
"~ 	c #E45E5B",
"{ 	c #9E7E4D",
"] 	c #8E824A",
"^ 	c #928A4C",
"/ 	c #8A8A4E",
"( 	c #867A42",
"_ 	c #928252",
": 	c #9E8E52",
"< 	c #9A8E52",
"[ 	c #AA9A59",
"} 	c #A29656",
"| 	c #827E4A",
"1 	c #796742",
"2 	c #E3615B",
"3 	c #AF8D58",
"4 	c #565A2E",
"5 	c #7A7A43",
"6 	c #937E48",
"7 	c #DD6159",
"8 	c #C17459",
"9 	c #666A3E",
"0 	c #B9915A",
"a 	c #E6605C",
"b 	c #E3655D",
"c 	c #6C613A",
"d 	c #92864E",
"e 	c #A28A52",
"f 	c #DB655A",
"g 	c #E75E5B",
"h 	c #B28957",
"i 	c #4E522A",
"j 	c #827E42",
"k 	c #B88B59",
"l 	c #E75F5C",
"m 	c #DA5D58",
"n 	c #A79156",
"o 	c #A69658",
"p 	c #867A4E",
"q 	c #524222",
"r 	c #2A2A10",
"s 	c #252018",
"t 	c #C85B53",
"u 	c #E85D5C",
"v 	c #C59061",
"w 	c #B29E62",
"x 	c #262E1A",
"y 	c #5E6236",
"z 	c #5A5E32",
"A 	c #7C5737",
"B 	c #E75C5B",
"C 	c #DD695B",
"D 	c #BCA261",
"E 	c #B6A25C",
"F 	c #B6A664",
"G 	c #92764A",
"H 	c #F6D66E",
"I 	c #CA9952",
"J 	c #B04D45",
"K 	c #E95C5C",
"L 	c #CD8D5F",
"M 	c #C6B66A",
"N 	c #BAAA62",
"O 	c #A29252",
"P 	c #1A260E",
"Q 	c #364626",
"R 	c #424E28",
"S 	c #3A4A22",
"T 	c #6E4737",
"U 	c #E95B5B",
"V 	c #D96B5B",
"W 	c #B39F5D",
"X 	c #CAB66A",
"Y 	c #8A7A46",
"Z 	c #A67E3A",
"` 	c #E2C161",
" .	c #DD7052",
"..	c #AB6C4E",
"+.	c #9E9255",
"@.	c #CABA66",
"#.	c #C6B262",
"$.	c #867E46",
"%.	c #121A0A",
"&.	c #32421F",
"*.	c #36421E",
"=.	c #323E26",
"-.	c #363E1E",
";.	c #6E3B31",
">.	c #BB5A4C",
",.	c #87854A",
"'.	c #4E4E2E",
").	c #866A36",
"!.	c #D36F4C",
"~.	c #8B4438",
"{.	c #4E5A32",
"].	c #565E2A",
"^.	c #AE9E5A",
"/.	c #6A6E3A",
"(.	c #0E160D",
"_.	c #223216",
":.	c #3A4622",
"<.	c #52562A",
"[.	c #363A1C",
"}.	c #793E31",
"|.	c #A75148",
"1.	c #272A1A",
"2.	c #BF6A46",
"3.	c #96443E",
"4.	c #3A4E2E",
"5.	c #465632",
"6.	c #6A7242",
"7.	c #5E6632",
"8.	c #3E4625",
"9.	c #121A0E",
"0.	c #4A5232",
"a.	c #323218",
"b.	c #924F3F",
"c.	c #B34D49",
"d.	c #B24E45",
"e.	c #1D1B0D",
"f.	c #161E0D",
"g.	c #2A3216",
"h.	c #1E1E0D",
"i.	c #4A461E",
"j.	c #1E2612",
"k.	c #0E1A0E",
"l.	c #A05142",
"m.	c #BE504A",
"n.	c #2C270C",
"o.	c #12160E",
"p.	c #161A0D",
"q.	c #3A3612",
"r.	c #5A5626",
"s.	c #524A18",
"t.	c #262A0F",
"u.	c #26260A",
"v.	c #434E28",
"w.	c #BF574E",
"x.	c #D85755",
"y.	c #906C38",
"z.	c #7E662E",
"A.	c #2E260A",
"B.	c #3A4226",
"C.	c #5E5626",
"D.	c #565626",
"E.	c #222A10",
"F.	c #221E0E",
"G.	c #52421D",
"H.	c #564616",
"I.	c #4A421A",
"J.	c #12120A",
"K.	c #3E321A",
"L.	c #644928",
"M.	c #DD5957",
"N.	c #E95C5B",
"O.	c #EA9155",
"P.	c #EEB256",
"Q.	c #5E421A",
"R.	c #2E2214",
"S.	c #525226",
"T.	c #726A2E",
"U.	c #120E0A",
"V.	c #5E3E14",
"W.	c #6A461E",
"X.	c #0A160E",
"Y.	c #222E12",
"Z.	c #4E3A1A",
"`.	c #DA5B56",
" +	c #E55A5A",
".+	c #EA5D5C",
"++	c #EA9655",
"@+	c #4E4A26",
"#+	c #6E622E",
"$+	c #624A22",
"%+	c #564222",
"&+	c #312214",
"*+	c #D25752",
"=+	c #DE5757",
"-+	c #673C2A",
";+	c #E06759",
">+	c #E95D5B",
",+	c #704B2D",
"'+	c #2A260A",
")+	c #0A0E02",
"!+	c #060E06",
"~+	c #121206",
"{+	c #3E2E12",
"]+	c #423212",
"^+	c #1A1A0C",
"/+	c #3E3A16",
"(+	c #171509",
"_+	c #C34E4D",
":+	c #E45A59",
"<+	c #432721",
"[+	c #3D3110",
"}+	c #D05852",
"|+	c #DF5858",
"1+	c #4A3125",
"2+	c #0E1206",
"3+	c #3A2616",
"4+	c #26160A",
"5+	c #0E120A",
"6+	c #1A1B0E",
"7+	c #AB4644",
"8+	c #E85B5B",
"9+	c #582C27",
"0+	c #302816",
"a+	c #D35553",
"b+	c #DB5856",
"c+	c #523924",
"d+	c #0E0E06",
"e+	c #0E120E",
"f+	c #261E0E",
"g+	c #1A160C",
"h+	c #0A0A0A",
"i+	c #12160A",
"j+	c #26220E",
"k+	c #2F2E0A",
"l+	c #9F433F",
"m+	c #763E2E",
"n+	c #0A1209",
"o+	c #2C1D15",
"p+	c #D65454",
"q+	c #D45453",
"r+	c #281815",
"s+	c #0A0E0A",
"t+	c #16120C",
"u+	c #060A06",
"v+	c #0A0E06",
"w+	c #363214",
"x+	c #9D4A3D",
"y+	c #7D3A33",
"z+	c #020A02",
"A+	c #2E1916",
"B+	c #DC5756",
"C+	c #CC5150",
"D+	c #1D150E",
"E+	c #78332F",
"F+	c #8A3838",
"G+	c #2E2E0A",
"H+	c #1A1212",
"I+	c #060E10",
"J+	c #060606",
"K+	c #391A1A",
"L+	c #E15858",
"M+	c #C44E4D",
"N+	c #16130F",
"O+	c #070A06",
"P+	c #664E1E",
"Q+	c #CA9242",
"R+	c #96622E",
"S+	c #422E1E",
"T+	c #060A0E",
"U+	c #020602",
"V+	c #060602",
"W+	c #45211C",
"X+	c #AE4644",
"Y+	c #0C0D0A",
"Z+	c #16160A",
"`+	c #6E5226",
" @	c #AE7232",
".@	c #B27236",
"+@	c #825A2E",
"@@	c #322A0A",
"#@	c #5F2B27",
"$@	c #9F413E",
"%@	c #0C100C",
"&@	c #020202",
"*@	c #060A02",
"=@	c #826232",
"-@	c #664216",
";@	c #5E3A26",
">@	c #46261A",
",@	c #0A0602",
"                                                ",
"  . + @ # $ % & * = = - ; ; > , ' *             ",
"  ) ! ! ~ { ] ^ / ( _ : : < : [ } |     !       ",
"  1 2 ! ! 2 3 4 5 5 = $ % & * = = - 6 7 ! ! 8 * ",
"  9 0 a ! ! b c ] > d > ] ^ / ( _ e f ! ! g h | ",
"  i j k l ! ! m n [ } o o p q r s t ! ! u v w ^ ",
"  x y z A B ! ! C D E w F G H I J ! ! K L M N O ",
"  P Q R S T U ! ! V W X Y Z `  .! ! ! ..+.@.#.$.",
"  %.&.*.=.-.;.U ! ! >.,.'.).!.! ! ! ~.{.].#.^./.",
"  (._.*.:.<.[.}.! ! ! |.1.2.! ! ! 3.P 4.5.6.7.8.",
"  9.=.R S 0.a.%.b.! ! ! c.U ! ! d.e.f.Q Q 4.4.g.",
"  h.[.i.[.j.k.(._.l.! ! ! ! ! m.n.o.p.Q :.&.8.g.",
"  h.q.r.s.t.u.9.=.v.w.! ! ! x.y.z.A.p.x B.C.D.E.",
"  F.G.H.I.J.K.h.[.L.M.! ! ! N.O.P.Q.R.h.S.T.D.t.",
"  U.V.W.F.X.Y.h.Z.`.! !  +! ! .+++V.G.@+h.'.#+s.",
"  U.$+%+o.X.p.&+*+! ! =+-+;+! ! >+,+'+)+!+~+{+]+",
"  ^+/+r p.X.(+_+! ! :+<+Y.[+}+! ! |+1+h.o.2+3+4+",
"  5+p.9.^+6+7+! ! 8+9+X.p.p.0+a+! ! b+c+d+e+f+g+",
"  h+i+j+k+l+! ! ! m+p.X.2+n+k.o+p+! ! q+r+s+i+t+",
"  u+v+w+x+! ! ! y+9.^+p.!+!+i+z+A+B+! ! C+D+d+U.",
"  u+u+E+! ! ! F+i+j+G+i+H+I+n+u+J+K+L+! ! M+N+d+",
"      ! ! ! ! O+v+w+w+P+Q+R+S+T+U+V+W+ +! X+Y+J+",
"      ! ! !   u+u+d+Z+j+`+ @.@+@R.j+@@#@$@%@u+&@",
"        !     U+*@U+u+q =@-@+@;@>@A.A.g+V+V+z+,@"};
