/* XPM */
static char * music_note_24_xpm[] = {
"24 24 4 1",
" 	c None",
".	c #FFFFFF",
"+	c #000000",
"@	c #0321FF",
"........................",
"........................",
"........................",
"...........++++@@@......",
"..........++++++@@@.....",
"..........++++++++@@....",
"..........++@@+++++@@...",
".........++@@...+++@@...",
".........++@.....++@@...",
".........++@.....++@@...",
".........+@@.....++@@...",
"........++@......++@....",
"......+++@@.....++@@....",
"....+++++@......++@.....",
"...++++++@......+@@.....",
"....++++@@.....++@@.....",
"....++++@.....++@@......",
"...........+++++@@......",
"..........++++++@.......",
"...........++++@@.......",
"...........+++@@........",
"........................",
"........................",
"........................"};
