/* XPM */
static char * reel_save_xpm[] = {
"32 32 20 1",
" 	c None",
".	c #000000",
"+	c #8080B2",
"@	c #43435D",
"#	c #DAD886",
"$	c #5C5C5C",
"%	c #C2C2C2",
"&	c #808080",
"*	c #7979A9",
"=	c #E7B65C",
"-	c #6E6E99",
";	c #2E2E40",
">	c #666666",
",	c #323246",
"'	c #6C6C97",
")	c #303043",
"!	c #4D4D6C",
"~	c #696993",
"{	c #7C7CAD",
"]	c #DADADA",
"                                ",
"                                ",
"                                ",
"                                ",
"             .......            ",
"         .......+.......        ",
"       ....+....+.....+...      ",
"      ......++......++.....     ",
"     .........+....+........    ",
"     .++++++..........+++++.    ",
"    ..........................  ",
"    .........+.....+..........  ",
"     ......++...+...++......@+. ",
"  ##$%%%%%$&$%%$##...++.....*+. ",
"  ##$%%%%%$&$%%$##=........-++. ",
"  ##$%%%%%$&$%%$##=......;>.... ",
"  ##$%%%%%$&$%%$##=....,'+>+++. ",
"  ##$%%%%%$&$%%$##=)!~{+++>+++. ",
"  ##$$$$$$$$$$$$##=++++++..+++. ",
"  ################=+++......... ",
"  ################=....   .+++. ",
"  ##]]]]]]]]]]]]##=      .++++. ",
"  ##]]]]]]]]]]]]##=     .+.++.  ",
"  ##]>>>>>>>>>>]##=    .+++.+.  ",
"  ##]]]]]]]]]]]]##=    .++++.   ",
"  ##]]]]]]]]]]]]##=     .++.    ",
"  ##]>>>>>>>>>>]##=      ..     ",
"  ##]]]]]]]]]]]]##=             ",
"  ##]]]]]]]]]]]]##=             ",
"  ################=             ",
"  $================             ",
"                                "};
