/* XPM */
static char * reel_delete_24_xpm[] = {
"24 24 132 2",
"  	c None",
". 	c #C40000",
"+ 	c #000000",
"@ 	c #181821",
"# 	c #BF0000",
"$ 	c #8D0000",
"% 	c #120000",
"& 	c #303043",
"* 	c #606086",
"= 	c #190000",
"- 	c #7E0000",
"; 	c #BE0000",
"> 	c #B80000",
", 	c #9F0000",
"' 	c #B10000",
") 	c #BC0000",
"! 	c #6F0000",
"~ 	c #261821",
"{ 	c #606085",
"] 	c #0A0000",
"^ 	c #990A0E",
"/ 	c #C30000",
"( 	c #5D0000",
"_ 	c #0E0000",
": 	c #161016",
"< 	c #7B1F2B",
"[ 	c #C10507",
"} 	c #8C0000",
"| 	c #140000",
"1 	c #020000",
"2 	c #220000",
"3 	c #9C0A0E",
"4 	c #BD0A0F",
"5 	c #721D29",
"6 	c #20202C",
"7 	c #08080B",
"8 	c #20202D",
"9 	c #413E56",
"0 	c #710A0E",
"a 	c #B60000",
"b 	c #800000",
"c 	c #1E0000",
"d 	c #270000",
"e 	c #900000",
"f 	c #C10000",
"g 	c #B00000",
"h 	c #65151D",
"i 	c #433B51",
"j 	c #404059",
"k 	c #101016",
"l 	c #0B0000",
"m 	c #880000",
"n 	c #320000",
"o 	c #9D0000",
"p 	c #C20000",
"q 	c #C20304",
"r 	c #440000",
"s 	c #070000",
"t 	c #111016",
"u 	c #803B52",
"v 	c #B40000",
"w 	c #A90000",
"x 	c #3D0000",
"y 	c #686891",
"z 	c #50506F",
"A 	c #5C5C80",
"B 	c #750000",
"C 	c #BD0000",
"D 	c #610000",
"E 	c #060000",
"F 	c #292939",
"G 	c #7D7DAF",
"H 	c #2D2D3E",
"I 	c #2D0000",
"J 	c #AB0000",
"K 	c #9B0000",
"L 	c #290000",
"M 	c #09090C",
"N 	c #37373E",
"O 	c #282830",
"P 	c #686289",
"Q 	c #621A25",
"R 	c #C20101",
"S 	c #9E0405",
"T 	c #540304",
"U 	c #37070A",
"V 	c #1E1B25",
"W 	c #3C3C54",
"X 	c #7575A3",
"Y 	c #73738C",
"Z 	c #79799F",
"` 	c #8080B2",
" .	c #88384D",
"..	c #BC0F15",
"+.	c #B11D28",
"@.	c #724662",
"#.	c #474560",
"$.	c #743B52",
"%.	c #B61720",
"&.	c #C40001",
"*.	c #B50F15",
"=.	c #8F5273",
"-.	c #817CAD",
";.	c #70709C",
">.	c #3A3A46",
",.	c #6D6D92",
"'.	c #560000",
").	c #B50000",
"!.	c #A20000",
"~.	c #8B6B95",
"{.	c #807FB1",
"].	c #817EAF",
"^.	c #915F85",
"/.	c #B8151E",
"(.	c #C40101",
"_.	c #B70E14",
":.	c #5C1E2A",
"<.	c #A40000",
"[.	c #200000",
"}.	c #BB0000",
"|.	c #261A24",
"1.	c #B30000",
"2.	c #6F212D",
"3.	c #78709C",
"4.	c #2B2B3B",
"5.	c #C30101",
"6.	c #9F2534",
"7.	c #372A3A",
"8.	c #110000",
"9.	c #8A2737",
"0.	c #88719E",
"a.	c #1A1A24",
"                                                ",
"                                                ",
"      .                             .           ",
"    . . . .         + + @ + +     # . .         ",
"      . . . $ % & + + + * + + = - ; > ,         ",
"        ' ; ) ! ~ { & + @ + ] ^ # / ( _         ",
"        : < [ . } | & @ 1 2 3 . 4 5 6 6 7       ",
"      + 8 9 0 a . b c + d e f g h i j j k +     ",
"      + + + l ( > # m n o p q r s + + + + + +   ",
"        + + + t u v . p / w x y z 7 + + + A j   ",
"      + + + + 8 j B / . C D E k j k + + F G j   ",
"      + H & + + I J . / p K L + + + M N O 8 k   ",
"        & * P Q g R S T J / v U V W X Y Z ` j   ",
"        + +  .... +.@.#.$.%.&.*.=.-.;.>.,.` j   ",
"          '.).. !.~.{.` ].^./.(._.:.@ + @ 8 k   ",
"          . . <.[.+ + + + + c }.. .   |.y ` j   ",
"      . . . .         + + +     . . 1.2.3.;.4.  ",
"      . . .                       g 5.6.7.* +   ",
"        .                         8.9.0.y +     ",
"                                    a.j a.      ",
"                                                ",
"                                                ",
"                                                ",
"                                                "};
