/* XPM */
static char * reel_24_xpm[] = {
"28 28 121 2",
"  	c None",
". 	c #000000",
"+ 	c #010101",
"@ 	c #525272",
"# 	c #292939",
"$ 	c #3B3B52",
"% 	c #8989BE",
"& 	c #64648B",
"* 	c #050507",
"= 	c #42425C",
"- 	c #8D8DC4",
"; 	c #111118",
"> 	c #3D3D54",
", 	c #8C8CC3",
"' 	c #1A1A24",
") 	c #040406",
"! 	c #050508",
"~ 	c #060608",
"{ 	c #000001",
"] 	c #71719D",
"^ 	c #2E2E40",
"/ 	c #454560",
"( 	c #040405",
"_ 	c #030305",
": 	c #5E5E83",
"< 	c #7373A0",
"[ 	c #7777A6",
"} 	c #393950",
"| 	c #606085",
"1 	c #7575A3",
"2 	c #4B4B68",
"3 	c #21212E",
"4 	c #08080C",
"5 	c #171720",
"6 	c #0E0E14",
"7 	c #484864",
"8 	c #4D4D6B",
"9 	c #0B0B10",
"0 	c #3F3F57",
"a 	c #474763",
"b 	c #030304",
"c 	c #0C0C11",
"d 	c #38384F",
"e 	c #121219",
"f 	c #0F0F14",
"g 	c #7A7AA9",
"h 	c #64648C",
"i 	c #07070A",
"j 	c #8383B7",
"k 	c #7575A2",
"l 	c #6F6F9B",
"m 	c #2E2E41",
"n 	c #8B8BC1",
"o 	c #14141C",
"p 	c #191923",
"q 	c #09090C",
"r 	c #7E7EAF",
"s 	c #0D0D12",
"t 	c #191925",
"u 	c #7C7CAC",
"v 	c #9494CD",
"w 	c #15151D",
"x 	c #63638A",
"y 	c #8282B5",
"z 	c #373746",
"A 	c #464645",
"B 	c #010102",
"C 	c #7D7DAE",
"D 	c #6D6D99",
"E 	c #2A2A3B",
"F 	c #020203",
"G 	c #333347",
"H 	c #7272A0",
"I 	c #7E7EA8",
"J 	c #6D6D7A",
"K 	c #8585BC",
"L 	c #8D8DC5",
"M 	c #70709C",
"N 	c #8989BF",
"O 	c #8282B6",
"P 	c #686892",
"Q 	c #494966",
"R 	c #2F2F41",
"S 	c #1C1C26",
"T 	c #16161E",
"U 	c #1E1E29",
"V 	c #313145",
"W 	c #4D4D6C",
"X 	c #6B6B96",
"Y 	c #8484B8",
"Z 	c #8787BC",
"` 	c #646485",
" .	c #62626F",
"..	c #8585BB",
"+.	c #8B8BC2",
"@.	c #59597C",
"#.	c #555576",
"$.	c #8E8EC5",
"%.	c #8E8EC6",
"&.	c #8A8ABF",
"*.	c #5F5F84",
"=.	c #535373",
"-.	c #4F4F6D",
";.	c #151520",
">.	c #565678",
",.	c #575779",
"'.	c #3E3E57",
").	c #3F3F58",
"!.	c #404059",
"~.	c #3C3C53",
"{.	c #41415A",
"].	c #8686BB",
"^.	c #9696D1",
"/.	c #303042",
"(.	c #9292CB",
"_.	c #35354A",
":.	c #8181B4",
"<.	c #43435E",
"[.	c #2B2B3C",
"}.	c #8080B3",
"|.	c #3A3A51",
"                                                        ",
"                                                        ",
"                                                        ",
"                        . . . + .                       ",
"                . . . . . . @ . . . + . .               ",
"            . . . # $ . . . % . . . . & * . .           ",
"          . . . . . = - ; . * . . > , ' . . . .         ",
"        . ) ! ! ! ~ { . ] * . . ^ / . ( ! ! ! _ .       ",
"        . : < < < [ } . . . . . . . . | < < 1 2 .       ",
"      . . . . . . . . 3 4 . . . ; 5 . . . . . . . .     ",
"        . . . . . 6 7 8 9 . 0 . 5 8 a b . . . . c d e   ",
"        . . . . f g h i . . j . . 6 k l ( . . . m n o   ",
"        . . . . _ p q . . . r . . . s p + . . t u v w   ",
"      . . x ^ . . . . . . . y . . . . . . . z A . B .   ",
"        . & C D E + _ F { . . . + F ( B G H I J K L o   ",
"        + . . M N O P Q R S T U V W X Y Z y `  ...+.o   ",
"          . . . @.#.M , , $.%.L , &.n *.=.-.. ;.>.,.c   ",
"              . . . ' '.).!.!.!.'.~.{._ .   . 9 ~.~.4   ",
"                        . . . . .           q M ].^.w   ",
"                                          . : /.(._.    ",
"                                        . r :.8 <.[.    ",
"                                        . r }.Y |.      ",
"                                          . M /         ",
"                                            .           ",
"                                                        ",
"                                                        ",
"                                                        ",
"                                                        "};
