/* XPM */
static char * scissors_xpm[] = {
"22 24 39 1",
" 	c None",
".	c #888A85",
"+	c #E9B96E",
"@	c #FDFDFD",
"#	c #8D8F8A",
"$	c #C17D11",
"%	c #AEAFAC",
"&	c #FFFFFF",
"*	c #FEFEFE",
"=	c #A6A7A4",
"-	c #969793",
";	c #FCFCFC",
">	c #9C9D98",
",	c #F9F9F9",
"'	c #DCB371",
")	c #9FA19D",
"!	c #9E9E9A",
"~	c #949691",
"{	c #A98243",
"]	c #F7F7F6",
"^	c #E7B86E",
"/	c #ADAFAB",
"(	c #989A95",
"_	c #979894",
":	c #939590",
"<	c #2B538C",
"[	c #959691",
"}	c #204A87",
"|	c #2D548C",
"1	c #2A528C",
"2	c #8395B1",
"3	c #2F568E",
"4	c #DAD7D5",
"5	c #32588F",
"6	c #385C91",
"7	c #B4B1AF",
"8	c #34578B",
"9	c #9B9897",
"0	c #95979B",
"                      ",
"                      ",
"              .       ",
"     .    +   .       ",
"    .@#   $  %&.      ",
"    .*.   +  =&.      ",
"    -&;#  $ >&,.      ",
"    .,&.  ' )*.!      ",
"     .&&~ {.&].       ",
"     .&&. ^/&.(       ",
"      .& _.&&.        ",
"      .&&&&& .        ",
"       .&&&.:         ",
"        .&&           ",
"        <<<<[         ",
"    <<<}|}<<<}}1<     ",
"   2<<<}3<4<5<<<}<    ",
"   }<  <<  46<  <}    ",
"   }    }   }    }    ",
"   <<  <<7  8<  <<    ",
"   << <<<9  << <}<    ",
"    <<<<0    <<<<     ",
"                      ",
"                      "};
