<?xml version="1.0" encoding="UTF-8" standalone="no"?>
<!-- Created with Inkscape (http://www.inkscape.org/) -->

<svg
   width="20"
   height="20"
   viewBox="0 0 5.2916665 5.2916666"
   version="1.1"
   id="svg8"
   inkscape:version="1.1.2 (0a00cf5339, 2022-02-04)"
   sodipodi:docname="View.svg"
   xmlns:inkscape="http://www.inkscape.org/namespaces/inkscape"
   xmlns:sodipodi="http://sodipodi.sourceforge.net/DTD/sodipodi-0.dtd"
   xmlns="http://www.w3.org/2000/svg"
   xmlns:svg="http://www.w3.org/2000/svg"
   xmlns:rdf="http://www.w3.org/1999/02/22-rdf-syntax-ns#"
   xmlns:cc="http://creativecommons.org/ns#"
   xmlns:dc="http://purl.org/dc/elements/1.1/">
  <defs
     id="defs2" />
  <sodipodi:namedview
     id="base"
     pagecolor="#ffffff"
     bordercolor="#666666"
     borderopacity="1.0"
     inkscape:pageopacity="0.0"
     inkscape:pageshadow="2"
     inkscape:zoom="31.659099"
     inkscape:cx="5.732949"
     inkscape:cy="11.007894"
     inkscape:document-units="px"
     inkscape:current-layer="ForwardPlayback"
     showgrid="true"
     units="px"
     inkscape:window-width="1850"
     inkscape:window-height="1016"
     inkscape:window-x="70"
     inkscape:window-y="27"
     inkscape:window-maximized="1"
     inkscape:pagecheckerboard="0"
     inkscape:snap-bbox="true"
     inkscape:bbox-nodes="true"
     inkscape:showpageshadow="2"
     inkscape:deskcolor="#d1d1d1">
    <inkscape:grid
       type="xygrid"
       id="grid4526"
       empspacing="10" />
  </sodipodi:namedview>
  <metadata
     id="metadata5">
    <rdf:RDF>
      <cc:Work
         rdf:about="">
        <dc:format>image/svg+xml</dc:format>
        <dc:type
           rdf:resource="http://purl.org/dc/dcmitype/StillImage" />
      </cc:Work>
    </rdf:RDF>
  </metadata>
  <g
     inkscape:label="Layer 1"
     inkscape:groupmode="layer"
     id="layer1"
     transform="translate(0,-291.70831)">
    <g
       id="ForwardPlayback"
       inkscape:label="#g4524"
       inkscape:export-xdpi="96"
       inkscape:export-ydpi="96">
      <path
         style="color:#000000;fill:#f0f0f0;stroke-width:1.189;-inkscape-stroke:none"
         d="m 2.4255176,294.57885 1.3629282,1.36271 0.4448874,-0.44482 -1.362314,-1.36269 z"
         id="path1242"
         sodipodi:nodetypes="ccccc" />
      <path
         id="path135"
         style="fill:#f0f0f0;fill-opacity:1;fill-rule:evenodd;stroke-width:0.264583"
         d="M 1.984375,292.50206 A 1.190625,1.190625 0 0 0 0.79374998,293.69269 1.190625,1.190625 0 0 0 1.984375,294.88331 1.190625,1.190625 0 0 0 3.175,293.69269 1.190625,1.190625 0 0 0 1.984375,292.50206 Z m 0,0.26459 a 0.92604168,0.92604168 0 0 1 0.9260416,0.92604 0.92604168,0.92604168 0 0 1 -0.9260416,0.92604 0.92604168,0.92604168 0 0 1 -0.9260417,-0.92604 0.92604168,0.92604168 0 0 1 0.9260417,-0.92604 z" />
    </g>
  </g>
</svg>
