<?xml version="1.0" encoding="UTF-8" standalone="no"?>
<!-- Created with Inkscape (http://www.inkscape.org/) -->

<svg
   width="20"
   height="20"
   viewBox="0 0 5.2916665 5.2916666"
   version="1.1"
   id="svg8"
   inkscape:version="1.1.2 (0a00cf5339, 2022-02-04)"
   sodipodi:docname="ViewZoom1To1.svg"
   xmlns:inkscape="http://www.inkscape.org/namespaces/inkscape"
   xmlns:sodipodi="http://sodipodi.sourceforge.net/DTD/sodipodi-0.dtd"
   xmlns="http://www.w3.org/2000/svg"
   xmlns:svg="http://www.w3.org/2000/svg"
   xmlns:rdf="http://www.w3.org/1999/02/22-rdf-syntax-ns#"
   xmlns:cc="http://creativecommons.org/ns#"
   xmlns:dc="http://purl.org/dc/elements/1.1/">
  <defs
     id="defs2" />
  <sodipodi:namedview
     id="base"
     pagecolor="#ffffff"
     bordercolor="#666666"
     borderopacity="1.0"
     inkscape:pageopacity="0.0"
     inkscape:pageshadow="2"
     inkscape:zoom="31.659099"
     inkscape:cx="5.732949"
     inkscape:cy="11.007894"
     inkscape:document-units="px"
     inkscape:current-layer="ForwardPlayback"
     showgrid="true"
     units="px"
     inkscape:window-width="1850"
     inkscape:window-height="1016"
     inkscape:window-x="70"
     inkscape:window-y="27"
     inkscape:window-maximized="1"
     inkscape:pagecheckerboard="0"
     inkscape:snap-bbox="true"
     inkscape:bbox-nodes="true"
     inkscape:showpageshadow="2"
     inkscape:deskcolor="#d1d1d1">
    <inkscape:grid
       type="xygrid"
       id="grid4526"
       empspacing="10" />
  </sodipodi:namedview>
  <metadata
     id="metadata5">
    <rdf:RDF>
      <cc:Work
         rdf:about="">
        <dc:format>image/svg+xml</dc:format>
        <dc:type
           rdf:resource="http://purl.org/dc/dcmitype/StillImage" />
      </cc:Work>
    </rdf:RDF>
  </metadata>
  <g
     inkscape:label="Layer 1"
     inkscape:groupmode="layer"
     id="layer1"
     transform="translate(0,-291.70831)">
    <g
       id="ForwardPlayback"
       inkscape:label="#g4524"
       inkscape:export-xdpi="96"
       inkscape:export-ydpi="96">
      <path
         id="path1242"
         style="color:#000000;fill:#f0f0f0;stroke-width:3.77953;-inkscape-stroke:none"
         d="M 10.996094 1 C 9.9727399 0.9988378 8.9488778 1.3881387 8.1699219 2.1679688 C 8.1455819 2.1906458 8.1192841 2.2152894 8.0957031 2.2402344 C 6.611059 3.8036994 6.6347238 6.2909787 8.1679688 7.8242188 C 9.4809487 9.1372267 11.494492 9.3434917 13.027344 8.4433594 L 17.359375 12.775391 L 18.773438 11.361328 L 14.443359 7.0292969 C 15.345914 5.4969626 15.134816 3.4863569 13.820312 2.171875 C 13.041352 1.3929144 12.019447 1.0011622 10.996094 1 z M 11 2 A 3 3 0 0 1 14 5 A 3 3 0 0 1 11 8 A 3 3 0 0 1 8 5 A 3 3 0 0 1 11 2 z "
         transform="matrix(0.26458333,0,0,0.26458333,0,291.70831)" />
      <path
         id="path5784"
         style="opacity:1;fill:#f0f0f0;fill-opacity:1;stroke:none;stroke-width:0.748356;stroke-miterlimit:4;stroke-dasharray:none;stroke-opacity:1"
         d="M 0.52913729,294.61873 H 0.26458383 l -5e-7,2.11666 h 0.26455346 z"
         sodipodi:nodetypes="ccccc" />
      <path
         id="path5786"
         style="opacity:1;fill:#f0f0f0;fill-opacity:1;stroke:none;stroke-width:0.748353;stroke-miterlimit:4;stroke-dasharray:none;stroke-opacity:1"
         d="M 2.1166666,294.61873 H 1.8520837 l -4e-7,2.11666 h 0.2645829 z"
         sodipodi:nodetypes="ccccc" />
      <rect
         style="fill:#f0f0f0;fill-opacity:1;stroke:none;stroke-width:0.793751"
         id="rect1127"
         width="0.26458335"
         height="0.26457417"
         x="1.0583333"
         y="295.14789" />
      <rect
         style="fill:#f0f0f0;fill-opacity:1;stroke:none;stroke-width:0.793751"
         id="rect4410"
         width="0.26458335"
         height="0.26459047"
         x="1.0583333"
         y="295.94165" />
    </g>
  </g>
</svg>
