/* XPM */

static const char * const arrow_xpm[] = {
"28 28 62 1",
"   c None",
".	c #707070",
"+	c #DCDCDC",
"@	c #D5D5D5",
"#	c #CCCCCC",
"$	c #C5C5C5",
"%	c #BDBDBD",
"&	c #B5B5B5",
"*	c #AAAAAA",
"=	c #8C8C8C",
"-	c #FFFFFF",
";	c #FEFEFE",
">	c #4F4F4F",
",	c #939393",
"'	c #9D9D9D",
")	c #B3B3B3",
"!	c #BBBBBB",
"~	c #EEEEEE",
"{	c #2A2A2A",
"]	c #B2B2B2",
"^	c #404040",
"/	c #B4B4B4",
"(	c #ACACAC",
"_	c #F5F5F5",
":	c #5C5C5C",
"<	c #B6B6B6",
"[	c #A4A4A4",
"}	c #F1F1F1",
"|	c #666666",
"1	c #A3A3A3",
"2	c #EDEDED",
"3	c #A2A2A2",
"4	c #EAEAEA",
"5	c #787878",
"6	c #BEBEBE",
"7	c #A0A0A0",
"8	c #E6E6E6",
"9	c #808080",
"0	c #C4C4C4",
"a	c #FCFCFC",
"b	c #999999",
"c	c #6A6A6A",
"d	c #0D0D0D",
"e	c #C6C6C6",
"f	c #989898",
"g	c #C7C7C7",
"h	c #969696",
"i	c #C8C8C8",
"j	c #959595",
"k	c #C9C9C9",
"l	c #FBFBFB",
"m	c #8E8E8E",
"n	c #1C1C1C",
"o	c #CFCFCF",
"p	c #D0D0D0",
"q	c #FAFAFA",
"r	c #8B8B8B",
"s	c #797979",
"t	c #F9F9F9",
"u	c #858585",
"v	c #919191",
"w	c #828282",
"                            ",
"                            ",
"                            ",
"                            ",
"            .+@#$%&*&       ",
"            =-------;       ",
"            >,'*)!~--{      ",
"                 ]---^      ",
"                /-;;->      ",
"               /--(_-:      ",
"              <-;[ }-|      ",
"             <-;1  2-.      ",
"            %-;3   4-5      ",
"           6-;7    8-9      ",
"          0-ab     %#c      ",
"        de-af               ",
"       dg-ah                ",
"      di-aj                 ",
"     dk-lm                  ",
"    no-l=                   ",
"   np-qr                    ",
"   sltu                     ",
"    vw                      ",
"                            ",
"                            ",
"                            ",
"                            ",
"                            "
};
