/* XPM */

static const char * const circle_xpm[] = {
"28 28 101 2",
"   c None",
".  c #1C1C1C",
"+  c #727272",
"@  c #969696",
"#  c #9E9E9E",
"$  c #8B8B8B",
"%  c #5A5A5A",
"&  c #515151",
"*  c #BFBFBF",
"=  c #F3F3F3",
"-  c #FFFFFF",
";  c #F1F1F1",
">  c #C7C7C7",
",  c #797979",
"'  c #A8A8A8",
")  c #F7F7F7",
"!  c #DCDCDC",
"~  c #717171",
"{  c #222222",
"]  c #CBCBCB",
"^  c #F4F4F4",
"/  c #D9D9D9",
"(  c #D5D5D5",
"_  c #E3E3E3",
":  c #FAFAFA",
"<  c #FDFDFD",
"[  c #B0B0B0",
"}  c #161616",
"|  c #EEEEEE",
"1  c #979797",
"2  c #8A8A8A",
"3  c #D1D1D1",
"4  c #CACACA",
"5  c #0D0D0D",
"6  c #C1C1C1",
"7  c #D0D0D0",
"8  c #323232",
"9  c #E4E4E4",
"0  c #B4B4B4",
"a  c #838383",
"b  c #2A2A2A",
"c  c #7F7F7F",
"d  c #E8E8E8",
"e  c #DBDBDB",
"f  c #E1E1E1",
"g  c #D8D8D8",
"h  c #848484",
"i  c #5D5D5D",
"j  c #696969",
"k  c #FEFEFE",
"l  c #6D6D6D",
"m  c #C8C8C8",
"n  c #D7D7D7",
"o  c #B3B3B3",
"p  c #DFDFDF",
"q  c #8C8C8C",
"r  c #AAAAAA",
"s  c #C5C5C5",
"t  c #565656",
"u  c #909090",
"v  c #DDDDDD",
"w  c #C6C6C6",
"x  c #6E6E6E",
"y  c #9B9B9B",
"z  c #D6D6D6",
"A  c #A3A3A3",
"B  c #B1B1B1",
"C  c #B6B6B6",
"D  c #DEDEDE",
"E  c #858585",
"F  c #FBFBFB",
"G  c #5F5F5F",
"H  c #D4D4D4",
"I  c #EDEDED",
"J  c #424242",
"K  c #CDCDCD",
"L  c #F8F8F8",
"M  c #A1A1A1",
"N  c #888888",
"O  c #A0A0A0",
"P  c #E6E6E6",
"Q  c #FCFCFC",
"R  c #B5B5B5",
"S  c #F9F9F9",
"T  c #B9B9B9",
"U  c #4B4B4B",
"V  c #777777",
"W  c #DADADA",
"X  c #EAEAEA",
"Y  c #3B3B3B",
"Z  c #ABABAB",
"`  c #C9C9C9",
" .	c #C2C2C2",
"..	c #828282",
"+.	c #E9E9E9",
"@.	c #353535",
"#.	c #A4A4A4",
"$.	c #D2D2D2",
"%.	c #959595",
"&.	c #ADADAD",
"*.	c #878787",
"                                                        ",
"                                                        ",
"                    . + @ # $ %                         ",
"                & * = - - - - - ; > ,                   ",
"              ' ) - - - - - - - - - - ! ~               ",
"          { ] - - - - ^ / ( _ : - - - - < [             ",
"        } ( - - - | 1 .       { 2 3 < - - - 4 5         ",
"        6 - - - 7 8                 + 9 - - - 0         ",
"      a - - - > 5                     b 3 - - < c       ",
"    5 d - - e }                         { f - - g       ",
"    h - - : i                             j k - k l     ",
"    m - - m                                 n - - o     ",
"    p - - q                                 r - - 3     ",
"    s - - t                                 u - - v     ",
"    w - - x                                 y - - (     ",
"    z - - A                                 B - - 4     ",
"    C - - D                                 e - - r     ",
"    % < - - E                             i F - - G     ",
"      H - - I J                           K - - _       ",
"      % L - - p 8                       M - - - N       ",
"        O - - - P G                   ' Q - - H         ",
"          R - - - S T U           V W - - - X Y         ",
"            Z Q - - - < p `  .7 | - - - - P %           ",
"              ..+.- - - - - - - - - - k ] @.            ",
"                } #._ k - - - - - L $.+                 ",
"                      % %.&.0 A *.b                     ",
"                                                        ",
"                                                        "};
