<?xml version="1.0" encoding="UTF-8" standalone="no"?>
<svg
   version="1.1"
   width="48"
   height="48"
   viewBox="0 0 48 48"
   xml:space="preserve"
   id="svg14"
   sodipodi:docname="Documents.svg"
   inkscape:version="1.3 (0e150ed6c4, 2023-07-21)"
   xmlns:inkscape="http://www.inkscape.org/namespaces/inkscape"
   xmlns:sodipodi="http://sodipodi.sourceforge.net/DTD/sodipodi-0.dtd"
   xmlns="http://www.w3.org/2000/svg"
   xmlns:svg="http://www.w3.org/2000/svg"><sodipodi:namedview
   id="namedview16"
   pagecolor="#ffffff"
   bordercolor="#666666"
   borderopacity="1.0"
   inkscape:pageshadow="2"
   inkscape:pageopacity="0.0"
   inkscape:pagecheckerboard="0"
   showgrid="false"
   width="25px"
   inkscape:zoom="4.3752232"
   inkscape:cx="-48.68323"
   inkscape:cy="44.112035"
   inkscape:window-width="1613"
   inkscape:window-height="814"
   inkscape:window-x="276"
   inkscape:window-y="192"
   inkscape:window-maximized="1"
   inkscape:current-layer="svg14"
   inkscape:showpageshadow="2"
   inkscape:deskcolor="#d1d1d1" />&#10;&#10;<defs
   id="defs2">&#10;</defs>&#10;<g
   style="opacity:1;fill:none;fill-rule:nonzero;stroke:none;stroke-width:0;stroke-linecap:butt;stroke-linejoin:miter;stroke-miterlimit:10;stroke-dasharray:none"
   transform="matrix(0.40486811,0,0,0.44698441,4.9714371,1.5532602)"
   id="g12">&#10;	<path
   d="M 21.970863,87.221448 C 21.379962,86.896499 20.880854,86.39024 20.567774,85.735215 l -3.051871,-6.385139 v 0 L -1.9989073,38.521088 c -0.6921383,-1.448092 -0.079797,-3.183847 1.36919737,-3.876415 L 1.3507033,33.698105 c 1.9957492,-0.953897 2.8402555,-3.344821 1.8863553,-5.340571 v 0 C 2.2831602,26.361783 3.1276647,23.970859 5.123416,23.016961 l 20.552988,-9.8236 c 1.347945,-0.644269 2.942368,-0.485306 4.135833,0.413939 l 3.330624,2.506776 c 1.193933,0.897911 2.787888,1.05821 4.135831,0.41394 L 61.074327,5.1545454 c 1.448091,-0.6921374 3.183843,-0.079797 3.876411,1.3691973 l 7.177526,15.0168523 z"
   style="opacity:1;fill:#e8a113;fill-rule:nonzero;stroke:none;stroke-width:1;stroke-linecap:butt;stroke-linejoin:miter;stroke-miterlimit:10;stroke-dasharray:none"
   stroke-linecap="round"
   id="path4" />&#10;	<path
   d="m 61.137526,22.500014 -2.98632,-6.247999 C 57.238705,14.342878 54.951793,13.535114 53.042657,14.447614 L 8.8943357,35.548948 C 6.9851995,36.461447 6.177434,38.748359 7.0899348,40.657495 L 22.883592,73.701067 Z"
   style="opacity:1;fill:#e1e7f2;fill-opacity:1;fill-rule:nonzero;stroke:none;stroke-width:1;stroke-linecap:butt;stroke-linejoin:miter;stroke-miterlimit:10;stroke-dasharray:none"
   stroke-linecap="round"
   id="path6" />&#10;	<path
   d="M 66.471431,24.384016 63.485108,18.136015 C 62.57261,16.226878 60.285699,15.419113 58.376564,16.331612 L 14.228241,37.432947 c -1.909135,0.9125 -2.716903,3.199413 -1.804403,5.108548 l 11.48128,24.021192 z"
   style="opacity:1;fill:#f0f4fa;fill-opacity:1;fill-rule:nonzero;stroke:none;stroke-width:1;stroke-linecap:butt;stroke-linejoin:miter;stroke-miterlimit:10;stroke-dasharray:none"
   stroke-linecap="round"
   id="path8" />&#10;	<path
   d="m 21.031214,48.586655 c -0.03857,-1.578706 0.85415,-3.033947 2.278782,-3.714871 L 83.547031,16.080613 c 2.051689,-0.980635 4.432109,0.479593 4.487845,2.752789 l 0.846481,34.769049 c 0.04688,1.916103 -1.035633,3.681515 -2.765225,4.508198 l -54.704503,26.146818 -6.385143,3.051871 c -1.011408,0.483418 -2.143138,0.413641 -3.055623,-0.08789 l 0.0019,-0.0031 L 21.488859,67.37179 21.031261,48.586657"
   style="opacity:1;fill:#ffd882;fill-opacity:1;fill-rule:nonzero;stroke:none;stroke-width:1;stroke-linecap:butt;stroke-linejoin:miter;stroke-miterlimit:10;stroke-dasharray:none"
   stroke-linecap="round"
   id="path10" />&#10;</g>&#10;</svg>
