/* XPM */
static char * draw_xpm[] = {
"26 28 143 2",
"  	c None",
". 	c #91755A",
"+ 	c #998067",
"@ 	c #7C552D",
"# 	c #77430B",
"$ 	c #7B5429",
"% 	c #754E24",
"& 	c #995D1F",
"* 	c #874E10",
"= 	c #977F67",
"- 	c #B7ACA4",
"; 	c #71471B",
"> 	c #9D662E",
", 	c #D48E45",
"' 	c #6E4213",
") 	c #71481B",
"! 	c #96632E",
"~ 	c #E49745",
"{ 	c #996731",
"] 	c #7B552D",
"^ 	c #764F26",
"/ 	c #895E2F",
"( 	c #E79137",
"_ 	c #B67836",
": 	c #744C22",
"< 	c #A08B77",
"[ 	c #7D5A33",
"} 	c #7D552A",
"| 	c #D48839",
"1 	c #BB6C19",
"2 	c #8C653A",
"3 	c #6E4112",
"4 	c #876745",
"5 	c #795125",
"6 	c #C1803B",
"7 	c #C97113",
"8 	c #956430",
"9 	c #7E5326",
"0 	c #967C60",
"a 	c #907659",
"b 	c #764C20",
"c 	c #AF763C",
"d 	c #DB7C18",
"e 	c #985916",
"f 	c #876239",
"g 	c #6E4010",
"h 	c #9B846D",
"i 	c #71471A",
"j 	c #9B6D3C",
"k 	c #E8851D",
"l 	c #A45B0D",
"m 	c #785631",
"n 	c #875722",
"o 	c #927558",
"p 	c #A59C95",
"q 	c #837869",
"r 	c #897862",
"s 	c #CB7B27",
"t 	c #B6640E",
"u 	c #7D5223",
"v 	c #976632",
"w 	c #724515",
"x 	c #8F918C",
"y 	c #AEAFAC",
"z 	c #8A8A83",
"A 	c #845B2E",
"B 	c #966A3B",
"C 	c #744413",
"D 	c #AA9A8B",
"E 	c #949692",
"F 	c #F4F4F4",
"G 	c #E7E7E7",
"H 	c #ADADAC",
"I 	c #898982",
"J 	c #865C2E",
"K 	c #8E6F4E",
"L 	c #979893",
"M 	c #F9F9F9",
"N 	c #A3A3A3",
"O 	c #9FA19D",
"P 	c #888275",
"Q 	c #8E8E8A",
"R 	c #F6F6F6",
"S 	c #E0E0E0",
"T 	c #A6A7A5",
"U 	c #90918C",
"V 	c #9F9F9A",
"W 	c #F8F8F8",
"X 	c #9F9F9D",
"Y 	c #8F908C",
"Z 	c #5C5958",
"` 	c #403F3E",
" .	c #595958",
"..	c #A2A2A2",
"+.	c #9A9A98",
"@.	c #8F918B",
"#.	c #383737",
"$.	c #757575",
"%.	c #848484",
"&.	c #3F3F3F",
"*.	c #202020",
"=.	c #747570",
"-.	c #2F2D2D",
";.	c #1A1A1A",
">.	c #929292",
",.	c #484848",
"'.	c #242424",
").	c #625F5D",
"!.	c #504E4C",
"~.	c #000000",
"{.	c #0D0D0D",
"].	c #2B2B2B",
"^.	c #3B3B3B",
"/.	c #303030",
"(.	c #161616",
"_.	c #726E6C",
":.	c #A49F9D",
"<.	c #A6A19E",
"[.	c #A9A4A1",
"}.	c #ACA6A4",
"|.	c #74706E",
"1.	c #0A0A0A",
"2.	c #141414",
"3.	c #0E0E0E",
"4.	c #131212",
"5.	c #85817F",
"6.	c #8B8785",
"7.	c #918D8B",
"8.	c #979390",
"9.	c #9D9996",
"0.	c #A39E9C",
"a.	c #AAA4A2",
"b.	c #6E6A69",
"c.	c #090909",
"d.	c #0A0A09",
"e.	c #0B0B0B",
"f.	c #1E1D1C",
"g.	c #343332",
"h.	c #555251",
"i.	c #A09B98",
"j.	c #A5A09D",
"k.	c #A7A29F",
"l.	c #ABA6A3",
"                                                    ",
"                                                    ",
"                                                    ",
"                                        . +         ",
"                                      @ # $         ",
"                                    % & * =         ",
"                                - ; > , '           ",
"                                ) ! ~ { ]           ",
"                              ^ / ( _ : <           ",
"                            [ } | 1 2 3             ",
"                          4 5 6 7 8 9 0             ",
"                        a b c d e f g               ",
"                      h i j k l m n o               ",
"                    p q r s t u v w                 ",
"                    x   y z A B C D                 ",
"                    E F G H I J K                   ",
"                  L   M   N O P                     ",
"                  Q R S   T U                       ",
"                V   W   X Y                         ",
"              Z `  ...+.@.                          ",
"            #.$.%.&.*.=.                            ",
"          -.;.>.N ,.'.).                            ",
"        !.~.{.].^./.(._.:.<.[.}.                    ",
"      |.~.~.~.1.2.3.4.5.6.7.8.9.0.a.                ",
"    b.c.c.d.e.f.g.h.i.j.k.l.                        ",
"                                                    ",
"                                                    ",
"                                                    "};
