/* XPM */
static const char * const draw_xpm[] = {
"28 28 67 1",
"   c None",
".	c #000000",
"+	c #010101",
"@	c #F3F3F3",
"#	c #EBEBEB",
"$	c #F2F2F2",
"%	c #FFFFFF",
"&	c #020202",
"*	c #101010",
"=	c #737373",
"-	c #C4C4C4",
";	c #D3D3D3",
">	c #B9B9B9",
",	c #F0F0F0",
"'	c #2A2A2A",
")	c #080808",
"!	c #A6A6A6",
"~	c #DEDEDE",
"{	c #818181",
"]	c #E3E3E3",
"^	c #848484",
"/	c #EDEDED",
"(	c #171717",
"_	c #7A7A7A",
":	c #EFEFEF",
"<	c #4F4F4F",
"[	c #FBFBFB",
"}	c #F1F1F1",
"|	c #030303",
"1	c #464646",
"2	c #FDFDFD",
"3	c #343434",
"4	c #050505",
"5	c #3D3D3D",
"6	c #F4F4F4",
"7	c #FCFCFC",
"8	c #4E4E4E",
"9	c #1B1B1B",
"0	c #E9E9E9",
"a	c #F9F9F9",
"b	c #1C1C1C",
"c	c #ECECEC",
"d	c #606060",
"e	c #E4E4E4",
"f	c #717171",
"g	c #CDCDCD",
"h	c #C8C8C8",
"i	c #8F8F8F",
"j	c #838383",
"k	c #969696",
"l	c #4B4B4B",
"m	c #787878",
"n	c #F6F6F6",
"o	c #999999",
"p	c #F8F8F8",
"q	c #A8A8A8",
"r	c #282828",
"s	c #B1B1B1",
"t	c #505050",
"u	c #CACACA",
"v	c #9F9F9F",
"w	c #E0E0E0",
"x	c #7B7B7B",
"y	c #454545",
"z	c #262626",
"A	c #2F2F2F",
"B	c #4D4D4D",
"                            ",
"                            ",
"                     %%%    ",
"                     %%%    ",
"                     %%%    ",
"                   %  %%    ",
"                  %%%       ",
"                 %%%%%      ",
"                %%%%%       ",
"               %%%%%        ",
"              %%%%%         ",
"             %%%%%          ",
"            %%%%%           ",
"           %%%%%            ",
"          %%%%%             ",
"         %%%%%              ",
"      + e%%%%f              ",
"       g%%%%_               ",
"      h%%%%i                ",
"     j%%%%k                 ",
"    l mn%o                  ",
"    pq rs                   ",
"   t%%u                     ",
"   vwxy                     ",
"                            ",
"                            ",
"                            ",
"                            "};
