/* XPM */
static const char * const erase_xpm[] = {
"28 28 71 1",
"   c None",
".  c #000000",
"+	c #030303",
"@	c #2B2B2B",
"#	c #CDCDCD",
"$	c #D9D9D9",
"%	c #FFFFFF",
"&	c #E4E4E4",
"*	c #1B1B1B",
"=	c #D3D3D3",
"-	c #EEEEEE",
";	c #A7A7A7",
">	c #EFEFEF",
",	c #060606",
"'	c #808080",
")	c #FCFCFC",
"!	c #585858",
"~	c #4B4B4B",
"{	c #5B5B5B",
"]	c #010101",
"^	c #F2F2F2",
"/	c #F3F3F3",
"(	c #353535",
"_	c #E2E2E2",
":	c #F4F4F4",
"<	c #373737",
"[	c #3C3C3C",
"}	c #ECECEC",
"|	c #5C5C5C",
"1	c #797979",
"2	c #696969",
"3	c #F9F9F9",
"4	c #262626",
"5	c #5D5D5D",
"6	c #7B7B7B",
"7	c #7A7A7A",
"8	c #6D6D6D",
"9	c #B7B7B7",
"0	c #FDFDFD",
"a	c #535353",
"b	c #525252",
"c	c #737373",
"d	c #181818",
"e	c #ADADAD",
"f	c #FEFEFE",
"g	c #F8F8F8",
"h	c #383838",
"i	c #464646",
"j	c #2A2A2A",
"k	c #858585",
"l	c #3F3F3F",
"m	c #020202",
"n	c #555555",
"o	c #3E3E3E",
"p	c #505050",
"q	c #4C4C4C",
"r	c #474747",
"s	c #787878",
"t	c #343434",
"u	c #6F6F6F",
"v	c #0A0A0A",
"w	c #3B3B3B",
"x	c #4F4F4F",
"y	c #4E4E4E",
"z	c #595959",
"A	c #8D8D8D",
"B	c #FBFBFB",
"C	c #919191",
"D	c #252525",
"E	c #BCBCBC",
"F	c #F7F7F7",
"                            ",
"                            ",
"                 +          ",
"                +@# +       ",
"                 $%&*       ",
"                =%%%-       ",
"               ;%%%%%>,     ",
"              '%%%%%%%)!    ",
"             ~%%%%%%%%%%{   ",
"           ] ^%%%%%%%%%/(   ",
"            _%%%%%%%%%:<    ",
"           [ }%%%%%%%:      ",
"          |12 =%%%%%34      ",
"         56178 9%%%0a       ",
"        b71111cdefgh        ",
"       i11111111jkl         ",
"       mn7111117o           ",
"       ] p71117q            ",
"          rs17b             ",
"           tub              ",
"             v]+mwxxxy{z    ",
"   AB3gggg)CDm]  EFFFFF3    ",
"                            ",
"                            ",
"                            ",
"                            ",
"                            ",
"                            "};
