<?xml version="1.0" encoding="UTF-8" standalone="no"?>
<!-- Uploaded to: SVG Repo, www.svgrepo.com, Generator: SVG Repo Mixer Tools -->

<svg
   version="1.1"
   id="Layer_1"
   viewBox="0 0 48 48"
   xml:space="preserve"
   sodipodi:docname="FavoritesButton.svg"
   width="48"
   height="48"
   inkscape:version="1.1.2 (0a00cf5339, 2022-02-04)"
   xmlns:inkscape="http://www.inkscape.org/namespaces/inkscape"
   xmlns:sodipodi="http://sodipodi.sourceforge.net/DTD/sodipodi-0.dtd"
   xmlns="http://www.w3.org/2000/svg"
   xmlns:svg="http://www.w3.org/2000/svg"><defs
   id="defs23"><marker
     style="overflow:visible"
     id="marker1872"
     refX="0"
     refY="0"
     orient="auto"
     inkscape:stockid="Arrow1Send"
     inkscape:isstock="true"><path
       transform="matrix(-0.2,0,0,-0.2,-1.2,0)"
       style="fill:context-stroke;fill-rule:evenodd;stroke:context-stroke;stroke-width:1pt"
       d="M 0,0 5,-5 -12.5,0 5,5 Z"
       id="path1870" /></marker><marker
     style="overflow:visible"
     id="Arrow1Send"
     refX="0"
     refY="0"
     orient="auto"
     inkscape:stockid="Arrow1Send"
     inkscape:isstock="true"><path
       transform="matrix(-0.2,0,0,-0.2,-1.2,0)"
       style="fill:context-stroke;fill-rule:evenodd;stroke:context-stroke;stroke-width:1pt"
       d="M 0,0 5,-5 -12.5,0 5,5 Z"
       id="path1599" /></marker><marker
     style="overflow:visible"
     id="marker1854"
     refX="0"
     refY="0"
     orient="auto"
     inkscape:stockid="Arrow1Mend"
     inkscape:isstock="true"><path
       transform="matrix(-0.4,0,0,-0.4,-4,0)"
       style="fill:context-stroke;fill-rule:evenodd;stroke:context-stroke;stroke-width:1pt"
       d="M 0,0 5,-5 -12.5,0 5,5 Z"
       id="path1852" /></marker><marker
     style="overflow:visible"
     id="Arrow1Mend"
     refX="0"
     refY="0"
     orient="auto"
     inkscape:stockid="Arrow1Mend"
     inkscape:isstock="true"><path
       transform="matrix(-0.4,0,0,-0.4,-4,0)"
       style="fill:context-stroke;fill-rule:evenodd;stroke:context-stroke;stroke-width:1pt"
       d="M 0,0 5,-5 -12.5,0 5,5 Z"
       id="path1593" /></marker></defs><sodipodi:namedview
   id="namedview21"
   pagecolor="#ffffff"
   bordercolor="#666666"
   borderopacity="1.0"
   inkscape:pageshadow="2"
   inkscape:pageopacity="0.0"
   inkscape:pagecheckerboard="true"
   showgrid="false"
   inkscape:zoom="1"
   inkscape:cx="5.5"
   inkscape:cy="11.5"
   inkscape:window-width="1920"
   inkscape:window-height="964"
   inkscape:window-x="0"
   inkscape:window-y="27"
   inkscape:window-maximized="1"
   inkscape:current-layer="Layer_1"
   width="48px" />









<g
   style="fill:none;fill-rule:nonzero;stroke:none;stroke-width:0;stroke-linecap:butt;stroke-linejoin:miter;stroke-miterlimit:10;stroke-dasharray:none"
   transform="matrix(0.36432586,0,0,0.44580233,12.71334,8.4574418)"
   id="g12"><path
     d="M 0.625,76.898 C 0.232,76.35 0,75.678 0,74.952 v -7.077 0 -45.253 c 0,-1.605 1.301,-2.907 2.907,-2.907 h 2.195 c 2.212,0 4.005,-1.793 4.005,-4.005 v 0 c 0,-2.212 1.793,-4.005 4.005,-4.005 h 22.78 c 1.494,0 2.864,0.831 3.553,2.157 l 1.924,3.698 c 0.69,1.325 2.059,2.157 3.553,2.157 h 26.374 c 1.605,0 2.907,1.301 2.907,2.907 v 16.644 z"
     style="opacity:1;fill:#e8a113;fill-rule:nonzero;stroke:none;stroke-width:1;stroke-linecap:butt;stroke-linejoin:miter;stroke-miterlimit:10;stroke-dasharray:none"
     stroke-linecap="round"
     id="path4" /><path
     d="m 63.873,35.394 v -6.925 c 0,-2.116 -1.715,-3.831 -3.831,-3.831 H 11.11 c -2.116,0 -3.831,1.715 -3.831,3.831 v 36.624 z"
     style="opacity:1;fill:#e1e7f2;fill-opacity:1;fill-rule:nonzero;stroke:none;stroke-width:1;stroke-linecap:butt;stroke-linejoin:miter;stroke-miterlimit:10;stroke-dasharray:none"
     stroke-linecap="round"
     id="path6" /><path
     d="m 67.873,39.394 v -6.925 c 0,-2.116 -1.715,-3.831 -3.831,-3.831 H 15.11 c -2.116,0 -3.831,1.715 -3.831,3.831 v 26.624 z"
     style="opacity:1;fill:#f0f4fa;fill-opacity:1;fill-rule:nonzero;stroke:none;stroke-width:1;stroke-linecap:butt;stroke-linejoin:miter;stroke-miterlimit:10;stroke-dasharray:none"
     stroke-linecap="round"
     id="path8" /><path
     d="m 16.438,41.635 c 0.646,-1.441 2.079,-2.369 3.658,-2.369 H 86.86 c 2.274,0 3.792,2.344 2.862,4.419 L 75.492,75.42 c -0.784,1.749 -2.522,2.875 -4.439,2.875 H 10.421 3.344 c -1.121,0 -2.112,-0.551 -2.719,-1.397 L 0.628,76.896 8.75,58.781 16.438,41.635"
     style="opacity:1;fill:#ffd882;fill-opacity:1;fill-rule:nonzero;stroke:none;stroke-width:1;stroke-linecap:butt;stroke-linejoin:miter;stroke-miterlimit:10;stroke-dasharray:none"
     stroke-linecap="round"
     id="path10" /></g><path
   style="display:inline;fill:none;stroke:#000000;stroke-width:3;stroke-linecap:butt;stroke-linejoin:miter;stroke-opacity:1;stroke-miterlimit:4;stroke-dasharray:none"
   d="m 29.153279,25.936218 c -0.186475,-5.232073 -0.280152,-4.234469 -1.280402,-6.5603 -1.34725,-3.132692 -6.201965,-4.325409 -6.201965,-4.325409"
   id="path1340"
   sodipodi:nodetypes="csc" /><path
   sodipodi:type="star"
   style="fill:#000000;fill-opacity:1;stroke-width:3.67;paint-order:stroke fill markers;stop-color:#000000"
   id="path972"
   inkscape:flatsided="true"
   sodipodi:sides="3"
   sodipodi:cx="20.584133"
   sodipodi:cy="14.479904"
   sodipodi:r1="3.5363603"
   sodipodi:r2="1.7681801"
   sodipodi:arg1="-2.5450248"
   sodipodi:arg2="-1.4978272"
   inkscape:rounded="0"
   inkscape:randomized="0"
   d="m 17.658613,12.493154 6.108856,0.44655 -3.441152,5.06715 z"
   inkscape:transform-center-x="0.19809042"
   inkscape:transform-center-y="1.2725006"
   transform="matrix(1.5201506,-0.2403108,0.22345095,1.6348491,-11.973599,-3.1454582)" /><g
   id="g2982"
   inkscape:label="heart"><path
     style="fill:#ff0000;fill-opacity:1;stroke:none;stroke-width:1.326px;stroke-linecap:butt;stroke-linejoin:miter;stroke-opacity:1"
     d="m 10.746123,18.211788 c 0,0 9.879224,-7.229178 9.790517,-11.521671 C 20.4754,3.7265833 15.020522,-3.100466 10.087992,4.4195256 6.6645186,-3.0139197 -0.16446122,4.360547 -0.04134832,7.2551661 0.12405878,11.144207 10.746123,18.211788 10.746123,18.211788 Z"
     id="path897"
     sodipodi:nodetypes="cscsc"
     inkscape:label="body" /><path
     style="fill:#ff5555;fill-opacity:1;stroke:none;stroke-width:3;stroke-miterlimit:4;stroke-dasharray:none;stroke-opacity:1;paint-order:stroke fill markers;stop-color:#000000"
     id="path2728"
     sodipodi:type="arc"
     sodipodi:cx="16.161135"
     sodipodi:cy="6.2044353"
     sodipodi:rx="2.2387466"
     sodipodi:ry="4.0347257"
     sodipodi:start="3.7644328"
     sodipodi:end="5.7957352"
     sodipodi:arc-type="slice"
     d="m 14.342769,3.8508009 a 2.2387466,4.0347257 0 0 1 1.969802,-1.6718499 2.2387466,4.0347257 0 0 1 1.826564,2.1357217 l -1.978,1.8897626 z" /><path
     style="fill:#ff5555;fill-opacity:1;stroke:none;stroke-width:3;stroke-miterlimit:4;stroke-dasharray:none;stroke-opacity:1;paint-order:stroke fill markers;stop-color:#000000"
     id="path2878"
     sodipodi:type="arc"
     sodipodi:cx="13.041392"
     sodipodi:cy="7.5480576"
     sodipodi:rx="2.049438"
     sodipodi:ry="2.8681054"
     sodipodi:start="5.0994663"
     sodipodi:end="5.9781341"
     sodipodi:arc-type="slice"
     d="M 13.815022,4.8921453 A 2.049438,2.8681054 0 0 1 14.996211,6.686645 L 13.041392,7.5480576 Z" /></g></svg>
