/* XPM */
static char * file_open_24_xpm[] = {
"24 24 209 2",
"  	c None",
". 	c #565A2E",
"+ 	c #7A7A43",
"@ 	c #7E7A47",
"# 	c #7A723E",
"$ 	c #76723E",
"% 	c #767A46",
"& 	c #767644",
"* 	c #86824A",
"= 	c #8A8246",
"- 	c #8E864A",
"; 	c #96925A",
"> 	c #968E56",
", 	c #5E6236",
"' 	c #8E824A",
") 	c #92864E",
"! 	c #928A4C",
"~ 	c #8A8A4E",
"{ 	c #867A42",
"] 	c #928252",
"^ 	c #9E8E52",
"/ 	c #9A8E52",
"( 	c #AA9A59",
"_ 	c #A29656",
": 	c #827E4A",
"< 	c #666A3E",
"[ 	c #A69658",
"} 	c #867A4E",
"| 	c #524222",
"1 	c #2A2A10",
"2 	c #1E1E16",
"3 	c #625A3A",
"4 	c #B29E62",
"5 	c #B6A262",
"6 	c #B6A664",
"7 	c #AE9E5A",
"8 	c #BAA662",
"9 	c #B6A25C",
"0 	c #92764A",
"a 	c #F6D66E",
"b 	c #CA9A52",
"c 	c #322E12",
"d 	c #121A12",
"e 	c #928A5A",
"f 	c #BEAA62",
"g 	c #C6B66A",
"h 	c #BAAA62",
"i 	c #A29252",
"j 	c #4E522A",
"k 	c #827E42",
"l 	c #B2A25E",
"m 	c #CAB66A",
"n 	c #8A7A46",
"o 	c #A67E3A",
"p 	c #E2C262",
"q 	c #CA9242",
"r 	c #6E5A2A",
"s 	c #12160A",
"t 	c #3A3E26",
"u 	c #9E9255",
"v 	c #CABA66",
"w 	c #C6B262",
"x 	c #867E46",
"y 	c #262E1A",
"z 	c #5A5E32",
"A 	c #52562A",
"B 	c #86864A",
"C 	c #4E4E2E",
"D 	c #866A36",
"E 	c #BA863A",
"F 	c #A28246",
"G 	c #7E6236",
"H 	c #161A0D",
"I 	c #222A10",
"J 	c #4E5A32",
"K 	c #565E2A",
"L 	c #6A6E3A",
"M 	c #1A260E",
"N 	c #364626",
"O 	c #424E28",
"P 	c #3A4A22",
"Q 	c #323E26",
"R 	c #262A1A",
"S 	c #9E7636",
"T 	c #BA8E4A",
"U 	c #D6A252",
"V 	c #564616",
"W 	c #121E10",
"X 	c #3A4E2E",
"Y 	c #465632",
"Z 	c #6A7242",
"` 	c #5E6632",
" .	c #3E4625",
"..	c #121A0A",
"+.	c #32421F",
"@.	c #36421E",
"#.	c #363E1E",
"$.	c #1E2616",
"%.	c #4A3A22",
"&.	c #AE823E",
"*.	c #927236",
"=.	c #363214",
"-.	c #1A1A0C",
";.	c #161E0D",
">.	c #2A3216",
",.	c #0E160D",
"'.	c #223216",
").	c #3A4622",
"!.	c #363A1C",
"~.	c #362E12",
"{.	c #26260A",
"].	c #12160E",
"^.	c #121A0E",
"/.	c #4A5232",
"(.	c #323218",
"_.	c #0E120E",
":.	c #3E321A",
"<.	c #8A6E36",
"[.	c #7E662E",
"}.	c #2E260A",
"|.	c #3A4226",
"1.	c #5E5626",
"2.	c #565626",
"3.	c #1E1E0D",
"4.	c #4A461E",
"5.	c #1E2612",
"6.	c #0E1A0E",
"7.	c #52421D",
"8.	c #E2B65A",
"9.	c #EAB252",
"0.	c #EEB256",
"a.	c #5E421A",
"b.	c #2E2214",
"c.	c #525226",
"d.	c #726A2E",
"e.	c #262A0F",
"f.	c #3A3612",
"g.	c #5A5626",
"h.	c #524A18",
"i.	c #CA9E4A",
"j.	c #F6CE6A",
"k.	c #5E3E14",
"l.	c #4E4A26",
"m.	c #6E622E",
"n.	c #221E0E",
"o.	c #4A421A",
"p.	c #12120A",
"q.	c #BA964E",
"r.	c #E6CA66",
"s.	c #FAE67A",
"t.	c #CAAA52",
"u.	c #2A260A",
"v.	c #0A0E02",
"w.	c #060E06",
"x.	c #121206",
"y.	c #3E2E12",
"z.	c #423212",
"A.	c #120E0A",
"B.	c #6A461E",
"C.	c #0A160E",
"D.	c #222E12",
"E.	c #2E2E0A",
"F.	c #46421E",
"G.	c #0E120A",
"H.	c #0E1206",
"I.	c #3A2616",
"J.	c #26160A",
"K.	c #624A22",
"L.	c #564222",
"M.	c #1A220E",
"N.	c #0E0E06",
"O.	c #261E0E",
"P.	c #1A160C",
"Q.	c #3E3A16",
"R.	c #0A1209",
"S.	c #060A02",
"T.	c #0A0E0A",
"U.	c #16120C",
"V.	c #020A02",
"W.	c #020A06",
"X.	c #0A0E06",
"Y.	c #0A0A0A",
"Z.	c #26220E",
"`.	c #1A1212",
" +	c #060E10",
".+	c #060A06",
"++	c #060606",
"@+	c #020606",
"#+	c #060602",
"$+	c #0E0A06",
"%+	c #060E0A",
"&+	c #664E1E",
"*+	c #96622E",
"=+	c #422E1E",
"-+	c #060A0E",
";+	c #020602",
">+	c #0A0A02",
",+	c #16160A",
"'+	c #6E5226",
")+	c #AE7232",
"!+	c #B27236",
"~+	c #825A2E",
"{+	c #322A0A",
"]+	c #020202",
"^+	c #826232",
"/+	c #664216",
"(+	c #5E3A26",
"_+	c #46261A",
":+	c #0A0602",
"                                                ",
"      . + + @ # $ % & @ @ * = = - ; > &         ",
"      , ' - ) - ' ! ~ { ] ^ ^ / ^ ( _ :         ",
"      < _ ( _ [ [ } | 1 2 3 4 ( 5 6 4 !         ",
"      < 7 8 9 4 6 0 a b c d e 8 f g h i         ",
"      j k ( l m n o p q r s t + u v w x         ",
"      y , z A B C D E F G H I J K w 7 L         ",
"      M N O P Q R S T U V W M X Y Z `  .        ",
"      ..+.@.Q #.$.%.&.*.=.-.;.N N X X >.        ",
"      ,.'.@.).A !.,.%.~.{.].H N ).+. .>.        ",
"      ^.Q O P /.(._.:.<.[.}.H y |.1.2.I         ",
"      3.!.4.!.5.6.7.8.9.0.a.b.3.c.d.2.e.        ",
"      3.f.g.h.e.{.i.j.j.9.k.7.l.3.C m.h.        ",
"      n.7.V o.p.:.q.r.s.t.4.u.v.w.x.y.z.        ",
"      A.k.B.n.C.D.E.F.F.1 G.$.3.].H.I.J.        ",
"      A.K.L.].C.H H M.M.w.H.5.(.N._.O.P.        ",
"      -.Q.1 H C.H.R.6.R.S.w.-.N.T.T.s U.        ",
"      G.H ^.-.H w.w.s V.W.S.V.X.X.w.N.A.        ",
"      Y.s Z.E.s `. +R..+++@+#+$+S..+%+N.        ",
"      .+X.=.=.&+q *+=+-+;+#+V.>+#+S.W.++        ",
"      .+.+N.,+Z.'+)+!+~+b.Z.{+U.S.%+.+]+        ",
"      ;+S.;+.+| ^+/+~+(+_+}.}.P.#+#+V.:+        ",
"                                                ",
"                                                "};
