/* XPM */
static char * file_clone_24_xpm[] = {
"24 24 181 2",
"  	c None",
". 	c #0000FD",
"+ 	c #8E824A",
"@ 	c #8E864A",
"# 	c #92864E",
"$ 	c #928A4C",
"% 	c #8A8A4E",
"& 	c #867A42",
"* 	c #928252",
"= 	c #9E8E52",
"- 	c #9A8E52",
"; 	c #AA9A59",
"> 	c #A29656",
", 	c #A69658",
"' 	c #AE9E5A",
") 	c #BAA662",
"! 	c #B6A25C",
"~ 	c #B29E62",
"{ 	c #B6A664",
"] 	c #827E42",
"^ 	c #B2A25E",
"/ 	c #CAB66A",
"( 	c #8A7A46",
"_ 	c #867A4E",
": 	c #524222",
"< 	c #2A2A10",
"[ 	c #1E1E16",
"} 	c #625A3A",
"| 	c #B6A262",
"1 	c #5E6236",
"2 	c #5A5E32",
"3 	c #52562A",
"4 	c #86864A",
"5 	c #4E4E2E",
"6 	c #92764A",
"7 	c #F6D66E",
"8 	c #CA9A52",
"9 	c #322E12",
"0 	c #121A12",
"a 	c #928A5A",
"b 	c #BEAA62",
"c 	c #C6B66A",
"d 	c #BAAA62",
"e 	c #364626",
"f 	c #424E28",
"g 	c #3A4A22",
"h 	c #323E26",
"i 	c #262A1A",
"j 	c #A67E3A",
"k 	c #E2C262",
"l 	c #CA9242",
"m 	c #6E5A2A",
"n 	c #12160A",
"o 	c #3A3E26",
"p 	c #7A7A43",
"q 	c #9E9255",
"r 	c #CABA66",
"s 	c #C6B262",
"t 	c #32421F",
"u 	c #36421E",
"v 	c #363E1E",
"w 	c #1E2616",
"x 	c #866A36",
"y 	c #BA863A",
"z 	c #A28246",
"A 	c #7E6236",
"B 	c #161A0D",
"C 	c #222A10",
"D 	c #4E5A32",
"E 	c #565E2A",
"F 	c #223216",
"G 	c #3A4622",
"H 	c #363A1C",
"I 	c #9E7636",
"J 	c #BA8E4A",
"K 	c #D6A252",
"L 	c #564616",
"M 	c #121E10",
"N 	c #1A260E",
"O 	c #3A4E2E",
"P 	c #465632",
"Q 	c #6A7242",
"R 	c #5E6632",
"S 	c #4A5232",
"T 	c #323218",
"U 	c #4A3A22",
"V 	c #AE823E",
"W 	c #927236",
"X 	c #363214",
"Y 	c #1A1A0C",
"Z 	c #161E0D",
"` 	c #4A461E",
" .	c #1E2612",
"..	c #0E1A0E",
"+.	c #0E160D",
"@.	c #362E12",
"#.	c #26260A",
"$.	c #12160E",
"%.	c #3E4625",
"&.	c #3A3612",
"*.	c #5A5626",
"=.	c #524A18",
"-.	c #262A0F",
";.	c #0E120E",
">.	c #3E321A",
",.	c #8A6E36",
"'.	c #7E662E",
").	c #2E260A",
"!.	c #262E1A",
"~.	c #3A4226",
"{.	c #5E5626",
"].	c #565626",
"^.	c #52421D",
"/.	c #4A421A",
"(.	c #12120A",
"_.	c #E2B65A",
":.	c #EAB252",
"<.	c #EEB256",
"[.	c #5E421A",
"}.	c #2E2214",
"|.	c #1E1E0D",
"1.	c #525226",
"2.	c #726A2E",
"3.	c #5E3E14",
"4.	c #6A461E",
"5.	c #221E0E",
"6.	c #0A160E",
"7.	c #222E12",
"8.	c #CA9E4A",
"9.	c #F6CE6A",
"0.	c #4E4A26",
"a.	c #6E622E",
"b.	c #624A22",
"c.	c #564222",
"d.	c #BA964E",
"e.	c #E6CA66",
"f.	c #FAE67A",
"g.	c #CAAA52",
"h.	c #2A260A",
"i.	c #0A0E02",
"j.	c #060E06",
"k.	c #121206",
"l.	c #3E2E12",
"m.	c #3E3A16",
"n.	c #0E1206",
"o.	c #2E2E0A",
"p.	c #46421E",
"q.	c #0E120A",
"r.	c #3A2616",
"s.	c #121A0E",
"t.	c #1A220E",
"u.	c #0E0E06",
"v.	c #261E0E",
"w.	c #26220E",
"x.	c #1A1212",
"y.	c #0A1209",
"z.	c #060A02",
"A.	c #0A0E0A",
"B.	c #0A0E06",
"C.	c #664E1E",
"D.	c #020A02",
"E.	c #020A06",
"F.	c #060E10",
"G.	c #060A06",
"H.	c #060606",
"I.	c #020606",
"J.	c #060602",
"K.	c #0E0A06",
"L.	c #060E0A",
"M.	c #96622E",
"N.	c #422E1E",
"O.	c #060A0E",
"P.	c #020602",
"Q.	c #0A0A02",
"R.	c #16160A",
"S.	c #6E5226",
"T.	c #AE7232",
"U.	c #B27236",
"V.	c #825A2E",
"W.	c #322A0A",
"X.	c #16120C",
"                                                ",
"  . . . . . . . . . . . . . . . . .             ",
"  . + @ # @ + $ % & * = = - = ; > .             ",
"  . > ; > , , . . . . . . . . . . . . . . . . . ",
"  . ' ) ! ~ { . + @ # @ + $ % & * = = - = ; > . ",
"  . ] ; ^ / ( . > ; > , , _ : < [ } ~ ; | { ~ . ",
"  . 1 2 3 4 5 . ' ) ! ~ { 6 7 8 9 0 a ) b c d . ",
"  . e f g h i . ] ; ^ / ( j k l m n o p q r s . ",
"  . t u h v w . 1 2 3 4 5 x y z A B C D E s ' . ",
"  . F u G 3 H . e f g h i I J K L M N O P Q R . ",
"  . h f g S T . t u h v w U V W X Y Z e e O O . ",
"  . H ` H  .... F u G 3 H +.U @.#.$.B e G t %.. ",
"  . &.*.=.-.#.. h f g S T ;.>.,.'.).B !.~.{.].. ",
"  . ^.L /.(.>.. H ` H  ...^._.:.<.[.}.|.1.2.].. ",
"  . 3.4.5.6.7.. &.*.=.-.#.8.9.9.:.3.^.0.|.5 a.. ",
"  . b.c.$.6.B . ^.L /.(.>.d.e.f.g.` h.i.j.k.l.. ",
"  . m.< B 6.n.. 3.4.5.6.7.o.p.p.< q.w |.$.n.r.. ",
"  . B s.Y B j.. b.c.$.6.B B t.t.j.n. .T u.;.v.. ",
"  . n w.o.n x.. m.< B 6.n.y...y.z.j.Y u.A.A.n . ",
"  . B.X X C.l . B s.Y B j.j.n D.E.z.D.B.B.j.u.. ",
"  . . . . . . . n w.o.n x.F.y.G.H.I.J.K.z.G.L.. ",
"              . B.X X C.l M.N.O.P.J.D.Q.J.z.E.. ",
"              . G.u.R.w.S.T.U.V.}.w.W.X.z.L.G.. ",
"              . . . . . . . . . . . . . . . . . "};
