/* XPM */
static const char * move_pic_xpm[] = {
"37 36 9 1",
"   c None",
".	c #204A87",
"+	c #729FCF",
"@	c #4C7CB5",
"#	c #5383BA",
"$	c #5988BE",
"%	c #6291C4",
"&	c #ADB0B5",
"*	c #ACAFB5",
"                                     ",
"                                     ",
"                                     ",
"                                     ",
"                                     ",
"                                     ",
"                                     ",
"                                     ",
"                                     ",
"                  .                  ",
"                 .+.                 ",
"                .+@+.                ",
"               .+@@@+.               ",
"               ...#...               ",
"                 .$.                 ",
"            ..   .%.   ..            ",
"           .+.   .+.   .+.           ",
"          .+@.....+.....@+.          ",
"         .+@@#$%+++++%$#@@+.         ",
"          .+@.....+.....@+.          ",
"           .+.   .+.   .+            ",
"            ..   .%.   ..            ",
"                 .$.                 ",
"               ...#...               ",
"               .+@@@+.               ",
"                .+@+.                ",
"                 .+.                 ",
"                  .                  ",
"                                     ",
"                                     ",
"                                     ",
"                                     ",
"                                     ",
"                                     ",
"                                     ",
"                                     "};
