<?xml version="1.0" encoding="UTF-8" standalone="no"?>
<svg
   width="30"
   height="20"
   viewBox="0 0 30 20"
   fill="none"
   version="1.1"
   id="svg4"
   sodipodi:docname="NDI.svg"
   inkscape:version="1.3 (0e150ed6c4, 2023-07-21)"
   xmlns:inkscape="http://www.inkscape.org/namespaces/inkscape"
   xmlns:sodipodi="http://sodipodi.sourceforge.net/DTD/sodipodi-0.dtd"
   xmlns="http://www.w3.org/2000/svg"
   xmlns:svg="http://www.w3.org/2000/svg">
  <defs
     id="defs4" />
  <sodipodi:namedview
     id="namedview4"
     pagecolor="#ffffff"
     bordercolor="#000000"
     borderopacity="0.25"
     inkscape:showpageshadow="2"
     inkscape:pageopacity="0.0"
     inkscape:pagecheckerboard="0"
     inkscape:deskcolor="#d1d1d1"
     inkscape:zoom="15.530622"
     inkscape:cx="24.693151"
     inkscape:cy="1.191195"
     inkscape:window-width="1920"
     inkscape:window-height="1009"
     inkscape:window-x="-8"
     inkscape:window-y="-8"
     inkscape:window-maximized="1"
     inkscape:current-layer="svg4" />
  <path
     d="M 1.8542235,4.6808107 V 16.738199 h 2.9609359 v -5.094457 c 0,-0.319385 0.1920547,-0.542977 0.4961663,-0.542977 0.2560912,0 0.4321298,0.143732 0.7202346,0.590915 l 3.1850593,5.046519 H 12.449644 V 4.6808107 H 9.4887084 v 5.1583198 c 0,0.3194215 -0.1921004,0.5429675 -0.4961663,0.5429675 -0.256082,0 -0.4321756,-0.143722 -0.7202346,-0.5908689 L 5.0872574,4.6808107 Z"
     fill="#f1f1f1"
     id="path1"
     style="stroke-width:0.0435004" />
  <path
     d="m 24.169431,10.70152 c 0,-3.3217777 -2.800904,-6.0207093 -6.226039,-6.0207093 H 13.173839 V 16.738199 h 4.769553 c 3.441142,0 6.226039,-2.714901 6.226039,-6.036679 z m -3.040979,-0.01595 c 0,1.932373 -1.424463,3.337739 -3.377114,3.337739 h -1.229575 c -0.213718,0 -0.386942,-0.172876 -0.386942,-0.386071 V 7.7817836 c 0,-0.2131954 0.173224,-0.386062 0.386942,-0.386062 h 1.229575 c 1.952651,0 3.377114,1.405366 3.377114,3.2898464 z"
     fill="#f1f1f1"
     id="path2"
     style="stroke-width:0.0435004" />
  <path
     d="M 24.811923,4.6808107 V 16.738199 h 2.960991 V 4.6808107 Z"
     fill="#f1f1f1"
     id="path3"
     style="stroke-width:0.0435004" />
  <path
     d="m 28.990919,15.558249 c -0.342561,0 -0.609002,0.258823 -0.609002,0.588733 0,0.332385 0.266441,0.591217 0.609002,0.591217 0.342571,0 0.609003,-0.258832 0.609003,-0.591217 0,-0.32991 -0.266432,-0.588733 -0.609003,-0.588733 z m 0,0.09897 c 0.279102,0 0.49734,0.213149 0.49734,0.489767 0,0.276572 -0.218238,0.492252 -0.49734,0.492252 -0.279138,0 -0.497385,-0.21568 -0.497385,-0.492252 0,-0.276618 0.218247,-0.489767 0.497385,-0.489767 z m 0.246126,0.362877 c 0,-0.109096 -0.09131,-0.187792 -0.218237,-0.187792 H 28.79043 v 0.631839 h 0.114184 v -0.256256 l 0.20302,0.256256 h 0.131932 L 29.0797,16.266221 c -0.01009,-0.01265 -0.01522,-0.02787 -0.01522,-0.04061 0,-0.02035 0.01018,-0.03557 0.033,-0.04061 h 0.0027 c 0.0837,-0.02035 0.13703,-0.0837 0.13703,-0.164954 z m -0.119281,0.0055 c 0,0.05583 -0.04061,0.08874 -0.104008,0.08874 h -0.109142 v -0.180137 h 0.109142 c 0.06344,0 0.104008,0.03548 0.104008,0.09131 z"
     fill="#f1f1f1"
     id="path4"
     style="stroke-width:0.0435004" />
</svg>
