<?xml version="1.0" encoding="UTF-8" standalone="no"?>
<svg
   version="1.1"
   width="25"
   height="25"
   viewBox="0 0 25 25"
   xml:space="preserve"
   id="svg14"
   sodipodi:docname="NewFolder.svg"
   inkscape:version="1.1.2 (0a00cf5339, 2022-02-04)"
   xmlns:inkscape="http://www.inkscape.org/namespaces/inkscape"
   xmlns:sodipodi="http://sodipodi.sourceforge.net/DTD/sodipodi-0.dtd"
   xmlns="http://www.w3.org/2000/svg"
   xmlns:svg="http://www.w3.org/2000/svg"><sodipodi:namedview
   id="namedview16"
   pagecolor="#ffffff"
   bordercolor="#666666"
   borderopacity="1.0"
   inkscape:pageshadow="2"
   inkscape:pageopacity="0.0"
   inkscape:pagecheckerboard="0"
   showgrid="false"
   width="25px"
   inkscape:zoom="24.75"
   inkscape:cx="8.6262626"
   inkscape:cy="12.343434"
   inkscape:window-width="1613"
   inkscape:window-height="814"
   inkscape:window-x="276"
   inkscape:window-y="192"
   inkscape:window-maximized="0"
   inkscape:current-layer="g12" />

<defs
   id="defs2">
</defs>
<g
   style="opacity:1;fill:none;fill-rule:nonzero;stroke:none;stroke-width:0;stroke-linecap:butt;stroke-linejoin:miter;stroke-miterlimit:10;stroke-dasharray:none"
   transform="matrix(0.26196589,0,0,0.26196589,0.75956649,0.16864556)"
   id="g12">
	<path
   d="M 0.625,76.898 C 0.232,76.35 0,75.678 0,74.952 v -7.077 0 -45.253 c 0,-1.605 1.301,-2.907 2.907,-2.907 h 2.195 c 2.212,0 4.005,-1.793 4.005,-4.005 v 0 c 0,-2.212 1.793,-4.005 4.005,-4.005 h 22.78 c 1.494,0 2.864,0.831 3.553,2.157 l 1.924,3.698 c 0.69,1.325 2.059,2.157 3.553,2.157 h 26.374 c 1.605,0 2.907,1.301 2.907,2.907 v 16.644 z"
   style="opacity:1;fill:#e8a113;fill-rule:nonzero;stroke:none;stroke-width:1;stroke-linecap:butt;stroke-linejoin:miter;stroke-miterlimit:10;stroke-dasharray:none"
   stroke-linecap="round"
   id="path4" />
	<path
   d="m 63.873,35.394 v -6.925 c 0,-2.116 -1.715,-3.831 -3.831,-3.831 H 11.11 c -2.116,0 -3.831,1.715 -3.831,3.831 v 36.624 z"
   style="opacity:1;fill:#e1e7f2;fill-rule:nonzero;stroke:none;stroke-width:1;stroke-linecap:butt;stroke-linejoin:miter;stroke-miterlimit:10;stroke-dasharray:none;fill-opacity:1"
   stroke-linecap="round"
   id="path6" />
	<path
   d="m 67.873,39.394 v -6.925 c 0,-2.116 -1.715,-3.831 -3.831,-3.831 H 15.11 c -2.116,0 -3.831,1.715 -3.831,3.831 v 26.624 z"
   style="opacity:1;fill:#f0f4fa;fill-rule:nonzero;stroke:none;stroke-width:1;stroke-linecap:butt;stroke-linejoin:miter;stroke-miterlimit:10;stroke-dasharray:none;fill-opacity:1"
   stroke-linecap="round"
   id="path8" />
	<path
   d="m 16.438,41.635 c 0.646,-1.441 2.079,-2.369 3.658,-2.369 H 86.86 c 2.274,0 3.792,2.344 2.862,4.419 L 75.492,75.42 c -0.784,1.749 -2.522,2.875 -4.439,2.875 H 10.421 3.344 c -1.121,0 -2.112,-0.551 -2.719,-1.397 L 0.628,76.896 8.75,58.781 16.438,41.635"
   style="opacity:1;fill:#ffd882;fill-rule:nonzero;stroke:none;stroke-width:1;stroke-linecap:butt;stroke-linejoin:miter;stroke-miterlimit:10;stroke-dasharray:none;fill-opacity:1"
   stroke-linecap="round"
   id="path10" />
</g>
</svg>
