<?xml version="1.0" encoding="UTF-8" standalone="no"?>
<svg
   version="1.1"
   id="Layer_1"
   x="0px"
   y="0px"
   viewBox="0 0 122.00019 122.00019"
   xml:space="preserve"
   sodipodi:docname="Playlist.svg"
   width="24"
   height="24"
   inkscape:version="1.3 (0e150ed6c4, 2023-07-21)"
   xmlns:inkscape="http://www.inkscape.org/namespaces/inkscape"
   xmlns:sodipodi="http://sodipodi.sourceforge.net/DTD/sodipodi-0.dtd"
   xmlns="http://www.w3.org/2000/svg"
   xmlns:svg="http://www.w3.org/2000/svg"><defs
     id="defs1" /><sodipodi:namedview
     id="namedview1"
     pagecolor="#ffffff"
     bordercolor="#000000"
     borderopacity="0.24705882"
     inkscape:showpageshadow="2"
     inkscape:pageopacity="0.0"
     inkscape:pagecheckerboard="true"
     inkscape:deskcolor="#d1d1d1"
     inkscape:zoom="18.713471"
     inkscape:cx="26.10419"
     inkscape:cy="8.416397"
     inkscape:window-width="1920"
     inkscape:window-height="1009"
     inkscape:window-x="-8"
     inkscape:window-y="-8"
     inkscape:window-maximized="1"
     inkscape:current-layer="Layer_1"
     showguides="true" /><style
     type="text/css"
     id="style1">.st0{fill-rule:evenodd;clip-rule:evenodd;}</style><g
     id="g1"
     style="fill:#0f0f0f;fill-opacity:1"
     transform="matrix(0.7300991,0,0,0.73251521,9.5287489,6.9957567)"><path
       class="st0"
       d="m 39.128634,9.824354 h 61.649996 c 3.43,0 6.23,2.81 6.23,6.23 v 6.47 H 32.898634 v -6.47 c 0,-3.43 2.8,-6.23 6.23,-6.23 z m -18.83,38.38 h 99.319996 c 6.18,0 11.23,5.05 11.23,11.23 v 62.039996 c 0,6.18 -5.05,11.23 -11.23,11.23 H 20.298634 c -6.18,0 -11.2299995,-5.05 -11.2299995,-11.23 V 59.434354 c 0,-6.18 5.0499995,-11.23 11.2299995,-11.23 z m 42.88,20 27.29,19.03 c 0.45,0.29 0.86,0.67 1.18,1.13 1.28,1.85 0.81,4.39 -1.04,5.67 l -27.17,18.789996 c -0.7,0.58 -1.6,0.92 -2.59,0.92 -2.26,0 -4.09,-1.83 -4.09,-4.09 V 71.544354 h 0.02 c 0,-0.81 0.24,-1.62 0.73,-2.33 1.29,-1.85 3.83,-2.3 5.67,-1.01 z m -35.97,-39.57 h 85.489996 c 3.43,0 6.23,2.81 6.23,6.23 v 6.72 H 20.978634 v -6.72 c 0,-3.43 2.8,-6.23 6.23,-6.23 z"
       id="path1"
       style="display:inline;fill:#f2f2f2;fill-opacity:1" /></g></svg>
