<?xml version="1.0" encoding="UTF-8"?>
<svg xmlns="http://www.w3.org/2000/svg" xmlns:xlink="http://www.w3.org/1999/xlink" width="14px" height="18px" viewBox="0 0 20 24" version="1.1">
<defs>
<linearGradient id="linear0" gradientUnits="userSpaceOnUse" x1="26.648937" y1="20.603781" x2="135.66525" y2="114.39767" gradientTransform="matrix(0.108181,0,0,0.108185,-2.882908,-2.229023)">
<stop offset="0" style="stop-color:rgb(35.294118%,62.352941%,83.137255%);stop-opacity:1;"/>
<stop offset="1" style="stop-color:rgb(18.823529%,41.176471%,59.607843%);stop-opacity:1;"/>
</linearGradient>
<linearGradient id="linear1" gradientUnits="userSpaceOnUse" x1="150.96111" y1="192.35176" x2="112.03144" y2="137.27299" gradientTransform="matrix(0.108181,0,0,0.108185,-2.882908,-2.229023)">
<stop offset="0" style="stop-color:rgb(100%,83.137255%,23.137255%);stop-opacity:1;"/>
<stop offset="1" style="stop-color:rgb(100%,90.980392%,45.098039%);stop-opacity:1;"/>
</linearGradient>
<filter id="alpha" filterUnits="objectBoundingBox" x="0%" y="0%" width="100%" height="100%">
  <feColorMatrix type="matrix" in="SourceGraphic" values="0 0 0 0 1 0 0 0 0 1 0 0 0 0 1 0 0 0 1 0"/>
</filter>
<mask id="mask0">
  <g filter="url(#alpha)">
<rect x="0" y="0" width="20" height="24" style="fill:rgb(0%,0%,0%);fill-opacity:0.443137;stroke:none;"/>
  </g>
</mask>
<radialGradient id="radial0" gradientUnits="userSpaceOnUse" cx="61.518883" cy="132.28575" fx="61.518883" fy="132.28575" r="29.036913" gradientTransform="matrix(0.00000000336357,-0.0457042,0.202821,0.0000000722199,-16.096308,27.135621)">
<stop offset="0" style="stop-color:rgb(72.156863%,72.156863%,72.156863%);stop-opacity:0.498039;"/>
<stop offset="1" style="stop-color:rgb(49.803922%,49.803922%,49.803922%);stop-opacity:0;"/>
</radialGradient>
<clipPath id="clip1">
  <rect x="0" y="0" width="20" height="24"/>
</clipPath>
<g id="surface5" clip-path="url(#clip1)">
<path style=" stroke:none;fill-rule:nonzero;fill:url(#radial0);" d="M 17.644531 24.324219 C 17.644531 23.589844 14.550781 22.996094 10.734375 22.996094 C 6.917969 22.996094 3.824219 23.589844 3.824219 24.324219 C 3.824219 25.058594 6.917969 25.652344 10.734375 25.652344 C 14.550781 25.652344 17.644531 25.058594 17.644531 24.324219 Z M 17.644531 24.324219 "/>
</g>
</defs>
<g id="surface1">
<path style=" stroke:none;fill-rule:nonzero;fill:url(#linear0);" d="M 10.5625 0 C 9.679688 0.00390625 8.839844 0.078125 8.097656 0.207031 C 5.914062 0.589844 5.519531 1.390625 5.519531 2.863281 L 5.519531 4.808594 L 10.675781 4.808594 L 10.675781 5.457031 L 3.585938 5.457031 C 2.085938 5.457031 0.773438 6.351562 0.363281 8.046875 C -0.109375 9.992188 -0.132812 11.207031 0.363281 13.238281 C 0.730469 14.75 1.605469 15.828125 3.101562 15.828125 L 4.875 15.828125 L 4.875 13.496094 C 4.875 11.808594 6.347656 10.320312 8.097656 10.320312 L 13.246094 10.320312 C 14.679688 10.320312 15.824219 9.152344 15.824219 7.726562 L 15.824219 2.863281 C 15.824219 1.480469 14.648438 0.441406 13.246094 0.207031 C 12.363281 0.0625 11.441406 -0.00390625 10.5625 0 Z M 7.773438 1.566406 C 8.304688 1.566406 8.742188 2.003906 8.742188 2.542969 C 8.742188 3.078125 8.304688 3.511719 7.773438 3.511719 C 7.238281 3.511719 6.804688 3.078125 6.804688 2.542969 C 6.804688 2.003906 7.238281 1.566406 7.773438 1.566406 Z M 7.773438 1.566406 "/>
<path style=" stroke:none;fill-rule:nonzero;fill:url(#linear1);" d="M 16.46875 5.457031 L 16.46875 7.726562 C 16.46875 9.484375 14.964844 10.964844 13.246094 10.964844 L 8.097656 10.964844 C 6.6875 10.964844 5.519531 12.160156 5.519531 13.558594 L 5.519531 18.421875 C 5.519531 19.808594 6.734375 20.621094 8.097656 21.019531 C 9.730469 21.492188 11.292969 21.578125 13.246094 21.019531 C 14.546875 20.644531 15.824219 19.898438 15.824219 18.421875 L 15.824219 16.476562 L 10.675781 16.476562 L 10.675781 15.828125 L 18.402344 15.828125 C 19.902344 15.828125 20.460938 14.792969 20.980469 13.238281 C 21.519531 11.636719 21.496094 10.101562 20.980469 8.046875 C 20.613281 6.570312 19.90625 5.457031 18.402344 5.457031 Z M 13.570312 17.773438 C 14.105469 17.773438 14.539062 18.207031 14.539062 18.746094 C 14.539062 19.28125 14.105469 19.71875 13.570312 19.71875 C 13.039062 19.71875 12.605469 19.28125 12.605469 18.746094 C 12.605469 18.207031 13.039062 17.773438 13.570312 17.773438 Z M 13.570312 17.773438 "/>
<use xlink:href="#surface5" mask="url(#mask0)"/>
</g>
</svg>
