/* XPM */
static const char * reel_new_24_xpm[] = {
"24 24 108 2",
"  	c None",
". 	c #000000",
"+ 	c #181821",
"@ 	c #303043",
"# 	c #606086",
"$ 	c #20202C",
"% 	c #101016",
"& 	c #606085",
"* 	c #404059",
"= 	c #08080B",
"- 	c #484864",
"; 	c #20202D",
"> 	c #686891",
", 	c #50506F",
"' 	c #5C5C80",
") 	c #292939",
"! 	c #7D7DAF",
"~ 	c #2D2D3E",
"{ 	c #09090C",
"] 	c #37373E",
"^ 	c #282830",
"/ 	c #66668F",
"( 	c #323246",
"_ 	c #1B1B26",
": 	c #111118",
"< 	c #030304",
"[ 	c #010101",
"} 	c #040405",
"| 	c #0A0A0F",
"1 	c #15151D",
"2 	c #1D1D28",
"3 	c #3C3C54",
"4 	c #7575A3",
"5 	c #73738C",
"6 	c #79799F",
"7 	c #8080B2",
"8 	c #B1AB00",
"9 	c #E0D800",
"0 	c #D7CF00",
"a 	c #7E7EB0",
"b 	c #535374",
"c 	c #D0C800",
"d 	c #CDC600",
"e 	c #4C4C69",
"f 	c #EBE312",
"g 	c #8D8B8F",
"h 	c #66668E",
"i 	c #5E5E83",
"j 	c #D2CB0F",
"k 	c #6D6D92",
"l 	c #6D6D98",
"m 	c #4D4C3F",
"n 	c #FDF401",
"o 	c #434100",
"p 	c #7E7900",
"q 	c #1F1F2C",
"r 	c #726E00",
"s 	c #393950",
"t 	c #565678",
"u 	c #43435D",
"v 	c #CEC942",
"w 	c #959143",
"x 	c #060609",
"y 	c #101008",
"z 	c #3D3C1B",
"A 	c #0B0B10",
"B 	c #434108",
"C 	c #0E0E00",
"D 	c #BBB400",
"E 	c #605C00",
"F 	c #989300",
"G 	c #EFE601",
"H 	c #A8A452",
"I 	c #0E0E14",
"J 	c #9F9A1F",
"K 	c #353300",
"L 	c #DCD400",
"M 	c #F9F000",
"N 	c #AFA900",
"O 	c #413F05",
"P 	c #7A7725",
"Q 	c #B6B127",
"R 	c #0F0F15",
"S 	c #DCD509",
"T 	c #ABA500",
"U 	c #767100",
"V 	c #716D00",
"W 	c #191800",
"X 	c #8D8912",
"Y 	c #404054",
"Z 	c #8D8804",
"` 	c #2B2A2E",
" .	c #DFD700",
"..	c #2B2A00",
"+.	c #373500",
"@.	c #787300",
"#.	c #B1AC2B",
"$.	c #272737",
"%.	c #4A4812",
"&.	c #585500",
"*.	c #2C2B00",
"=.	c #6F6C16",
"-.	c #0C0C10",
";.	c #0D0C02",
">.	c #E1D900",
",.	c #060600",
"'.	c #2A2900",
").	c #706C00",
"                                                ",
"                                                ",
"                                                ",
"                    . . + . .                   ",
"            . . @ . . . # . . . $ % .           ",
"          . . . + & @ . + . . & * = . .         ",
"        % $ $ $ $ . @ + . . - . % $ $ $ =       ",
"      . ; * * * * . . . . . . . ; * * * % .     ",
"      . . . . . . + @ . . . - . . . . . . . .   ",
"        . . . % > - . . & . . > , = . . . ' *   ",
"      . . . . ; * . . . # . . % * % . . ) ! *   ",
"      . ~ @ . . . . . . # . . . . . { ] ^ ; %   ",
"        @ # / ( _ : { < [ } | 1 2 3 4 5 6 7 *   ",
"  8 9   . . 0 a b 8 8 8 c d e f g h i j k l m n ",
"  . o     . p q . r s s t u 3 v w x y n z A B n ",
"  C . D     p   . n . . . . . E F . . G H I J   ",
"  C   K     p   . 8 8 8 L M .   N . O P Q R S   ",
"  C   . T   p   . U . .     .   V W X Y Z `  .  ",
"  C     ..  p   . n           . +.@.#.$.%.&.n   ",
"  C     . *.p   . n           . . n =.-.;.>.    ",
"  C       ,.p   . '.'.'.).n   . . n   . . n     ",
"                                                ",
"                                                ",
"                                                "};


