/* XPM */
static char * reel_save_24_xpm[] = {
"24 24 72 1",
" 	c None",
".	c #000000",
"+	c #181821",
"@	c #303043",
"#	c #606086",
"$	c #20202C",
"%	c #101016",
"&	c #606085",
"*	c #404059",
"=	c #08080B",
"-	c #484864",
";	c #20202D",
">	c #303030",
",	c #242424",
"'	c #666682",
")	c #656581",
"!	c #1D1D1D",
"~	c #7E7E86",
"{	c #1B1B11",
"]	c #686891",
"^	c #50506F",
"/	c #5C5C80",
"(	c #DAD886",
"_	c #757575",
":	c #C2C2C2",
"<	c #8F8F8F",
"[	c #777777",
"}	c #A7995A",
"|	c #1D170B",
"1	c #292939",
"2	c #7D7DAF",
"3	c #767676",
"4	c #E0C771",
"5	c #3A2E17",
"6	c #09090C",
"7	c #37373E",
"8	c #282830",
"9	c #433624",
"0	c #15151D",
"a	c #1D1D28",
"b	c #3C3C54",
"c	c #7575A3",
"d	c #73738C",
"e	c #79799F",
"f	c #8080B2",
"g	c #696969",
"h	c #6A6A6A",
"i	c #7C6F73",
"j	c #6A6A94",
"k	c #7979A9",
"l	c #7F7FB1",
"m	c #70709C",
"n	c #3A3A46",
"o	c #6D6D92",
"p	c #BAB97B",
"q	c #9A8E9C",
"r	c #DAD89B",
"s	c #47381C",
"t	c #1A1A24",
"u	c #DADADA",
"v	c #2B2B3B",
"w	c #C4C4C4",
"x	c #838383",
"y	c #CCCCCC",
"z	c #A0A0A0",
"A	c #D3D3D3",
"B	c #BDBDBD",
"C	c #DADAC5",
"D	c #DAD9C5",
"E	c #9B9A71",
"F	c #CFBC71",
"G	c #E4BF67",
"                        ",
"                        ",
"                        ",
"          ..+..         ",
"      ..@...#...$%.     ",
"     ...+&@.+..&*=..    ",
"    %$$$$.@+..-.%$$$=   ",
"   .;****.......;***%.  ",
"   ......+@...-........ ",
"    >>>,')>!~{.]^=.../* ",
" ((_:::<[_:_(}|%*%..12* ",
" ((3:::<[3:3(45...678;% ",
" ((_:::<[_:_(490abcdef* ",
" ((g<<<3hg<g(4ijklmnof* ",
" ((ppppppppp(4qf^;+.+;% ",
" ((rrrrrrrrr(4s..  t]f* ",
" ((uuuuuuuuu(4    t*mmv ",
" ((wxxxxxxxw(4   .]m@#. ",
" ((uuuuuuuuu(4   .]f].  ",
" ((yzzzzzzzy(4    t*t   ",
" ((ABBBBBBBA(4          ",
" ((CCDCCDCCD(4          ",
" EF4444444444G          ",
"                        "};
