/* XPM */
static char * reel_new_xpm[] = {
"32 32 102 2",
"  	c #FFFFFF",
". 	c #000000",
"+ 	c #8080B2",
"@ 	c #43435D",
"# 	c #7979A9",
"$ 	c #6E6E99",
"% 	c #7777A6",
"& 	c #2E2E40",
"* 	c #666666",
"= 	c #6C6C97",
"- 	c #323246",
"; 	c #7C7CAD",
"> 	c #696993",
", 	c #4D4D6C",
"' 	c #303043",
") 	c #181821",
"! 	c #070709",
"~ 	c #010101",
"{ 	c #525252",
"] 	c #1F1F1F",
"^ 	c #D8D8D8",
"/ 	c #373737",
"( 	c #6D6D97",
"_ 	c #101016",
": 	c #FDF401",
"< 	c #ACA601",
"[ 	c #1E1E1E",
"} 	c #C8C8C8",
"| 	c #FDF520",
"1 	c #767550",
"2 	c #999999",
"3 	c #F6EF30",
"4 	c #939198",
"5 	c #E8E00E",
"6 	c #303042",
"7 	c #DFD701",
"8 	c #B2B17C",
"9 	c #3F3F3F",
"0 	c #FEF85F",
"a 	c #C4C05F",
"b 	c #5A5A5A",
"c 	c #FFFEDD",
"d 	c #35330B",
"e 	c #909090",
"f 	c #605D00",
"g 	c #B1AC1A",
"h 	c #4F4F6E",
"i 	c #FDF63F",
"j 	c #2C2C2C",
"k 	c #B4B4B4",
"l 	c #FEFB9E",
"m 	c #F2EC4F",
"n 	c #1B1B1B",
"o 	c #FEFB9F",
"p 	c #F5EC06",
"q 	c #BAB64D",
"r 	c #4B4B4B",
"s 	c #FEF864",
"t 	c #020200",
"u 	c #FDF62D",
"v 	c #C9C67F",
"w 	c #2D2D2D",
"x 	c #FDF51C",
"y 	c #1D1D1D",
"z 	c #F1EB53",
"A 	c #928E1B",
"B 	c #FCF54A",
"C 	c #F9F224",
"D 	c #3B3A1A",
"E 	c #FEFCB3",
"F 	c #FDF62E",
"G 	c #3F3F3E",
"H 	c #FDF51E",
"I 	c #727150",
"J 	c #E4DD1B",
"K 	c #5B5A54",
"L 	c #65654D",
"M 	c #EDE50E",
"N 	c #5D5D5D",
"O 	c #FDF73F",
"P 	c #DBD87C",
"Q 	c #FEF85D",
"R 	c #CCC74F",
"S 	c #ADA706",
"T 	c #9F9F9F",
"U 	c #FEF856",
"V 	c #D2CD48",
"W 	c #A49F04",
"X 	c #9C9C9C",
"Y 	c #FFFDC7",
"Z 	c #FDF51F",
"` 	c #FEFB9C",
" .	c #FBF210",
"..	c #5F5C00",
"+.	c #E6E6E6",
"@.	c #FCF30A",
"#.	c #625F00",
"$.	c #DCDCDC",
"%.	c #FEF853",
"&.	c #FFFDDB",
"*.	c #FFFEE6",
"=.	c #FFFDDC",
"                                                                ",
"                                                                ",
"                                                                ",
"                                                                ",
"                          . . . . . . .                         ",
"                  . . . . . . . + . . . . . . .                 ",
"              . . . . + . . . . + . . . . . + . . .             ",
"            . . . . . . + + . . . . . . + + . . . . .           ",
"          . . . . . . . . . + . . . . + . . . . . . . .         ",
"          . + + + + + + . . . . . . . . . . + + + + + .         ",
"        . . . . . . . . . . . . . . . . . . . . . . . . . .     ",
"        . . . . . . . . . + . . . . . + . . . . . . . . . .     ",
"          . . . . . . + + . . . + . . . + + . . . . . . @ + .   ",
"          . . . . . + + . . . . + . . . . + + . . . . . # + .   ",
"        . . . . . . . . . . . . + . . . . . . . . . . $ + + .   ",
"        . . % & . . . . . . . . + . . . . . . . . & * . . . .   ",
"          . + + = - . . . . . . . . . . . . . - = + * + + + .   ",
"          . . . + + ; > , ' ) ! ~ ! ) ' , > ; + + + * + + + .   ",
"            . . . + + + + + + + + + + + + + + + + . . + + + .   ",
"              . . . . . + + + + + + + + + + . . . . . . . . .   ",
"                    . . . . . . . . . . . . .       . + + + .   ",
"                            . . . . .             . + + + + .   ",
"                                                . + . + + .     ",
"        . {       .     . . . . .   ] ^     / . + ( _ . + .     ",
"      : < [ }   : .   : : : : :   | 1 2   3 . . 4 5 6 + .       ",
"      : 7 8 9   : .   : .         0 a b c : d e f g h .         ",
"      : f i j k : .   : . . . . . l m n o p q r s f .           ",
"      : t u v w : .   : : : : :   c x y z A B y C D             ",
"      : . E F G : .   : .           H I J K H L M N             ",
"      : .   O P : .   : .           Q R S T U V W X             ",
"      : .   Y Z : .   : . . . . .   `  ...+.l @.#.$.            ",
"      :       %.:     : : : : :     &.: *.  *.: =.              "};
