/* XPM */

static const char * scrub_xpm[] = {
"28 28 40 1",
"   c None",
".	c #FFFFFF",
"+	c #CACACA",
"@	c #EFEFEF",
"#	c #EBEBEB",
"$	c #A5A5A5",
"%	c #161616",
"&	c #2A2A2A",
"*	c #262626",
"=	c #5C5C5C",
"-	c #7D7D7D",
";	c #DCDCDC",
">	c #D9D9D9",
",	c #222222",
"'	c #F6F6F6",
")	c #323232",
"!	c #CDCDCD",
"~	c #B4B4B4",
"{	c #E3E3E3",
"]	c #D2D2D2",
"^	c #F8F8F8",
"/	c #2E2E2E",
"(	c #DFDFDF",
"_	c #E7E7E7",
":	c #E9E9E9",
"<	c #F2F2F2",
"[	c #F7F7F7",
"}	c #FBFBFB",
"|	c #6D6D6D",
"1	c #CBCBCB",
"2	c #F1F1F1",
"3	c #E2E2E2",
"4	c #717171",
"5	c #4F4F4F",
"6	c #555555",
"7	c #8D8D8D",
"8	c #9C9C9C",
"9	c #AAAAAA",
"0	c #353535",
"a	c #757474",
"                            ",
"                            ",
"                            ",
"                            ",
"                            ",
"                            ",
"                            ",
"                            ",
"          .+@@@@@#$%        ",
"         ..+& *=-;.>,       ",
"        ..'&     );.!       ",
"        .~{       )]^/      ",
"     (____:@@@@<[[[[}..|    ",
"    1..................~    ",
"    2..................3    ",
"   4....................5   ",
"   6..7.7.7.8.8.8.8.8.9.0   ",
"    .  . . . . . . . . .    ",
"    .  . . .  . . . . . .   ",
"    .  . . .  . . . . . .   ",
"     aaaaa         aaaaaaaa ",
"     aaaaaaa         aaaa   ",
"       aa  a          aa    ",
"                            ",
"                            ",
"                            ",
"                            ",
"                            "};
