/* XPM */
static char * select_xpm[] = {
"27 28 21 1",
" 	c None",
".	c #000000",
"+	c #FFFFFF",
"@	c #ADA7A5",
"#	c #BABDB6",
"$	c #A29D9A",
"%	c #979390",
"&	c #908B89",
"*	c #898583",
"=	c #84807E",
"-	c #837F7D",
";	c #827E7C",
">	c #8B8684",
",	c #979290",
"'	c #A19C9A",
")	c #AEA9A6",
"!	c #ACA6A4",
"~	c #A8A3A0",
"{	c #A7A19F",
"]	c #A9A4A1",
"^	c #AAA4A2",
"                           ",
"                           ",
"                           ",
"                           ",
"                           ",
"                           ",
"                           ",
"     . . . . . . . . .     ",
"      +++++++++++++++      ",
"     .+             +.     ",
"      +             +      ",
"     .+             +.     ",
"      +             +      ",
"     .+             +.     ",
"      +             +      ",
"     .+             +.     ",
"      +             +      ",
"     .+             +.     ",
"    @ +++++++++++++++      ",
"     .#.#.#.#.#.#.#.#.     ",
"      $%&*=-=--;=>&,')     ",
"         !~{~~]~^@         ",
"                           ",
"                           ",
"                           ",
"                           ",
"                           ",
"                           "};
