/* XPM */
static char *dummy[]={
"24 24 131 2",
"#u c #010101",
".b c #020202",
".c c #030303",
".o c #040404",
".a c #050505",
".7 c #060606",
".Y c #070707",
"#s c #080808",
".p c #090909",
".j c #0a0a0a",
".d c #0b0b0b",
".z c #0c0c0c",
".# c #0d0d0d",
"Qt c None   ",
".P c #0f0f0f",
".s c #101010",
".y c #121212",
"#a c #141414",
".t c #151515",
".e c #161616",
"aa c #171717",
".8 c #181818",
".w c #191919",
"#i c #1a1a1a",
".4 c #1c1c1c",
".L c #1d1d1d",
"#p c #1e1e1e",
"## c #212121",
".3 c #222222",
".X c #232323",
"#G c #242424",
"#g c #252525",
".x c #2a2a2a",
"#E c #2b2b2b",
".i c #2c2c2c",
"#Y c #2d2d2d",
"#n c #2e2e2e",
"#w c #2f2f2f",
"#8 c #303030",
"#K c #343434",
".q c #353535",
"#U c #363636",
"#5 c #373737",
".H c #393939",
"#Q c #3d3d3d",
".r c #3e3e3e",
"#d c #3f3f3f",
"#D c #424242",
"a. c #444444",
".k c #454545",
".D c #464646",
"#N c #484848",
"#o c #494949",
".Z c #4a4a4a",
"#F c #4b4b4b",
".5 c #4c4c4c",
"#J c #4e4e4e",
"#l c #4f4f4f",
"#R c #505050",
"a# c #545454",
"#e c #565656",
"#r c #585858",
"#P c #595959",
"#v c #5a5a5a",
"#9 c #5e5e5e",
".2 c #5f5f5f",
".E c #616161",
"#1 c #626262",
".K c #686868",
"#O c #696969",
"#x c #6b6b6b",
"#z c #6d6d6d",
"#6 c #6e6e6e",
"#b c #7a7a7a",
".n c #7e7e7e",
"#C c #818181",
".G c #828282",
"#h c #848484",
".I c #858585",
"#k c #878787",
".f c #8a8a8a",
"#S c #8d8d8d",
"#Z c #9f9f9f",
".h c #a1a1a1",
"#q c #a3a3a3",
"#V c #a4a4a4",
".C c #a5a5a5",
".6 c #a6a6a6",
".Q c #a8a8a8",
".g c #a9a9a9",
"#7 c #aeaeae",
"#L c #b7b7b7",
"#0 c #b8b8b8",
"#j c #b9b9b9",
"#4 c #bcbcbc",
"#T c #bebebe",
".1 c #c0c0c0",
".M c #c2c2c2",
"#2 c #c4c4c4",
".v c #c8c8c8",
"#m c #cacaca",
"#H c #cbcbcb",
"#X c #d1d1d1",
".9 c #d3d3d3",
".A c #d4d4d4",
"#W c #d7d7d7",
"#I c #d9d9d9",
"#B c #dadada",
"#f c #dcdcdc",
".T c #dddddd",
"#t c #dedede",
".F c #e0e0e0",
".W c #e1e1e1",
".U c #e2e2e2",
".S c #e5e5e5",
"#3 c #e8e8e8",
".J c #ececec",
".B c #eeeeee",
".O c #efefef",
".0 c #f2f2f2",
".V c #f4f4f4",
".l c #f5f5f5",
"#c c #f6f6f6",
"#M c #f8f8f8",
"#A c #f9f9f9",
".N c #fafafa",
".R c #fbfbfb",
"#. c #fcfcfc",
"#y c #fdfdfd",
".u c #fefefe",
".m c #ffffff",
"QtQtQtQtQtQtQtQtQt.#.a.b.c.dQtQtQtQtQtQtQtQtQtQt",
"QtQtQtQtQtQtQtQtQt.e.f.g.h.i.jQtQtQtQtQtQtQtQtQt",
"QtQtQtQt.d.jQtQt.#.k.l.m.m.n.o.#Qt.d.p.#QtQtQtQt",
"QtQt.#Qt.q.r.s.#.t.f.m.m.u.v.w.d.s.x.k.y.zQtQtQt",
"QtQt.d.r.A.B.C.D.E.F.m.m.m.l.G.H.I.F.J.K.d.#QtQt",
"QtQt.L.M.m.m.m.u.m.m.m.m.m.m.m.N.m.m.m.O.r.pQtQt",
"QtQt.P.Q.m.m.m.m.m.R.S.T.U.V.m.m.m.m.m.W.X.dQtQt",
"QtQt.Y.Z.0.m.m.m.1.2.3.#.4.5.6.N.m.m.m.G.7QtQtQt",
"QtQt.#.8.9.m#..g##.o.d.#.z.Y#a#b#c.m#c#d.YQtQtQt",
".#.j.##e.O.m#f#g.YQtQtQtQtQt.zQt.Q.m.u#h.t.Y.zQt",
"#i.K#j.J.m.m#k.a.#QtQtQtQtQt.#.a#l.0.m#c#m.I#n.j",
"#e.m.m.m.m.m#o.YQtQtQtQtQtQtQt.d#p.W.m.m.m.m#q.b",
"#r.m.m.m.m.m#d#sQtQtQtQtQtQtQt.z.e#t.m.m.m.m.C#u",
".k#f.m.m.m.m#v.YQtQtQtQtQtQtQt.j.i.S.m.m.m.J.G.o",
".##w#x.1#y.m.Q.j.#QtQtQtQtQtQt.7#z#A.m#B#C#D.y.#",
".#.p.o#E.U.m.O#F.a.#QtQtQtQt.j#G#H.m.R#r.o.7.zQt",
"QtQt.z#p#I.m.m#B#J.z.#QtQt.z#K#L.m.m#M#N.YQtQtQt",
"QtQt.a#O.N.m.m.m.J.C#P#Q#R#S.F.m.m.m.m.C#s.#QtQt",
"QtQt.w#T.m.m.m.m.m.m.m.m.m.m.m.m.m.m.m.B#U.pQtQt",
"QtQt.e#V.m.m.N#W.U.u.m.m.m.m.B#X.0.m.m.A#Y.jQtQt",
"QtQt.d.4#Z#0#1.t#n#2.m.m.m#3.5.j#o#q#4#5#sQtQtQt",
"QtQtQt.z.e.8.7.zQt#6#..m#.#7.p.z#s.P.L.d.#QtQtQt",
"QtQtQtQt.d.dQtQt.##8.S.m#y#9.7QtQt.z.j.#QtQtQtQt",
"QtQtQtQtQtQtQtQtQtQta.a##Raa.zQtQtQtQtQtQtQtQtQt"};
