<?xml version="1.0" encoding="UTF-8" standalone="no"?>
<!-- Uploaded to: SVG Repo, www.svgrepo.com, Generator: SVG Repo Mixer Tools -->

<svg
   version="1.1"
   id="Layer_1"
   viewBox="0 0 48 48"
   xml:space="preserve"
   sodipodi:docname="TemporaryButton.svg"
   width="48"
   height="48"
   inkscape:version="1.1.2 (0a00cf5339, 2022-02-04)"
   xmlns:inkscape="http://www.inkscape.org/namespaces/inkscape"
   xmlns:sodipodi="http://sodipodi.sourceforge.net/DTD/sodipodi-0.dtd"
   xmlns="http://www.w3.org/2000/svg"
   xmlns:svg="http://www.w3.org/2000/svg"><defs
   id="defs23"><inkscape:path-effect
     effect="powermask"
     id="path-effect1740"
     is_visible="true"
     lpeversion="1"
     uri="#mask-powermask-path-effect1740"
     invert="false"
     hide_mask="false"
     background="true"
     background_color="#ffffffff" /><inkscape:path-effect
     effect="powermask"
     id="path-effect6076"
     is_visible="true"
     lpeversion="0"
     uri="#mask-powermask-path-effect6076"
     invert="false"
     hide_mask="false"
     background="false"
     background_color="#ffffffff" /><marker
     style="overflow:visible"
     id="marker1872"
     refX="0"
     refY="0"
     orient="auto"
     inkscape:stockid="Arrow1Send"
     inkscape:isstock="true"><path
       transform="matrix(-0.2,0,0,-0.2,-1.2,0)"
       style="fill:context-stroke;fill-rule:evenodd;stroke:context-stroke;stroke-width:1pt"
       d="M 0,0 5,-5 -12.5,0 5,5 Z"
       id="path1870" /></marker><marker
     style="overflow:visible"
     id="Arrow1Send"
     refX="0"
     refY="0"
     orient="auto"
     inkscape:stockid="Arrow1Send"
     inkscape:isstock="true"><path
       transform="matrix(-0.2,0,0,-0.2,-1.2,0)"
       style="fill:context-stroke;fill-rule:evenodd;stroke:context-stroke;stroke-width:1pt"
       d="M 0,0 5,-5 -12.5,0 5,5 Z"
       id="path1599" /></marker><marker
     style="overflow:visible"
     id="marker1854"
     refX="0"
     refY="0"
     orient="auto"
     inkscape:stockid="Arrow1Mend"
     inkscape:isstock="true"><path
       transform="matrix(-0.4,0,0,-0.4,-4,0)"
       style="fill:context-stroke;fill-rule:evenodd;stroke:context-stroke;stroke-width:1pt"
       d="M 0,0 5,-5 -12.5,0 5,5 Z"
       id="path1852" /></marker><marker
     style="overflow:visible"
     id="Arrow1Mend"
     refX="0"
     refY="0"
     orient="auto"
     inkscape:stockid="Arrow1Mend"
     inkscape:isstock="true"><path
       transform="matrix(-0.4,0,0,-0.4,-4,0)"
       style="fill:context-stroke;fill-rule:evenodd;stroke:context-stroke;stroke-width:1pt"
       d="M 0,0 5,-5 -12.5,0 5,5 Z"
       id="path1593" /></marker><mask
     maskUnits="userSpaceOnUse"
     id="mask6072"><path
       style="fill:#000000;fill-opacity:1;fill-rule:nonzero;stroke:none;stroke-width:1px;stroke-linecap:butt;stroke-linejoin:miter;stroke-miterlimit:10;stroke-dasharray:none;stroke-opacity:1"
       d="m 5.6569866,6.116009 6.7421494,0.9214843 3.236973,4.1531547 10.228596,4.203503 0.927571,5.059646 6.614891,8.655781 -1.515191,5.040463 4.208687,1.605102 -6.867164,-0.365326 1.298546,-3.346206 -2.575753,-5.020233 -4.641113,-5.59533 L 23.104825,15.908677 15.701886,14.158611 15.479581,12.944122 8.3412939,12.071659 8.4611134,9.7625677 1.9173623,7.9355682 Z"
       id="path6074" /></mask><clipPath
     clipPathUnits="userSpaceOnUse"
     id="clipPath1725"><g
       inkscape:label="Clip"
       id="use1727"><path
         style="fill:#2b2b2b;fill-opacity:1;stroke:none;stroke-width:1px;stroke-linecap:butt;stroke-linejoin:miter;stroke-opacity:1"
         d="m 9.567051,4.974659 1.311448,-0.3514014 0.650171,2.4264721 c 0,0 3.443622,-2.0084727 3.426045,-1.9780277 -0.01758,0.030445 -0.156946,0.4252336 0,0.697072 0.156946,0.2718385 -2.386501,1.377847 -2.386501,1.377847 l 1.84513,1.0652866 1.00195,1.735428 1.88558,-0.5052395 1.326956,2.2983559 -0.464078,1.731965 h 4.273924 l -0.624834,2.331911 5.878188,1.575056 -1.485761,2.573414 2.733626,-0.732473 0.739816,2.761031 c 0,0 -0.399192,3.455782 1.118789,1.937801 1.517982,-1.517982 1.963231,-3.370656 1.963231,-1.963231 0,1.407424 0,2.92105 0,2.92105 l 1.623451,2.811899 -0.779901,2.910628 3.384859,0.90697 -1.564672,2.710092 -3.493749,-2.017116 -0.817497,-3.050939 -0.473737,-1.768014 -1.890196,-1.890195 -0.196452,-0.733171 c 0,0 -0.691577,-0.544336 -0.89271,-0.892709 -0.201133,-0.348373 0,-3.443496 0,-3.443496 h -1.636903 l -1.787952,-1.787952 0.320802,-1.197253 -4.28205,-1.147372 1.005006,-1.740722 H 17.220173 V 11.560223 L 14.421912,10.810431 13.683538,9.531529 10.252315,7.5505116 9.4692031,4.6278975"
         id="path1731"
         clip-path="none" /></g></clipPath><mask
     maskUnits="userSpaceOnUse"
     id="mask-powermask-path-effect1740"><path
       id="mask-powermask-path-effect1740_box"
       style="fill:#ffffff;fill-opacity:1"
       d="M 12.27791,5.6306158 H 44.931007 V 37.184927 H 12.27791 Z" /><path
       style="fill:#2b2b2b;fill-opacity:1;stroke:none;stroke-width:1px;stroke-linecap:butt;stroke-linejoin:miter;stroke-opacity:1"
       d="m 9.567051,4.974659 1.311448,-0.3514014 0.650171,2.4264721 c 0,0 3.443622,-2.0084727 3.426045,-1.9780277 -0.01758,0.030445 -0.156946,0.4252336 0,0.697072 0.156946,0.2718385 -2.386501,1.377847 -2.386501,1.377847 l 1.84513,1.0652866 1.00195,1.735428 1.88558,-0.5052395 1.326956,2.2983559 -0.464078,1.731965 h 4.273924 l -0.624834,2.331911 5.878188,1.575056 -1.485761,2.573414 2.733626,-0.732473 0.739816,2.761031 c 0,0 -0.399192,3.455782 1.118789,1.937801 1.517982,-1.517982 1.963231,-3.370656 1.963231,-1.963231 0,1.407424 0,2.92105 0,2.92105 l 1.623451,2.811899 -0.779901,2.910628 3.384859,0.90697 -1.564672,2.710092 -3.493749,-2.017116 -0.817497,-3.050939 -0.473737,-1.768014 -1.890196,-1.890195 -0.196452,-0.733171 c 0,0 -0.691577,-0.544336 -0.89271,-0.892709 -0.201133,-0.348373 0,-3.443496 0,-3.443496 h -1.636903 l -1.787952,-1.787952 0.320802,-1.197253 -4.28205,-1.147372 1.005006,-1.740722 H 17.220173 V 11.560223 L 14.421912,10.810431 13.683538,9.531529 10.252315,7.5505116 9.4692031,4.6278975"
       id="path1738"
       clip-path="none" /></mask><filter
     id="mask-powermask-path-effect1740_inverse"
     inkscape:label="filtermask-powermask-path-effect1740"
     style="color-interpolation-filters:sRGB"
     height="100"
     width="100"
     x="-50"
     y="-50"><feColorMatrix
       id="mask-powermask-path-effect1740_primitive1"
       values="1"
       type="saturate"
       result="fbSourceGraphic" /><feColorMatrix
       id="mask-powermask-path-effect1740_primitive2"
       values="-1 0 0 0 1 0 -1 0 0 1 0 0 -1 0 1 0 0 0 1 0 "
       in="fbSourceGraphic" /></filter><filter
     inkscape:collect="always"
     style="color-interpolation-filters:sRGB"
     id="filter2044"
     x="-0.090683175"
     y="-0.11441355"
     width="1.1813664"
     height="1.2288271"><feGaussianBlur
       inkscape:collect="always"
       stdDeviation="1.6045368"
       id="feGaussianBlur2046" /></filter></defs><sodipodi:namedview
   id="namedview21"
   pagecolor="#ffffff"
   bordercolor="#666666"
   borderopacity="1.0"
   inkscape:pageshadow="2"
   inkscape:pageopacity="0.0"
   inkscape:pagecheckerboard="true"
   showgrid="false"
   inkscape:zoom="11.313709"
   inkscape:cx="8.8830289"
   inkscape:cy="20.638679"
   inkscape:window-width="1920"
   inkscape:window-height="964"
   inkscape:window-x="0"
   inkscape:window-y="27"
   inkscape:window-maximized="1"
   inkscape:current-layer="Layer_1"
   width="48px" />









<g
   id="g1806"
   transform="translate(3.1875445,0.85335283)"
   style="fill:#000000;fill-opacity:1;opacity:0.69303685;filter:url(#filter2044)"><g
     id="g1784"
     transform="rotate(-15.02242,27.330018,19.577352)"
     style="fill:#000000;fill-opacity:1"><path
       style="fill:#000000;fill-rule:nonzero;stroke:none;stroke-width:0.409603;stroke-linecap:butt;stroke-linejoin:miter;stroke-miterlimit:10;stroke-dasharray:none;fill-opacity:1"
       d="M 8.2675781,9.8964844 2.5058594,13.515625 c -0.723456,0.454529 -0.7207747,1.373328 0.00391,2.052734 0.7246895,0.679406 0.7254092,1.600159 0.00195,2.054688 l -0.71875,0.451172 c -0.5252579,0.330006 -0.5238696,0.997265 0.00195,1.490234 l 14.8261716,13.898438 2.318359,2.173828 c 0.237849,0.222987 0.53373,0.38119 0.841797,0.46875 l 5.396484,-12.265625 h -2.55664 L 21.84375,20.935547 18.638672,19.085938 V 16.326172 L 13.880859,15.052734 11.027344,13.404297 9.3691406,10.533203 Z"
       id="path1776" /><path
       style="display:inline;fill:#000000;fill-opacity:1;fill-rule:nonzero;stroke:none;stroke-width:0.409603;stroke-linecap:butt;stroke-linejoin:miter;stroke-miterlimit:10;stroke-dasharray:none"
       d="m 12.183594,14.072266 -6.0937502,3.828125 c -0.6920582,0.434802 -0.6912821,1.312971 0.00195,1.96289 l 11.9980472,11.25 3.966797,-9.378906 -0.212891,-0.798828 -3.205078,-1.849609 v -2.759766 l -4.757813,-1.273438 z"
       id="path1778" /><path
       style="display:inline;fill:#000000;fill-opacity:1;fill-rule:nonzero;stroke:none;stroke-width:0.409603;stroke-linecap:butt;stroke-linejoin:miter;stroke-miterlimit:10;stroke-dasharray:none"
       d="m 13.884766,15.054688 -5.1777348,3.251953 c -0.6920581,0.434803 -0.691282,1.312971 0.00195,1.96289 l 8.7226568,8.177735 4.613281,-6.763672 -0.201172,-0.748047 -3.205078,-1.849609 v -2.759766 z"
       id="path1780" /><path
       style="display:inline;fill:#000000;fill-opacity:1;fill-rule:nonzero;stroke:none;stroke-width:0.409603;stroke-linecap:butt;stroke-linejoin:miter;stroke-miterlimit:10;stroke-dasharray:none"
       d="m 18.638672,17.519531 -4.81836,3.027344 c -0.516424,0.324458 -0.680734,0.903178 -0.419921,1.478516 l 3.101562,6.845703 3.279297,7.234375 c 0.475688,0.135116 0.979069,0.101441 1.345703,-0.128907 l 2.316406,-1.455078 5.433594,-3.414062 -0.853515,-3.1875 V 23.839844 H 22.621094 L 21.84375,20.935547 18.638672,19.085938 Z"
       id="path1782" /></g><g
     id="g1794"
     style="fill:#000000;fill-opacity:1"><path
       style="fill:#000000;fill-rule:nonzero;stroke:none;stroke-width:0.409603;stroke-linecap:butt;stroke-linejoin:miter;stroke-miterlimit:10;stroke-dasharray:none;fill-opacity:1"
       d="m 24.855469,3.8398438 c -0.254417,-9.151e-4 -0.496511,0.057965 -0.69336,0.1816406 l -8.626953,5.4199218 c -0.488627,0.3069925 -1.209378,0.3315904 -1.86914,0.066406 L 11.826172,8.7675781 C 11.460477,8.6203072 11.077746,8.5654867 10.724609,8.5957031 L 10.533203,9.3125 12.365234,9.8027344 v 1.1601566 l 1.904297,0.511718 v 1.388672 h 6.248047 v 2.81836 l 2.035156,0.544921 v 3.269532 l 3.59375,0.96289 v 1.179688 L 31.517578,9.4296875 26.064453,4.3164062 C 25.735609,4.0081091 25.279496,3.8413688 24.855469,3.8398438 Z"
       id="path1786" /><path
       style="display:inline;fill:#000000;fill-opacity:1;fill-rule:nonzero;stroke:none;stroke-width:0.409603;stroke-linecap:butt;stroke-linejoin:miter;stroke-miterlimit:10;stroke-dasharray:none"
       d="m 23.007812,7.6054688 c -0.335294,-0.00123 -0.656493,0.077183 -0.916015,0.2402343 l -7.822266,4.9160159 v 0.101562 h 6.248047 v 2.81836 l 2.035156,0.544921 v 3.269532 l 0.40625,0.109375 3.910157,-9.244141 -2.267579,-2.126953 C 24.168291,7.8281753 23.566637,7.6075168 23.007812,7.6054688 Z"
       id="path1788" /><path
       style="display:inline;fill:#000000;fill-opacity:1;fill-rule:nonzero;stroke:none;stroke-width:0.409603;stroke-linecap:butt;stroke-linejoin:miter;stroke-miterlimit:10;stroke-dasharray:none"
       d="m 25.626953,8.0117188 c -0.335294,-0.00123 -0.656494,0.077183 -0.916015,0.2402343 l -7.339844,4.6113279 h 3.146484 v 2.81836 l 2.035156,0.544921 v 3.269532 L 23.384766,19.71875 29.488281,10.767578 27.21875,8.640625 C 26.785479,8.2344253 26.185777,8.0137668 25.626953,8.0117188 Z"
       id="path1790" /><path
       style="display:inline;fill:#000000;fill-opacity:1;fill-rule:nonzero;stroke:none;stroke-width:0.409603;stroke-linecap:butt;stroke-linejoin:miter;stroke-miterlimit:10;stroke-dasharray:none"
       d="m 36.289062,6.6347656 c -0.228994,0.014513 -0.446879,0.076542 -0.632812,0.1933594 l -14.404297,9.050781 1.300781,0.347656 v 3.269532 l 3.59375,0.96289 v 1.947266 l 4.015625,1.076172 v 3.972656 l 3.173829,0.84961 9.9375,-6.242188 c 0.626972,-0.393912 0.82635,-1.096626 0.509765,-1.794922 L 38.039062,7.5957031 c -0.281727,-0.6213196 -1.063015,-1.0044771 -1.75,-0.9609375 z"
       id="path1792" /></g></g><g
   id="g1826"><g
     id="g1768"
     transform="rotate(-15.02242,27.330018,19.577352)"><path
       style="fill:#e8a113;fill-rule:nonzero;stroke:none;stroke-width:0.409603;stroke-linecap:butt;stroke-linejoin:miter;stroke-miterlimit:10;stroke-dasharray:none"
       d="M 8.2675781,9.8964844 2.5058594,13.515625 c -0.723456,0.454529 -0.7207747,1.373328 0.00391,2.052734 0.7246895,0.679406 0.7254092,1.600159 0.00195,2.054688 l -0.71875,0.451172 c -0.5252579,0.330006 -0.5238696,0.997265 0.00195,1.490234 l 14.8261716,13.898438 2.318359,2.173828 c 0.237849,0.222987 0.53373,0.38119 0.841797,0.46875 l 5.396484,-12.265625 h -2.55664 L 21.84375,20.935547 18.638672,19.085938 V 16.326172 L 13.880859,15.052734 11.027344,13.404297 9.3691406,10.533203 Z"
       id="path1722" /><path
       style="display:inline;fill:#e1e7f2;fill-opacity:1;fill-rule:nonzero;stroke:none;stroke-width:0.409603;stroke-linecap:butt;stroke-linejoin:miter;stroke-miterlimit:10;stroke-dasharray:none"
       d="m 12.183594,14.072266 -6.0937502,3.828125 c -0.6920582,0.434802 -0.6912821,1.312971 0.00195,1.96289 l 11.9980472,11.25 3.966797,-9.378906 -0.212891,-0.798828 -3.205078,-1.849609 v -2.759766 l -4.757813,-1.273438 z"
       id="path1744" /><path
       style="display:inline;fill:#f0f4fa;fill-opacity:1;fill-rule:nonzero;stroke:none;stroke-width:0.409603;stroke-linecap:butt;stroke-linejoin:miter;stroke-miterlimit:10;stroke-dasharray:none"
       d="m 13.884766,15.054688 -5.1777348,3.251953 c -0.6920581,0.434803 -0.691282,1.312971 0.00195,1.96289 l 8.7226568,8.177735 4.613281,-6.763672 -0.201172,-0.748047 -3.205078,-1.849609 v -2.759766 z"
       id="path1700" /><path
       style="display:inline;fill:#ffd882;fill-opacity:1;fill-rule:nonzero;stroke:none;stroke-width:0.409603;stroke-linecap:butt;stroke-linejoin:miter;stroke-miterlimit:10;stroke-dasharray:none"
       d="m 18.638672,17.519531 -4.81836,3.027344 c -0.516424,0.324458 -0.680734,0.903178 -0.419921,1.478516 l 3.101562,6.845703 3.279297,7.234375 c 0.475688,0.135116 0.979069,0.101441 1.345703,-0.128907 l 2.316406,-1.455078 5.433594,-3.414062 -0.853515,-3.1875 V 23.839844 H 22.621094 L 21.84375,20.935547 18.638672,19.085938 Z"
       id="path1678" /></g><g
     id="g1813"><g
       id="g1774"><path
         style="fill:#e8a113;fill-rule:nonzero;stroke:none;stroke-width:0.409603;stroke-linecap:butt;stroke-linejoin:miter;stroke-miterlimit:10;stroke-dasharray:none"
         d="m 24.855469,3.8398438 c -0.254417,-9.151e-4 -0.496511,0.057965 -0.69336,0.1816406 l -8.626953,5.4199218 c -0.488627,0.3069925 -1.209378,0.3315904 -1.86914,0.066406 L 11.826172,8.7675781 C 11.460477,8.6203072 11.077746,8.5654867 10.724609,8.5957031 L 10.533203,9.3125 12.365234,9.8027344 v 1.1601566 l 1.904297,0.511718 v 1.388672 h 6.248047 v 2.81836 l 2.035156,0.544921 v 3.269532 l 3.59375,0.96289 v 1.179688 L 31.517578,9.4296875 26.064453,4.3164062 C 25.735609,4.0081091 25.279496,3.8413688 24.855469,3.8398438 Z"
         id="path4" /><path
         style="display:inline;fill:#e1e7f2;fill-opacity:1;fill-rule:nonzero;stroke:none;stroke-width:0.409603;stroke-linecap:butt;stroke-linejoin:miter;stroke-miterlimit:10;stroke-dasharray:none"
         d="m 23.007812,7.6054688 c -0.335294,-0.00123 -0.656493,0.077183 -0.916015,0.2402343 l -7.822266,4.9160159 v 0.101562 h 6.248047 v 2.81836 l 2.035156,0.544921 v 3.269532 l 0.40625,0.109375 3.910157,-9.244141 -2.267579,-2.126953 C 24.168291,7.8281753 23.566637,7.6075168 23.007812,7.6054688 Z"
         id="path6" /><path
         style="display:inline;fill:#f0f4fa;fill-opacity:1;fill-rule:nonzero;stroke:none;stroke-width:0.409603;stroke-linecap:butt;stroke-linejoin:miter;stroke-miterlimit:10;stroke-dasharray:none"
         d="m 25.626953,8.0117188 c -0.335294,-0.00123 -0.656494,0.077183 -0.916015,0.2402343 l -7.339844,4.6113279 h 3.146484 v 2.81836 l 2.035156,0.544921 v 3.269532 L 23.384766,19.71875 29.488281,10.767578 27.21875,8.640625 C 26.785479,8.2344253 26.185777,8.0137668 25.626953,8.0117188 Z"
         id="path8" /><path
         style="display:inline;fill:#ffd882;fill-opacity:1;fill-rule:nonzero;stroke:none;stroke-width:0.409603;stroke-linecap:butt;stroke-linejoin:miter;stroke-miterlimit:10;stroke-dasharray:none"
         d="m 36.289062,6.6347656 c -0.228994,0.014513 -0.446879,0.076542 -0.632812,0.1933594 l -14.404297,9.050781 1.300781,0.347656 v 3.269532 l 3.59375,0.96289 v 1.947266 l 4.015625,1.076172 v 3.972656 l 3.173829,0.84961 9.9375,-6.242188 c 0.626972,-0.393912 0.82635,-1.096626 0.509765,-1.794922 L 38.039062,7.5957031 c -0.281727,-0.6213196 -1.063015,-1.0044771 -1.75,-0.9609375 z"
         id="path10" /></g></g></g></svg>
