<?xml version="1.0" encoding="UTF-8" standalone="no"?>
<!-- Created with Inkscape (http://www.inkscape.org/) -->

<svg
   width="20"
   height="20"
   viewBox="0 0 5.2916665 5.2916666"
   version="1.1"
   id="svg8"
   inkscape:version="1.1.2 (0a00cf5339, 2022-02-04)"
   sodipodi:docname="USD.svg"
   xmlns:inkscape="http://www.inkscape.org/namespaces/inkscape"
   xmlns:sodipodi="http://sodipodi.sourceforge.net/DTD/sodipodi-0.dtd"
   xmlns="http://www.w3.org/2000/svg"
   xmlns:svg="http://www.w3.org/2000/svg"
   xmlns:rdf="http://www.w3.org/1999/02/22-rdf-syntax-ns#"
   xmlns:cc="http://creativecommons.org/ns#"
   xmlns:dc="http://purl.org/dc/elements/1.1/">
  <defs
     id="defs2" />
  <sodipodi:namedview
     id="base"
     pagecolor="#ffffff"
     bordercolor="#666666"
     borderopacity="1.0"
     inkscape:pageopacity="0.0"
     inkscape:pageshadow="2"
     inkscape:zoom="31.659099"
     inkscape:cx="8.4020079"
     inkscape:cy="6.7753034"
     inkscape:document-units="px"
     inkscape:current-layer="ForwardPlayback"
     showgrid="true"
     units="px"
     inkscape:window-width="1920"
     inkscape:window-height="958"
     inkscape:window-x="0"
     inkscape:window-y="27"
     inkscape:window-maximized="1"
     inkscape:pagecheckerboard="0">
    <inkscape:grid
       type="xygrid"
       id="grid4526"
       empspacing="10" />
  </sodipodi:namedview>
  <metadata
     id="metadata5">
    <rdf:RDF>
      <cc:Work
         rdf:about="">
        <dc:format>image/svg+xml</dc:format>
        <dc:type
           rdf:resource="http://purl.org/dc/dcmitype/StillImage" />
      </cc:Work>
    </rdf:RDF>
  </metadata>
  <g
     inkscape:label="Layer 1"
     inkscape:groupmode="layer"
     id="layer1"
     transform="translate(0,-291.70831)">
    <g
       id="ForwardPlayback"
       inkscape:label="#g4524"
       inkscape:export-xdpi="96"
       inkscape:export-ydpi="96">
      <path
         style="fill:#2888bf;fill-opacity:1;stroke-width:0.209353"
         d="m 3.2808333,296.32126 h 0.2116666 v 0.20706 H 3.2808333"
         id="path3729" />
      <path
         style="fill:#208ecd;fill-opacity:1;stroke-width:0.209353"
         d="m 3.01625,296.37303 0.1058333,-0.10354 0.15875,0.0518 v 0.20706 H 3.0691666"
         id="path3727" />
      <path
         style="fill:#2888bf;fill-opacity:1;stroke-width:0.209353"
         d="m 2.8575,296.32126 0.15875,0.0518 0.052917,0.15529 H 2.8575"
         id="path3725" />
      <path
         style="fill:#387da4;fill-opacity:1;stroke-width:0.209353"
         d="M 2.6458333,296.32126 H 2.8575 v 0.20706 H 2.6458333"
         id="path3723" />
      <path
         style="fill:#2888bf;fill-opacity:1;stroke-width:0.209353"
         d="m 3.2808333,296.11419 h 0.2116666 v 0.20707 H 3.2808333"
         id="path3689" />
      <path
         style="fill:#208ecd;fill-opacity:1;stroke-width:0.209353"
         d="m 3.0691666,296.11419 h 0.2116667 v 0.20707 l -0.15875,-0.0518"
         id="path3687" />
      <path
         style="fill:#208ecd;fill-opacity:1;stroke-width:0.209353"
         d="m 2.8575,296.11419 h 0.2116666 l 0.052917,0.1553 -0.1058333,0.10354 -0.15875,-0.0518"
         id="path3685" />
      <path
         style="fill:#208ecd;fill-opacity:1;stroke-width:0.209353"
         d="M 2.6458333,296.11419 H 2.8575 v 0.20707 H 2.6458333"
         id="path3683" />
      <path
         style="fill:#208ecd;fill-opacity:1;stroke-width:0.209353"
         d="m 2.38125,296.16596 0.1058333,-0.10353 0.15875,0.0518 v 0.20707 H 2.4341667"
         id="path3681" />
      <path
         style="fill:#2888bf;fill-opacity:1;stroke-width:0.209353"
         d="m 2.2225,296.11419 0.15875,0.0518 0.052917,0.1553 H 2.2225"
         id="path3679" />
      <path
         style="fill:#2888bf;fill-opacity:1;stroke-width:0.209353"
         d="m 3.2808333,295.90713 h 0.2116666 v 0.20706 H 3.2808333"
         id="path3649" />
      <path
         style="fill:#208ecd;fill-opacity:1;stroke-width:0.209353"
         d="m 3.1220833,295.9589 0.15875,-0.0518 v 0.20706 H 3.0691666"
         id="path3647" />
      <path
         style="fill:#208ecd;fill-opacity:1;stroke-width:0.209353"
         d="m 2.8575,295.90713 0.15875,-0.0518 0.1058333,0.10354 -0.052917,0.15529 H 2.8575"
         id="path3645" />
      <path
         style="fill:#208ecd;fill-opacity:1;stroke-width:0.209353"
         d="M 2.6458333,295.90713 H 2.8575 v 0.20706 H 2.6458333"
         id="path3643" />
      <path
         style="fill:#208ecd;fill-opacity:1;stroke-width:0.209353"
         d="m 2.38125,295.9589 0.1058333,-0.10354 0.15875,0.0518 v 0.20706 l -0.15875,-0.0518"
         id="path3641" />
      <path
         style="fill:#208ecd;fill-opacity:1;stroke-width:0.209353"
         d="m 2.2225,295.90713 0.15875,0.0518 0.1058333,0.10353 -0.1058333,0.10353 -0.15875,-0.0518"
         id="path3639" />
      <path
         style="fill:#208ecd;fill-opacity:1;stroke-width:0.209353"
         d="M 2.0108333,295.90713 H 2.2225 v 0.20706 H 2.0108333"
         id="path3637" />
      <path
         style="fill:#208ecd;fill-opacity:1;stroke-width:0.209353"
         d="m 1.74625,295.9589 0.1058334,-0.10354 0.1587499,0.0518 v 0.20706 H 1.7991667"
         id="path3635" />
      <path
         style="fill:#2888bf;fill-opacity:1;stroke-width:0.209353"
         d="m 1.5875,295.90713 0.15875,0.0518 0.052917,0.15529 H 1.5875"
         id="path3633" />
      <path
         style="fill:#2888bf;fill-opacity:1;stroke-width:0.209353"
         d="m 3.2808333,295.70007 h 0.2116666 v 0.20706 H 3.2808333"
         id="path3609" />
      <path
         style="fill:#208ecd;fill-opacity:1;stroke-width:0.209353"
         d="m 3.0691666,295.70007 h 0.2116667 v 0.20706 l -0.15875,0.0518 -0.1058333,-0.10354"
         id="path3607" />
      <path
         style="fill:#2888bf;fill-opacity:1;stroke-width:0.209353"
         d="m 2.8575,295.70007 h 0.2116666 l -0.052917,0.15529 -0.15875,0.0518"
         id="path3605" />
      <path
         style="fill:#387da4;fill-opacity:1;stroke-width:0.209353"
         d="m 2.4341667,295.70007 0.1587499,0.0518 0.052917,0.1553 -0.15875,-0.0518"
         id="path3601" />
      <path
         style="fill:#208ecd;fill-opacity:1;stroke-width:0.209353"
         d="m 2.2225,295.70007 h 0.2116667 l 0.052917,0.15529 -0.1058333,0.10354 -0.15875,-0.0518"
         id="path3599" />
      <path
         style="fill:#208ecd;fill-opacity:1;stroke-width:0.209353"
         d="M 2.0108333,295.70007 H 2.2225 v 0.20706 H 2.0108333"
         id="path3597" />
      <path
         style="fill:#208ecd;fill-opacity:1;stroke-width:0.209353"
         d="m 1.74625,295.75183 0.1058334,-0.10353 0.1587499,0.0518 v 0.20706 l -0.1587499,-0.0518"
         id="path3595" />
      <path
         style="fill:#208ecd;fill-opacity:1;stroke-width:0.209353"
         d="m 1.5875,295.70007 0.15875,0.0518 0.1058334,0.10353 -0.1058334,0.10354 -0.15875,-0.0518"
         id="path3593" />
      <path
         style="fill:#208ecd;fill-opacity:1;stroke-width:0.209353"
         d="M 1.3758334,295.70007 H 1.5875 v 0.20706 H 1.3758334"
         id="path3591" />
      <path
         style="fill:#208ecd;fill-opacity:1;stroke-width:0.209353"
         d="m 1.1112501,295.75183 0.1058333,-0.10353 0.15875,0.0518 v 0.20706 H 1.1641667"
         id="path3589" />
      <path
         style="fill:#2888bf;fill-opacity:1;stroke-width:0.209353"
         d="m 0.95250007,295.70007 0.15875003,0.0518 0.052917,0.1553 H 0.95250007"
         id="path3587" />
      <path
         style="fill:#2888bf;fill-opacity:1;stroke-width:0.209353"
         d="m 3.2808333,295.493 h 0.2116666 v 0.20707 H 3.2808333"
         id="path3569" />
      <path
         style="fill:#208ecd;fill-opacity:1;stroke-width:0.209353"
         d="m 3.0691666,295.493 h 0.2116667 v 0.20707 H 3.0691666"
         id="path3567" />
      <path
         style="fill:#3082b2;fill-opacity:1;stroke-width:0.209353"
         d="m 2.8575,295.493 h 0.2116666 v 0.20707 H 2.8575"
         id="path3565" />
      <path
         style="fill:#387da4;fill-opacity:1;stroke-width:0.209353"
         d="m 1.7991667,295.493 0.15875,0.0518 0.052917,0.1553 -0.1587499,-0.0518"
         id="path3555" />
      <path
         style="fill:#208ecd;fill-opacity:1;stroke-width:0.209353"
         d="m 1.5875,295.493 h 0.2116667 l 0.052917,0.1553 -0.1058334,0.10353 -0.15875,-0.0518"
         id="path3553" />
      <path
         style="fill:#208ecd;fill-opacity:1;stroke-width:0.209353"
         d="M 1.3758334,295.493 H 1.5875 v 0.20707 H 1.3758334"
         id="path3551" />
      <path
         style="fill:#208ecd;fill-opacity:1;stroke-width:0.209353"
         d="m 1.1112501,295.54477 0.1058333,-0.10354 0.15875,0.0518 v 0.20707 l -0.15875,-0.0518"
         id="path3549" />
      <path
         style="fill:#208ecd;fill-opacity:1;stroke-width:0.209353"
         d="m 0.95250007,295.493 0.15875003,0.0518 0.1058333,0.10353 -0.1058333,0.10353 -0.15875003,-0.0518"
         id="path3547" />
      <path
         style="fill:#208ecd;fill-opacity:1;stroke-width:0.209353"
         d="m 0.74083341,295.493 h 0.21166666 v 0.20707 H 0.74083341"
         id="path3545" />
      <path
         style="fill:#208ecd;fill-opacity:1;stroke-width:0.209353"
         d="m 0.52916676,295.493 h 0.21166665 v 0.20707 H 0.52916676"
         id="path3543" />
      <path
         style="fill:#3ab7df;fill-opacity:1;stroke-width:0.209353"
         d="M 3.9158332,295.28594 H 4.1274999 V 295.493 H 3.9158332"
         id="path3535" />
      <path
         style="fill:#40aacc;fill-opacity:1;stroke-width:0.209353"
         d="M 3.7041666,295.28594 H 3.9158332 V 295.493 H 3.7041666"
         id="path3533" />
      <path
         style="fill:#2888bf;fill-opacity:1;stroke-width:0.209353"
         d="M 3.2808333,295.28594 H 3.4924999 V 295.493 H 3.2808333"
         id="path3529" />
      <path
         style="fill:#208ecd;fill-opacity:1;stroke-width:0.209353"
         d="M 3.0691666,295.28594 H 3.2808333 V 295.493 H 3.0691666"
         id="path3527" />
      <path
         style="fill:#3082b2;fill-opacity:1;stroke-width:0.209353"
         d="M 2.8575,295.28594 H 3.0691666 V 295.493 H 2.8575"
         id="path3525" />
      <path
         style="fill:#7dd1f6;fill-opacity:1;stroke-width:0.209353"
         d="m 2.4341667,295.28594 h 0.2116666 l -0.052917,0.15529 -0.1587499,0.0518"
         id="path3521" />
      <path
         style="fill:#79c2e2;fill-opacity:1;stroke-width:0.209353"
         d="m 2.1695833,295.3377 0.1058334,-0.10353 0.15875,0.0518 V 295.493 H 2.2225"
         id="path3519" />
      <path
         style="fill:#3082b2;fill-opacity:1;stroke-width:0.209353"
         d="m 1.1641667,295.28594 0.15875,0.0518 0.052917,0.1553 -0.15875,-0.0518"
         id="path3509" />
      <path
         style="fill:#208ecd;fill-opacity:1;stroke-width:0.209353"
         d="m 0.89958341,295.3377 0.10583329,-0.10353 0.15875,0.0518 0.052917,0.15529 -0.1058333,0.10354 -0.15875003,-0.0518"
         id="path3507" />
      <path
         style="fill:#208ecd;fill-opacity:1;stroke-width:0.209353"
         d="m 0.74083341,295.28594 0.15875,0.0518 0.0529167,0.1553 h -0.2116667"
         id="path3505" />
      <path
         style="fill:#208ecd;fill-opacity:1;stroke-width:0.209353"
         d="M 0.52916676,295.28594 H 0.74083341 V 295.493 H 0.52916676"
         id="path3503" />
      <path
         style="fill:#3ab7df;fill-opacity:1;stroke-width:0.209353"
         d="m 3.9158332,295.07887 h 0.2116667 v 0.20707 H 3.9158332"
         id="path3495" />
      <path
         style="fill:#35c3f1;fill-opacity:1;stroke-width:0.209353"
         d="m 3.7041666,295.07887 h 0.2116666 v 0.20707 H 3.7041666"
         id="path3493" />
      <path
         style="fill:#2888bf;fill-opacity:1;stroke-width:0.209353"
         d="m 3.2808333,295.07887 h 0.2116666 v 0.20707 H 3.2808333"
         id="path3489" />
      <path
         style="fill:#208ecd;fill-opacity:1;stroke-width:0.209353"
         d="m 3.0691666,295.07887 h 0.2116667 v 0.20707 H 3.0691666"
         id="path3487" />
      <path
         style="fill:#3082b2;fill-opacity:1;stroke-width:0.209353"
         d="m 2.8575,295.07887 h 0.2116666 v 0.20707 H 2.8575"
         id="path3485" />
      <path
         style="fill:#7dd1f6;fill-opacity:1;stroke-width:0.209353"
         d="m 2.4341667,295.07887 h 0.2116666 v 0.20707 H 2.4341667"
         id="path3481" />
      <path
         style="fill:#7dd1f6;fill-opacity:1;stroke-width:0.209353"
         d="m 2.2225,295.07887 h 0.2116667 v 0.20707 l -0.15875,-0.0518"
         id="path3479" />
      <path
         style="fill:#7dd1f6;fill-opacity:1;stroke-width:0.209353"
         d="M 2.0108333,295.07887 H 2.2225 l 0.052917,0.1553 -0.1058334,0.10353 -0.15875,-0.0518"
         id="path3477" />
      <path
         style="fill:#7dd1f6;fill-opacity:1;stroke-width:0.209353"
         d="m 1.7991667,295.07887 h 0.2116666 v 0.20707 H 1.7991667"
         id="path3475" />
      <path
         style="fill:#78bfde;fill-opacity:1;stroke-width:0.209353"
         d="m 1.5345834,295.13064 0.1058333,-0.10354 0.15875,0.0518 v 0.20707 H 1.5875"
         id="path3473" />
      <path
         style="fill:#407796;fill-opacity:1;stroke-width:0.209353"
         d="M 0.95250007,295.07887 H 1.1641667 v 0.20707 l -0.15875,-0.0518"
         id="path3467" />
      <path
         style="fill:#208ecd;fill-opacity:1;stroke-width:0.209353"
         d="m 0.74083341,295.07887 h 0.21166666 l 0.0529166,0.1553 -0.10584859,0.10353 -0.15875,-0.0518"
         id="path3465" />
      <path
         style="fill:#208ecd;fill-opacity:1;stroke-width:0.209353"
         d="m 0.52916676,295.07887 h 0.21166665 v 0.20707 H 0.52916676"
         id="path3463" />
      <path
         style="fill:#3ab7df;fill-opacity:1;stroke-width:0.209353"
         d="m 3.9158332,294.87181 h 0.2116667 v 0.20706 H 3.9158332"
         id="path3455" />
      <path
         style="fill:#35c3f1;fill-opacity:1;stroke-width:0.209353"
         d="m 3.7041666,294.87181 h 0.2116666 v 0.20706 H 3.7041666"
         id="path3453" />
      <path
         style="fill:#2888bf;fill-opacity:1;stroke-width:0.209353"
         d="m 3.2808333,294.87181 h 0.2116666 v 0.20706 H 3.2808333"
         id="path3449" />
      <path
         style="fill:#208ecd;fill-opacity:1;stroke-width:0.209353"
         d="m 3.0691666,294.87181 h 0.2116667 v 0.20706 H 3.0691666"
         id="path3447" />
      <path
         style="fill:#3082b2;fill-opacity:1;stroke-width:0.209353"
         d="m 2.8575,294.87181 h 0.2116666 v 0.20706 H 2.8575"
         id="path3445" />
      <path
         style="fill:#7dd1f6;fill-opacity:1;stroke-width:0.209353"
         d="m 2.4341667,294.87181 h 0.2116666 v 0.20706 H 2.4341667"
         id="path3441" />
      <path
         style="fill:#7dd1f6;fill-opacity:1;stroke-width:0.209353"
         d="m 2.2225,294.87181 h 0.2116667 v 0.20706 H 2.2225"
         id="path3439" />
      <path
         style="fill:#7dd1f6;fill-opacity:1;stroke-width:0.209353"
         d="M 2.0108333,294.87181 H 2.2225 v 0.20706 H 2.0108333"
         id="path3437" />
      <path
         style="fill:#7dd1f6;fill-opacity:1;stroke-width:0.209353"
         d="m 1.7991667,294.87181 h 0.2116666 v 0.20706 H 1.7991667"
         id="path3435" />
      <path
         style="fill:#7dd1f6;fill-opacity:1;stroke-width:0.209353"
         d="m 1.5875,294.87181 h 0.2116667 v 0.20706 l -0.15875,-0.0518"
         id="path3433" />
      <path
         style="fill:#7dd1f6;fill-opacity:1;stroke-width:0.209353"
         d="M 1.3758334,294.87181 H 1.5875 L 1.640417,295.0271 1.5345837,295.13064 1.42875,295.0271"
         id="path3431" />
      <path
         style="fill:#407796;fill-opacity:1;stroke-width:0.209353"
         d="M 0.95250007,294.87181 H 1.1641667 v 0.20706 H 0.95250007"
         id="path3427" />
      <path
         style="fill:#208ecd;fill-opacity:1;stroke-width:0.209353"
         d="m 0.74083341,294.87181 h 0.21166666 v 0.20706 H 0.74083341"
         id="path3425" />
      <path
         style="fill:#208ecd;fill-opacity:1;stroke-width:0.209353"
         d="m 0.52916676,294.87181 h 0.21166665 v 0.20706 H 0.52916676"
         id="path3423" />
      <path
         style="fill:#3ab7df;fill-opacity:1;stroke-width:0.209353"
         d="m 3.9158332,294.66474 h 0.2116667 v 0.20707 H 3.9158332"
         id="path3415" />
      <path
         style="fill:#35c3f1;fill-opacity:1;stroke-width:0.209353"
         d="m 3.7041666,294.66474 h 0.2116666 v 0.20707 H 3.7041666"
         id="path3413" />
      <path
         style="fill:#2888bf;fill-opacity:1;stroke-width:0.209353"
         d="m 3.2808333,294.66474 h 0.2116666 v 0.20707 H 3.2808333"
         id="path3409" />
      <path
         style="fill:#208ecd;fill-opacity:1;stroke-width:0.209353"
         d="m 3.0691666,294.66474 h 0.2116667 v 0.20707 H 3.0691666"
         id="path3407" />
      <path
         style="fill:#3082b2;fill-opacity:1;stroke-width:0.209353"
         d="m 2.8575,294.66474 h 0.2116666 v 0.20707 H 2.8575"
         id="path3405" />
      <path
         style="fill:#7dd1f6;fill-opacity:1;stroke-width:0.209353"
         d="m 2.4341667,294.66474 h 0.2116666 v 0.20707 H 2.4341667"
         id="path3401" />
      <path
         style="fill:#7dd1f6;fill-opacity:1;stroke-width:0.209353"
         d="m 2.2225,294.66474 h 0.2116667 v 0.20707 H 2.2225"
         id="path3399" />
      <path
         style="fill:#7dd1f6;fill-opacity:1;stroke-width:0.209353"
         d="M 2.0108333,294.66474 H 2.2225 v 0.20707 H 2.0108333"
         id="path3397" />
      <path
         style="fill:#7dd1f6;fill-opacity:1;stroke-width:0.209353"
         d="m 1.7991667,294.66474 h 0.2116666 v 0.20707 H 1.7991667"
         id="path3395" />
      <path
         style="fill:#7dd1f6;fill-opacity:1;stroke-width:0.209353"
         d="m 1.5875,294.66474 h 0.2116667 v 0.20707 H 1.5875"
         id="path3393" />
      <path
         style="fill:#7dd1f6;fill-opacity:1;stroke-width:0.209353"
         d="M 1.3758334,294.66474 H 1.5875 v 0.20707 H 1.3758334"
         id="path3391" />
      <path
         style="fill:#407796;fill-opacity:1;stroke-width:0.209353"
         d="M 0.95250007,294.66474 H 1.1641667 v 0.20707 H 0.95250007"
         id="path3387" />
      <path
         style="fill:#208ecd;fill-opacity:1;stroke-width:0.209353"
         d="m 0.74083341,294.66474 h 0.21166666 v 0.20707 H 0.74083341"
         id="path3385" />
      <path
         style="fill:#208ecd;fill-opacity:1;stroke-width:0.209353"
         d="m 0.52916676,294.66474 h 0.21166665 v 0.20707 H 0.52916676"
         id="path3383" />
      <path
         style="fill:#3ab7df;fill-opacity:1;stroke-width:0.209353"
         d="m 3.9158332,294.45768 h 0.2116667 v 0.20706 H 3.9158332"
         id="path3375" />
      <path
         style="fill:#35c3f1;fill-opacity:1;stroke-width:0.209353"
         d="m 3.7041666,294.45768 h 0.2116666 v 0.20706 H 3.7041666"
         id="path3373" />
      <path
         style="fill:#2888bf;fill-opacity:1;stroke-width:0.209353"
         d="m 3.2808333,294.45768 h 0.2116666 v 0.20706 H 3.2808333"
         id="path3369" />
      <path
         style="fill:#208ecd;fill-opacity:1;stroke-width:0.209353"
         d="m 3.0691666,294.45768 h 0.2116667 v 0.20706 H 3.0691666"
         id="path3367" />
      <path
         style="fill:#3082b2;fill-opacity:1;stroke-width:0.209353"
         d="m 2.8575,294.45768 h 0.2116666 v 0.20706 H 2.8575"
         id="path3365" />
      <path
         style="fill:#7dd1f6;fill-opacity:1;stroke-width:0.209353"
         d="m 2.4341667,294.45768 h 0.2116666 v 0.20706 H 2.4341667"
         id="path3361" />
      <path
         style="fill:#7dd1f6;fill-opacity:1;stroke-width:0.209353"
         d="m 2.2225,294.45768 h 0.2116667 v 0.20706 H 2.2225"
         id="path3359" />
      <path
         style="fill:#7dd1f6;fill-opacity:1;stroke-width:0.209353"
         d="M 2.0108333,294.45768 H 2.2225 v 0.20706 H 2.0108333"
         id="path3357" />
      <path
         style="fill:#7dd1f6;fill-opacity:1;stroke-width:0.209353"
         d="m 1.7991667,294.45768 h 0.2116666 v 0.20706 H 1.7991667"
         id="path3355" />
      <path
         style="fill:#7dd1f6;fill-opacity:1;stroke-width:0.209353"
         d="m 1.5875,294.45768 h 0.2116667 v 0.20706 H 1.5875"
         id="path3353" />
      <path
         style="fill:#7dd1f6;fill-opacity:1;stroke-width:0.209353"
         d="M 1.3758334,294.45768 H 1.5875 v 0.20706 H 1.3758334"
         id="path3351" />
      <path
         style="fill:#407796;fill-opacity:1;stroke-width:0.209353"
         d="M 0.95250007,294.45768 H 1.1641667 v 0.20706 H 0.95250007"
         id="path3347" />
      <path
         style="fill:#208ecd;fill-opacity:1;stroke-width:0.209353"
         d="m 0.74083341,294.45768 h 0.21166666 v 0.20706 H 0.74083341"
         id="path3345" />
      <path
         style="fill:#208ecd;fill-opacity:1;stroke-width:0.209353"
         d="m 0.52916676,294.45768 h 0.21166665 v 0.20706 H 0.52916676"
         id="path3343" />
      <path
         style="fill:#76b5d0;fill-opacity:1;stroke-width:0.209353"
         d="m 4.5508332,294.25061 h 0.2116667 v 0.20707 H 4.5508332"
         id="path3341" />
      <path
         style="fill:#3ab7df;fill-opacity:1;stroke-width:0.209353"
         d="m 3.9158332,294.25061 h 0.2116667 v 0.20707 H 3.9158332"
         id="path3335" />
      <path
         style="fill:#35c3f1;fill-opacity:1;stroke-width:0.209353"
         d="m 3.7041666,294.25061 h 0.2116666 v 0.20707 H 3.7041666"
         id="path3333" />
      <path
         style="fill:#2888bf;fill-opacity:1;stroke-width:0.209353"
         d="m 3.2808333,294.25061 h 0.2116666 v 0.20707 H 3.2808333"
         id="path3329" />
      <path
         style="fill:#208ecd;fill-opacity:1;stroke-width:0.209353"
         d="m 3.0691666,294.25061 h 0.2116667 v 0.20707 H 3.0691666"
         id="path3327" />
      <path
         style="fill:#3082b2;fill-opacity:1;stroke-width:0.209353"
         d="m 2.8575,294.25061 h 0.2116666 v 0.20707 H 2.8575"
         id="path3325" />
      <path
         style="fill:#7dd1f6;fill-opacity:1;stroke-width:0.209353"
         d="m 2.4341667,294.25061 h 0.2116666 v 0.20707 H 2.4341667"
         id="path3321" />
      <path
         style="fill:#7dd1f6;fill-opacity:1;stroke-width:0.209353"
         d="m 2.2225,294.25061 h 0.2116667 v 0.20707 H 2.2225"
         id="path3319" />
      <path
         style="fill:#7dd1f6;fill-opacity:1;stroke-width:0.209353"
         d="M 2.0108333,294.25061 H 2.2225 v 0.20707 H 2.0108333"
         id="path3317" />
      <path
         style="fill:#7dd1f6;fill-opacity:1;stroke-width:0.209353"
         d="m 1.7991667,294.25061 h 0.2116666 v 0.20707 H 1.7991667"
         id="path3315" />
      <path
         style="fill:#7dd1f6;fill-opacity:1;stroke-width:0.209353"
         d="m 1.5875,294.25061 h 0.2116667 v 0.20707 H 1.5875"
         id="path3313" />
      <path
         style="fill:#7dd1f6;fill-opacity:1;stroke-width:0.209353"
         d="M 1.3758334,294.25061 H 1.5875 v 0.20707 H 1.3758334"
         id="path3311" />
      <path
         style="fill:#407796;fill-opacity:1;stroke-width:0.209353"
         d="M 0.95250007,294.25061 H 1.1641667 v 0.20707 H 0.95250007"
         id="path3307" />
      <path
         style="fill:#208ecd;fill-opacity:1;stroke-width:0.209353"
         d="m 0.74083341,294.25061 h 0.21166666 v 0.20707 H 0.74083341"
         id="path3305" />
      <path
         style="fill:#208ecd;fill-opacity:1;stroke-width:0.209353"
         d="m 0.52916676,294.25061 h 0.21166665 v 0.20707 H 0.52916676"
         id="path3303" />
      <path
         style="fill:#7dd1f6;fill-opacity:1;stroke-width:0.209353"
         d="m 4.5508332,294.04355 h 0.2116667 v 0.20706 H 4.5508332"
         id="path3301" />
      <path
         style="fill:#7dd1f6;fill-opacity:1;stroke-width:0.209353"
         d="m 4.3391665,294.04355 h 0.2116667 v 0.20706 H 4.3391665"
         id="path3299" />
      <path
         style="fill:#3ab7df;fill-opacity:1;stroke-width:0.209353"
         d="m 3.9158332,294.04355 h 0.2116667 v 0.20706 H 3.9158332"
         id="path3295" />
      <path
         style="fill:#35c3f1;fill-opacity:1;stroke-width:0.209353"
         d="m 3.7041666,294.04355 h 0.2116666 v 0.20706 H 3.7041666"
         id="path3293" />
      <path
         style="fill:#2888bf;fill-opacity:1;stroke-width:0.209353"
         d="m 3.2808333,294.04355 h 0.2116666 v 0.20706 H 3.2808333"
         id="path3289" />
      <path
         style="fill:#208ecd;fill-opacity:1;stroke-width:0.209353"
         d="m 3.0691666,294.04355 h 0.2116667 v 0.20706 H 3.0691666"
         id="path3287" />
      <path
         style="fill:#3082b2;fill-opacity:1;stroke-width:0.209353"
         d="m 2.8575,294.04355 h 0.2116666 v 0.20706 H 2.8575"
         id="path3285" />
      <path
         style="fill:#7dd1f6;fill-opacity:1;stroke-width:0.209353"
         d="m 2.4341667,294.04355 0.1587499,0.0518 0.052917,0.1553 H 2.4341667"
         id="path3281" />
      <path
         style="fill:#7dd1f6;fill-opacity:1;stroke-width:0.209353"
         d="m 2.2225,294.04355 h 0.2116667 v 0.20706 H 2.2225"
         id="path3279" />
      <path
         style="fill:#7dd1f6;fill-opacity:1;stroke-width:0.209353"
         d="m 1.9579167,294.09531 0.1058333,-0.10353 0.15875,0.0518 v 0.20706 H 2.0108333"
         id="path3277" />
      <path
         style="fill:#7dd1f6;fill-opacity:1;stroke-width:0.209353"
         d="m 1.7991667,294.04355 0.15875,0.0518 0.052917,0.1553 h -0.211667"
         id="path3275" />
      <path
         style="fill:#7dd1f6;fill-opacity:1;stroke-width:0.209353"
         d="m 1.5875,294.04355 h 0.2116667 v 0.20706 H 1.5875"
         id="path3273" />
      <path
         style="fill:#7dd1f6;fill-opacity:1;stroke-width:0.209353"
         d="M 1.3758334,294.04355 H 1.5875 v 0.20706 H 1.3758334"
         id="path3271" />
      <path
         style="fill:#407796;fill-opacity:1;stroke-width:0.209353"
         d="M 0.95250007,294.04355 H 1.1641667 v 0.20706 H 0.95250007"
         id="path3267" />
      <path
         style="fill:#208ecd;fill-opacity:1;stroke-width:0.209353"
         d="m 0.74083341,294.04355 h 0.21166666 v 0.20706 H 0.74083341"
         id="path3265" />
      <path
         style="fill:#208ecd;fill-opacity:1;stroke-width:0.209353"
         d="m 0.52916676,294.04355 h 0.21166665 v 0.20706 H 0.52916676"
         id="path3263" />
      <path
         style="fill:#7dd1f6;fill-opacity:1;stroke-width:0.209353"
         d="m 4.5508332,293.83648 h 0.2116667 v 0.20707 H 4.5508332"
         id="path3261" />
      <path
         style="fill:#7dd1f6;fill-opacity:1;stroke-width:0.209353"
         d="m 4.3391665,293.83648 h 0.2116667 v 0.20707 H 4.3391665"
         id="path3259" />
      <path
         style="fill:#3ab7df;fill-opacity:1;stroke-width:0.209353"
         d="m 3.9158332,293.83648 h 0.2116667 v 0.20707 H 3.9158332"
         id="path3255" />
      <path
         style="fill:#35c3f1;fill-opacity:1;stroke-width:0.209353"
         d="m 3.7041666,293.83648 h 0.2116666 v 0.20707 H 3.7041666"
         id="path3253" />
      <path
         style="fill:#2888bf;fill-opacity:1;stroke-width:0.209353"
         d="m 3.2808333,293.83648 h 0.2116666 v 0.20707 H 3.2808333"
         id="path3249" />
      <path
         style="fill:#208ecd;fill-opacity:1;stroke-width:0.209353"
         d="m 3.01625,293.88825 0.1058333,-0.10353 0.15875,0.0518 v 0.20707 H 3.0691666"
         id="path3247" />
      <path
         style="fill:#3082b2;fill-opacity:1;stroke-width:0.209353"
         d="m 2.8575,293.83648 0.15875,0.0518 0.052917,0.1553 H 2.8575"
         id="path3245" />
      <path
         style="fill:#76b6d2;fill-opacity:1;stroke-width:0.209353"
         d="M 2.0108333,293.83648 H 2.2225 v 0.20707 l -0.15875,-0.0518"
         id="path3237" />
      <path
         style="fill:#7dd1f6;fill-opacity:1;stroke-width:0.209353"
         d="m 1.7991667,293.83648 h 0.2116666 l 0.052917,0.1553 -0.1058333,0.10353 -0.15875,-0.0518"
         id="path3235" />
      <path
         style="fill:#7dd1f6;fill-opacity:1;stroke-width:0.209353"
         d="m 1.5875,293.83648 h 0.2116667 v 0.20707 H 1.5875"
         id="path3233" />
      <path
         style="fill:#7dd1f6;fill-opacity:1;stroke-width:0.209353"
         d="M 1.3758334,293.83648 H 1.5875 v 0.20707 H 1.3758334"
         id="path3231" />
      <path
         style="fill:#407796;fill-opacity:1;stroke-width:0.209353"
         d="M 0.95250007,293.83648 H 1.1641667 v 0.20707 H 0.95250007"
         id="path3227" />
      <path
         style="fill:#208ecd;fill-opacity:1;stroke-width:0.209353"
         d="m 0.74083341,293.83648 h 0.21166666 v 0.20707 H 0.74083341"
         id="path3225" />
      <path
         style="fill:#208ecd;fill-opacity:1;stroke-width:0.209353"
         d="m 0.52916676,293.83648 h 0.21166665 v 0.20707 H 0.52916676"
         id="path3223" />
      <path
         style="fill:#7dd1f6;fill-opacity:1;stroke-width:0.209353"
         d="m 4.5508332,293.62942 h 0.2116667 v 0.20706 H 4.5508332"
         id="path3221" />
      <path
         style="fill:#7dd1f6;fill-opacity:1;stroke-width:0.209353"
         d="m 4.3391665,293.62942 h 0.2116667 v 0.20706 H 4.3391665"
         id="path3219" />
      <path
         style="fill:#3ab7df;fill-opacity:1;stroke-width:0.209353"
         d="m 3.9158332,293.62942 h 0.2116667 v 0.20706 H 3.9158332"
         id="path3215" />
      <path
         style="fill:#35c3f1;fill-opacity:1;stroke-width:0.209353"
         d="m 3.7041666,293.62942 h 0.2116666 v 0.20706 H 3.7041666"
         id="path3213" />
      <path
         style="fill:#2888bf;fill-opacity:1;stroke-width:0.209353"
         d="m 3.2808333,293.62942 h 0.2116666 v 0.20706 H 3.2808333"
         id="path3209" />
      <path
         style="fill:#208ecd;fill-opacity:1;stroke-width:0.209353"
         d="m 3.0691666,293.62942 h 0.2116667 v 0.20706 l -0.15875,-0.0518"
         id="path3207" />
      <path
         style="fill:#208ecd;fill-opacity:1;stroke-width:0.209353"
         d="m 2.8045833,293.68118 0.1058333,-0.10353 0.15875,0.0518 0.052917,0.1553 -0.1058333,0.10353 -0.15875,-0.0518"
         id="path3205" />
      <path
         style="fill:#2888bf;fill-opacity:1;stroke-width:0.209353"
         d="m 2.6458333,293.62942 0.15875,0.0518 0.052917,0.1553 h -0.211667"
         id="path3203" />
      <path
         style="fill:#3082b2;fill-opacity:1;stroke-width:0.209353"
         d="m 2.4341667,293.62942 h 0.2116666 v 0.20706 H 2.4341667"
         id="path3201" />
      <path
         style="fill:#76b8d5;fill-opacity:1;stroke-width:0.209353"
         d="M 1.3758334,293.62942 H 1.5875 v 0.20706 H 1.3758334"
         id="path3191" />
      <path
         style="fill:#407796;fill-opacity:1;stroke-width:0.209353"
         d="M 0.95250007,293.62942 H 1.1641667 v 0.20706 H 0.95250007"
         id="path3187" />
      <path
         style="fill:#208ecd;fill-opacity:1;stroke-width:0.209353"
         d="m 0.74083341,293.62942 h 0.21166666 v 0.20706 H 0.74083341"
         id="path3185" />
      <path
         style="fill:#208ecd;fill-opacity:1;stroke-width:0.209353"
         d="m 0.52916676,293.62942 h 0.21166665 v 0.20706 H 0.52916676"
         id="path3183" />
      <path
         style="fill:#7dd1f6;fill-opacity:1;stroke-width:0.209353"
         d="m 4.5508332,293.42235 h 0.2116667 v 0.20707 H 4.5508332"
         id="path3181" />
      <path
         style="fill:#7dd1f6;fill-opacity:1;stroke-width:0.209353"
         d="m 4.3391665,293.42235 h 0.2116667 v 0.20707 H 4.3391665"
         id="path3179" />
      <path
         style="fill:#3ab7df;fill-opacity:1;stroke-width:0.209353"
         d="m 3.9158332,293.42235 h 0.2116667 v 0.20707 H 3.9158332"
         id="path3175" />
      <path
         style="fill:#35c3f1;fill-opacity:1;stroke-width:0.209353"
         d="m 3.7041666,293.42235 h 0.2116666 v 0.20707 H 3.7041666"
         id="path3173" />
      <path
         style="fill:#387da4;fill-opacity:1;stroke-width:0.209353"
         d="m 3.2808333,293.42235 0.15875,0.0518 0.052917,0.1553 h -0.211667"
         id="path3169" />
      <path
         style="fill:#208ecd;fill-opacity:1;stroke-width:0.209353"
         d="m 3.0691666,293.42235 h 0.2116667 v 0.20707 H 3.0691666"
         id="path3167" />
      <path
         style="fill:#208ecd;fill-opacity:1;stroke-width:0.209353"
         d="m 2.8575,293.42235 h 0.2116666 v 0.20707 l -0.15875,-0.0518"
         id="path3165" />
      <path
         style="fill:#208ecd;fill-opacity:1;stroke-width:0.209353"
         d="m 2.5929166,293.47412 0.1058334,-0.10353 0.15875,0.0518 0.052917,0.1553 -0.1058333,0.10353 -0.15875,-0.0518"
         id="path3163" />
      <path
         style="fill:#208ecd;fill-opacity:1;stroke-width:0.209353"
         d="m 2.4341667,293.42235 0.1587499,0.0518 0.052917,0.1553 H 2.4341667"
         id="path3161" />
      <path
         style="fill:#208ecd;fill-opacity:1;stroke-width:0.209353"
         d="m 2.1695833,293.47412 0.1058334,-0.10353 0.15875,0.0518 v 0.20707 H 2.2225"
         id="path3159" />
      <path
         style="fill:#2888bf;fill-opacity:1;stroke-width:0.209353"
         d="m 2.0108333,293.42235 0.15875,0.0518 0.052917,0.1553 h -0.211667"
         id="path3157" />
      <path
         style="fill:#3082b2;fill-opacity:1;stroke-width:0.209353"
         d="m 1.7991667,293.42235 h 0.2116666 v 0.20707 H 1.7991667"
         id="path3155" />
      <path
         style="fill:#407796;fill-opacity:1;stroke-width:0.209353"
         d="M 0.95250007,293.42235 H 1.1641667 v 0.20707 H 0.95250007"
         id="path3147" />
      <path
         style="fill:#208ecd;fill-opacity:1;stroke-width:0.209353"
         d="m 0.74083341,293.42235 h 0.21166666 v 0.20707 H 0.74083341"
         id="path3145" />
      <path
         style="fill:#208ecd;fill-opacity:1;stroke-width:0.209353"
         d="m 0.52916676,293.42235 h 0.21166665 v 0.20707 H 0.52916676"
         id="path3143" />
      <path
         style="fill:#7dd1f6;fill-opacity:1;stroke-width:0.209353"
         d="m 4.5508332,293.21529 h 0.2116667 v 0.20706 H 4.5508332"
         id="path3141" />
      <path
         style="fill:#7dd1f6;fill-opacity:1;stroke-width:0.209353"
         d="m 4.3391665,293.21529 h 0.2116667 v 0.20706 H 4.3391665"
         id="path3139" />
      <path
         style="fill:#3ab7df;fill-opacity:1;stroke-width:0.209353"
         d="m 3.9158332,293.21529 h 0.2116667 v 0.20706 H 3.9158332"
         id="path3135" />
      <path
         style="fill:#35c3f1;fill-opacity:1;stroke-width:0.209353"
         d="m 3.6512499,293.26705 0.1058333,-0.10353 0.15875,0.0518 v 0.20706 H 3.7041666"
         id="path3133" />
      <path
         style="fill:#459eba;fill-opacity:1;stroke-width:0.209353"
         d="m 3.4924999,293.21529 0.15875,0.0518 0.052917,0.1553 -0.15875,-0.0518"
         id="path3131" />
      <path
         style="fill:#3082b2;fill-opacity:1;stroke-width:0.209353"
         d="M 2.6458333,293.21529 H 2.8575 v 0.20706 l -0.15875,-0.0518"
         id="path3123" />
      <path
         style="fill:#208ecd;fill-opacity:1;stroke-width:0.209353"
         d="m 2.4341667,293.21529 h 0.2116666 l 0.052917,0.1553 -0.1058334,0.10353 -0.1587499,-0.0518"
         id="path3121" />
      <path
         style="fill:#208ecd;fill-opacity:1;stroke-width:0.209353"
         d="m 2.2225,293.21529 h 0.2116667 v 0.20706 l -0.15875,-0.0518"
         id="path3119" />
      <path
         style="fill:#208ecd;fill-opacity:1;stroke-width:0.209353"
         d="m 1.9579167,293.26705 0.1058333,-0.10353 0.15875,0.0518 0.052917,0.1553 -0.1058334,0.10353 -0.15875,-0.0518"
         id="path3117" />
      <path
         style="fill:#208ecd;fill-opacity:1;stroke-width:0.209353"
         d="m 1.7991667,293.21529 0.15875,0.0518 0.052917,0.1553 h -0.211667"
         id="path3115" />
      <path
         style="fill:#208ecd;fill-opacity:1;stroke-width:0.209353"
         d="m 1.5345834,293.26705 0.1058333,-0.10353 0.15875,0.0518 v 0.20706 H 1.5875"
         id="path3113" />
      <path
         style="fill:#2888bf;fill-opacity:1;stroke-width:0.209353"
         d="m 1.3758334,293.21529 0.15875,0.0518 0.052917,0.1553 h -0.211667"
         id="path3111" />
      <path
         style="fill:#3082b2;fill-opacity:1;stroke-width:0.209353"
         d="m 1.1641667,293.21529 h 0.2116667 v 0.20706 H 1.1641667"
         id="path3109" />
      <path
         style="fill:#387da4;fill-opacity:1;stroke-width:0.209353"
         d="m 1.0054167,293.26705 0.15875,-0.0518 v 0.20706 H 0.95250007"
         id="path3107" />
      <path
         style="fill:#208ecd;fill-opacity:1;stroke-width:0.209353"
         d="m 0.74083341,293.21529 0.15875,-0.0518 0.10583329,0.10353 -0.0529166,0.1553 H 0.74083341"
         id="path3105" />
      <path
         style="fill:#208ecd;fill-opacity:1;stroke-width:0.209353"
         d="m 0.52916676,293.21529 h 0.21166665 v 0.20706 H 0.52916676"
         id="path3103" />
      <path
         style="fill:#7dd1f6;fill-opacity:1;stroke-width:0.209353"
         d="m 4.5508332,293.00822 h 0.2116667 v 0.20707 H 4.5508332"
         id="path3101" />
      <path
         style="fill:#7dd1f6;fill-opacity:1;stroke-width:0.209353"
         d="m 4.3391665,293.00822 h 0.2116667 v 0.20707 H 4.3391665"
         id="path3099" />
      <path
         style="fill:#3ab7df;fill-opacity:1;stroke-width:0.209353"
         d="m 3.9158332,293.00822 0.15875,0.0518 0.052917,0.1553 h -0.211667"
         id="path3095" />
      <path
         style="fill:#35c3f1;fill-opacity:1;stroke-width:0.209353"
         d="m 3.7041666,293.00822 h 0.2116666 v 0.20707 l -0.15875,-0.0518"
         id="path3093" />
      <path
         style="fill:#35c3f1;fill-opacity:1;stroke-width:0.209353"
         d="m 3.4395833,293.05999 0.1058333,-0.10353 0.15875,0.0518 0.052917,0.1553 -0.1058333,0.10353 -0.15875,-0.0518"
         id="path3091" />
      <path
         style="fill:#35c3f1;fill-opacity:1;stroke-width:0.209353"
         d="m 3.2279166,293.05999 0.1058333,-0.10353 0.1058334,0.10353 0.052917,0.1553 h -0.211667"
         id="path3089" />
      <path
         style="fill:#40aacc;fill-opacity:1;stroke-width:0.209353"
         d="m 3.0691666,293.00822 0.15875,0.0518 0.052917,0.1553 h -0.211667"
         id="path3087" />
      <path
         style="fill:#4a91a8;fill-opacity:1;stroke-width:0.209353"
         d="m 2.8575,293.00822 h 0.2116666 v 0.20707 H 2.8575"
         id="path3085" />
      <path
         style="fill:#3082b2;fill-opacity:1;stroke-width:0.209353"
         d="M 2.0108333,293.00822 H 2.2225 v 0.20707 l -0.15875,-0.0518"
         id="path3077" />
      <path
         style="fill:#208ecd;fill-opacity:1;stroke-width:0.209353"
         d="m 1.7991667,293.00822 h 0.2116666 l 0.052917,0.1553 -0.1058333,0.10353 -0.15875,-0.0518"
         id="path3075" />
      <path
         style="fill:#208ecd;fill-opacity:1;stroke-width:0.209353"
         d="m 1.5875,293.00822 h 0.2116667 v 0.20707 l -0.15875,-0.0518"
         id="path3073" />
      <path
         style="fill:#208ecd;fill-opacity:1;stroke-width:0.209353"
         d="m 1.3229167,293.05999 0.1058333,-0.10353 0.15875,0.0518 0.052917,0.1553 -0.1058333,0.10353 -0.15875,-0.0518"
         id="path3071" />
      <path
         style="fill:#208ecd;fill-opacity:1;stroke-width:0.209353"
         d="m 1.1641667,293.00822 0.15875,0.0518 0.052917,0.1553 h -0.211667"
         id="path3069" />
      <path
         style="fill:#208ecd;fill-opacity:1;stroke-width:0.209353"
         d="M 0.95250007,293.00822 H 1.1641667 v 0.20707 l -0.15875,0.0518 -0.10583329,-0.10353"
         id="path3067" />
      <path
         style="fill:#208ecd;fill-opacity:1;stroke-width:0.209353"
         d="m 0.74083341,293.00822 h 0.21166666 l -0.0529167,0.1553 -0.15875,0.0518"
         id="path3065" />
      <path
         style="fill:#208ecd;fill-opacity:1;stroke-width:0.209353"
         d="m 0.52916676,293.00822 h 0.21166665 v 0.20707 H 0.52916676"
         id="path3063" />
      <path
         style="fill:#7dd1f6;fill-opacity:1;stroke-width:0.209353"
         d="m 4.5508332,292.80116 h 0.2116667 v 0.20706 H 4.5508332"
         id="path3061" />
      <path
         style="fill:#7dd1f6;fill-opacity:1;stroke-width:0.209353"
         d="m 4.2862499,292.85293 0.1058333,-0.10354 0.15875,0.0518 v 0.20706 H 4.3391665"
         id="path3059" />
      <path
         style="fill:#40aacc;fill-opacity:1;stroke-width:0.209353"
         d="m 3.4924999,292.80116 h 0.2116667 v 0.20706 l -0.15875,-0.0518"
         id="path3051" />
      <path
         style="fill:#35c3f1;fill-opacity:1;stroke-width:0.209353"
         d="m 3.2808333,292.80116 h 0.2116666 l 0.052917,0.1553 -0.1058333,0.10353 -0.1058334,-0.10353"
         id="path3049" />
      <path
         style="fill:#35c3f1;fill-opacity:1;stroke-width:0.209353"
         d="m 3.0691666,292.80116 h 0.2116667 l 0.052917,0.1553 -0.1058333,0.10353 -0.15875,-0.0518"
         id="path3047" />
      <path
         style="fill:#35c3f1;fill-opacity:1;stroke-width:0.209353"
         d="m 2.8045833,292.85293 0.1058333,-0.10354 0.15875,0.0518 v 0.20706 H 2.8575"
         id="path3045" />
      <path
         style="fill:#35c3f1;fill-opacity:1;stroke-width:0.209353"
         d="m 2.5929166,292.85293 0.1058334,-0.10354 0.1058333,0.10354 0.052917,0.15529 h -0.211667"
         id="path3043" />
      <path
         style="fill:#40aacc;fill-opacity:1;stroke-width:0.209353"
         d="m 2.4341667,292.80116 0.1587499,0.0518 0.052917,0.15529 H 2.4341667"
         id="path3041" />
      <path
         style="fill:#3082b2;fill-opacity:1;stroke-width:0.209353"
         d="M 1.3758334,292.80116 H 1.5875 v 0.20706 l -0.15875,-0.0518"
         id="path3031" />
      <path
         style="fill:#208ecd;fill-opacity:1;stroke-width:0.209353"
         d="m 1.1641667,292.80116 h 0.2116667 l 0.052917,0.1553 -0.1058333,0.10353 -0.15875,-0.0518"
         id="path3029" />
      <path
         style="fill:#208ecd;fill-opacity:1;stroke-width:0.209353"
         d="m 0.89958341,292.85293 0.10583329,-0.10354 0.15875,0.0518 v 0.20706 H 0.95250007"
         id="path3027" />
      <path
         style="fill:#208ecd;fill-opacity:1;stroke-width:0.209353"
         d="m 0.74083341,292.80116 0.15875,0.0518 0.0529167,0.15529 h -0.2116667"
         id="path3025" />
      <path
         style="fill:#208ecd;fill-opacity:1;stroke-width:0.209353"
         d="m 0.52916676,292.80116 h 0.21166665 v 0.20706 H 0.52916676"
         id="path3023" />
      <path
         style="fill:#7dd1f6;fill-opacity:1;stroke-width:0.209353"
         d="m 4.5508332,292.59409 h 0.2116667 v 0.20707 H 4.5508332"
         id="path3021" />
      <path
         style="fill:#7dd1f6;fill-opacity:1;stroke-width:0.209353"
         d="m 4.2862499,292.64586 0.1058333,-0.10353 0.15875,0.0518 v 0.20707 l -0.15875,-0.0518"
         id="path3019" />
      <path
         style="fill:#7dd1f6;fill-opacity:1;stroke-width:0.209353"
         d="m 4.1274999,292.59409 0.15875,0.0518 0.1058333,0.10353 -0.1058333,0.10354 -0.15875,-0.0518"
         id="path3017" />
      <path
         style="fill:#79c3e3;fill-opacity:1;stroke-width:0.209353"
         d="m 3.8629166,292.64586 0.1058333,-0.10353 0.15875,0.0518 v 0.20707 H 3.9158332"
         id="path3015" />
      <path
         style="fill:#4a91a8;fill-opacity:1;stroke-width:0.209353"
         d="m 3.0691666,292.59409 0.15875,0.0518 0.052917,0.1553 h -0.211667"
         id="path3007" />
      <path
         style="fill:#40aacc;fill-opacity:1;stroke-width:0.209353"
         d="m 2.8575,292.59409 h 0.2116666 v 0.20707 l -0.15875,-0.0518"
         id="path3005" />
      <path
         style="fill:#35c3f1;fill-opacity:1;stroke-width:0.209353"
         d="M 2.6458333,292.59409 H 2.8575 l 0.052917,0.1553 -0.1058333,0.10354 -0.1058333,-0.10354"
         id="path3003" />
      <path
         style="fill:#35c3f1;fill-opacity:1;stroke-width:0.209353"
         d="m 2.38125,292.64586 0.1058333,-0.10353 0.15875,0.0518 0.052917,0.1553 -0.1058334,0.10354 -0.1587499,-0.0518"
         id="path3001" />
      <path
         style="fill:#35c3f1;fill-opacity:1;stroke-width:0.209353"
         d="m 2.1695833,292.64586 0.1058334,-0.10353 0.1058333,0.10353 0.052917,0.1553 H 2.2225"
         id="path2999" />
      <path
         style="fill:#3ab7df;fill-opacity:1;stroke-width:0.209353"
         d="m 2.0108333,292.59409 0.15875,0.0518 0.052917,0.1553 h -0.211667"
         id="path2997" />
      <path
         style="fill:#40aacc;fill-opacity:1;stroke-width:0.209353"
         d="m 1.7991667,292.59409 h 0.2116666 v 0.20707 H 1.7991667"
         id="path2995" />
      <path
         style="fill:#387da4;fill-opacity:1;stroke-width:0.209353"
         d="M 0.95250007,292.59409 H 1.1641667 v 0.20707 l -0.15875,-0.0518"
         id="path2987" />
      <path
         style="fill:#208ecd;fill-opacity:1;stroke-width:0.209353"
         d="m 0.74083341,292.59409 h 0.21166666 l 0.0529166,0.1553 -0.10584859,0.10354 -0.15875,-0.0518"
         id="path2985" />
      <path
         style="fill:#208ecd;fill-opacity:1;stroke-width:0.209353"
         d="m 0.52916676,292.59409 h 0.21166665 v 0.20707 H 0.52916676"
         id="path2983" />
      <path
         style="fill:#7dd1f6;fill-opacity:1;stroke-width:0.209353"
         d="m 4.1274999,292.38703 h 0.2116666 l 0.052917,0.1553 -0.1058333,0.10353 -0.15875,-0.0518"
         id="path2977" />
      <path
         style="fill:#7dd1f6;fill-opacity:1;stroke-width:0.209353"
         d="m 3.9158332,292.38703 h 0.2116667 v 0.20706 l -0.15875,-0.0518"
         id="path2975" />
      <path
         style="fill:#7dd1f6;fill-opacity:1;stroke-width:0.209353"
         d="m 3.6512499,292.4388 0.1058333,-0.10354 0.15875,0.0518 0.052917,0.1553 -0.1058333,0.10353 -0.15875,-0.0518"
         id="path2973" />
      <path
         style="fill:#7dd1f6;fill-opacity:1;stroke-width:0.209353"
         d="m 3.4924999,292.38703 0.15875,0.0518 0.052917,0.15529 h -0.211667"
         id="path2971" />
      <path
         style="fill:#79c3e3;fill-opacity:1;stroke-width:0.209353"
         d="m 3.2279166,292.4388 0.1058333,-0.10354 0.15875,0.0518 v 0.20706 l -0.15875,-0.0518"
         id="path2969" />
      <path
         style="fill:#459eba;fill-opacity:1;stroke-width:0.209353"
         d="m 2.4341667,292.38703 h 0.2116666 v 0.20706 l -0.15875,-0.0518"
         id="path2961" />
      <path
         style="fill:#35c3f1;fill-opacity:1;stroke-width:0.209353"
         d="m 2.2225,292.38703 h 0.2116667 l 0.052917,0.1553 -0.1058333,0.10353 -0.1058333,-0.10353"
         id="path2959" />
      <path
         style="fill:#35c3f1;fill-opacity:1;stroke-width:0.209353"
         d="M 2.0108333,292.38703 H 2.2225 l 0.052917,0.1553 -0.1058334,0.10353 -0.15875,-0.0518"
         id="path2957" />
      <path
         style="fill:#35c3f1;fill-opacity:1;stroke-width:0.209353"
         d="m 1.7991667,292.38703 h 0.2116666 v 0.20706 H 1.7991667"
         id="path2955" />
      <path
         style="fill:#6e98aa;fill-opacity:1;stroke-width:0.209353"
         d="m 3.9158332,292.17996 0.15875,0.0518 0.052917,0.1553 h -0.211667"
         id="path2935" />
      <path
         style="fill:#76b5d0;fill-opacity:1;stroke-width:0.209353"
         d="m 3.7041666,292.17996 h 0.2116666 v 0.20707 l -0.15875,-0.0518"
         id="path2933" />
      <path
         style="fill:#7dd1f6;fill-opacity:1;stroke-width:0.209353"
         d="m 3.4924999,292.17996 h 0.2116667 l 0.052917,0.1553 -0.1058333,0.10354 -0.15875,-0.0518"
         id="path2931" />
      <path
         style="fill:#7dd1f6;fill-opacity:1;stroke-width:0.209353"
         d="m 3.2808333,292.17996 h 0.2116666 v 0.20707 l -0.15875,-0.0518"
         id="path2929" />
      <path
         style="fill:#79c3e3;fill-opacity:1;stroke-width:0.209353"
         d="m 3.0691666,292.17996 h 0.2116667 l 0.052917,0.1553 -0.1058333,0.10354 -0.15875,-0.0518"
         id="path2927" />
    </g>
  </g>
</svg>
