/* XPM */
static const char * grip_tile_xpm[] = {
"6 6 4 1",
" 	c None",
".	c #FCFEFC",
"+	c #D4D6D4",
"@	c #9C9294",
".+++++",
"+@+.++",
"++++@+",
".+++++",
"+@+.++",
"++++@+"};
