/* XPM */
static char *dummy[]={
"24 24 151 2",
"au c #e2e386",
"#f c #e2e285",
".c c #e2e386",
"#n c #e0dc7f",
"#z c #ddd375",
"ar c #e2e386",
"aq c #e2e386",
"as c #7f804c",
"ap c #e2e386",
".t c #e1e083",
"#J c #e1e184",
"Qt c #e2e386",
"at c #575734",
".O c #dbcb6d",
"#A c #dcd073",
"#o c #d4b255",
"#g c #cfa446",
".5 c #d2ad4f",
"ao c #595936",
"al c #5a5a36",
"aj c #5b5b37",
"ah c #5b5c37",
"af c #5c5c37",
"ad c #5d5d38",
"a# c #615e38",
".m c #64643c",
".k c #64653c",
".i c #65653d",
".0 c #664615",
".g c #66663d",
".e c #68683e",
".b c #68693e",
".r c #6a683f",
".a c #6e6e41",
"#C c #6f4c17",
".d c #6f6f42",
".f c #707042",
"#q c #714d17",
".h c #717143",
".j c #717244",
".l c #727244",
".q c #787848",
"ac c #7c7d4a",
"ae c #7d7d4a",
"ag c #7e7f4b",
"a. c #7f7b49",
"ai c #7f804b",
"ak c #81814c",
"am c #82824d",
"an c #82824e",
".8 c #8a5e1c",
"#b c #8e611d",
"#l c #94651f",
".7 c #98681f",
"#k c #996920",
"#x c #9b6a20",
".R c #9e6c21",
"#w c #9f6d21",
".Q c #a97424",
".1 c #b77e27",
"#c c #be8227",
"#Z c #c49753",
"#Y c #c5974e",
".S c #c78829",
"#H c #c7882a",
"#v c #c7892a",
".T c #c7892c",
"#p c #c8892a",
".6 c #c88a2b",
"#a c #c88b2f",
"#P c #c88c2d",
"#O c #c88c30",
".9 c #c88c31",
".Z c #c88e36",
"#D c #c88f37",
".E c #c8a369",
"#M c #c9903b",
"#j c #c9923d",
"#d c #ca9334",
"#G c #ca9340",
".D c #caa56c",
"#4 c #cb9335",
"#B c #cb9435",
"#y c #cb9537",
"#u c #cb9646",
"#3 c #cb973b",
".U c #cb984b",
"#L c #cc9637",
"#V c #cc9839",
"#W c #cc983c",
"#I c #cc993a",
"#2 c #cc9b48",
"#N c #cc9d53",
"#r c #cc9d54",
"#U c #cd993a",
"#T c #cd9a3c",
".2 c #cd9b3d",
".P c #cd9c3d",
"#X c #cd9d49",
"#1 c #cda053",
"## c #cda05c",
"#0 c #cda258",
"#. c #cda260",
"#5 c #cea142",
".Y c #cea360",
"#h c #cea464",
"#E c #cea668",
"#F c #cfa96e",
".V c #cfa96f",
"#i c #cfaa6f",
"#S c #d0a346",
"#m c #d0a648",
"#t c #d0ab72",
".X c #d0ab73",
"#s c #d0ac73",
".W c #d0ac74",
".B c #d1ad68",
".F c #d1ad6a",
".C c #d1ad6d",
".x c #d2aa4c",
".y c #d2aa4d",
".z c #d2ac52",
".A c #d2ac5d",
".G c #d2ae5f",
".H c #d2af55",
".I c #d2b052",
".w c #d3af50",
".J c #d3b254",
".K c #d5b95a",
"#R c #d5b95b",
"#6 c #d6ba5c",
".v c #d7bd5f",
"#K c #dac76a",
".L c #daca6b",
".3 c #daca6c",
"#e c #dccc6f",
".u c #dcd174",
"#Q c #ded578",
"#7 c #dfd77a",
".M c #dfdb7d",
".4 c #e1e184",
"aa c #e2de81",
"#9 c #e2df82",
".p c #e2df86",
"#8 c #e2e083",
".o c #e2e086",
"ab c #e2e184",
".s c #e2e186",
".N c #e2e285",
".n c #e2e286",
".# c #e2e386",
"Qt.#.#.#.#.#.#.#.#.#.#.a.b.#.#.#.#.#.#.#.#.#.#.c",
"Qt.#.#.#.#.#.#.#.#.#.#.d.e.#.#.#.#.#.#.#.#.#.#.c",
"Qt.#.#.#.#.#.#.#.#.#.#.f.g.#.#.#.#.#.#.#.#.#.#.c",
"Qt.#.#.#.#.#.#.#.#.#.#.h.i.#.#.#.#.#.#.#.#.#.#.c",
"Qt.#.#.#.#.#.#.#.#.#.#.j.k.#.#.#.#.#.#.#.#.#.#.c",
"Qt.#.#.#.#.#.#.#.#.#.#.l.m.#.#.#.#.#.#.#.#.#.#.c",
"Qt.#.#.#.#.#.#.#.n.o.p.q.r.s.#.#.#.#.#.#.#.#.#.c",
".t.u.v.w.x.y.y.z.A.B.C.D.E.F.G.H.I.J.K.L.M.N.#.c",
".O.P.Q.R.S.S.T.U.V.W.W.W.W.W.X.Y.Z.S.0.1.2.3.4.c",
".5.6.7.8.S.S.9#..W.W.W.W.W.W.W.W###a#b#c.S#d#e#f",
"#g.S.S.S.S.S.9#h.W.W.W.W.W.W.W.W#i#j.S#k#l.S#m#n",
"#o#p.S.S.S#q.T#r#s.W.W.W.W.W.W.W#t#u#v#w#x.S#y#z",
"#A#B.S.S.S#C.S#D#E.W.W.W.W.W.W.W#F#G#H.S.S.S#I#z",
"#J#K#L#v.S.S.S#H#M.Y#t.W.W.W.W#i#N#O.S.S.S#P.J#n",
"Qt.N#Q#R#S#T#U#V#V#W#X#Y#Z#0#1#2#3#B#4#L#5#6#7#f",
"Qt.#.#.N#8#9#9#9#9#9#9a.a##9#9#9#9aaaaaa#9ab.#.c",
"Qt.#.#.#.#.#.#.#.#.#.#acad.#.#.#.#.#.#.#.#.#.#.c",
"Qt.#.#.#.#.#.#.#.#.#.#aeaf.#.#.#.#.#.#.#.#.#.#.c",
"Qt.#.#.#.#.#.#.#.#.#.#agah.#.#.#.#.#.#.#.#.#.#.c",
"Qt.#.#.#.#.#.#.#.#.#.#aiaj.#.#.#.#.#.#.#.#.#.#.c",
"Qt.#.#.#.#.#.#.#.#.#.#akal.#.#.#.#.#.#.#.#.#.#.c",
"Qt.#.#.#.#.#.#.#.#.#.#amal.#.#.#.#.#.#.#.#.#.#.c",
"Qt.#.#.#.#.#.#.#.#.#.#anao.#.#.#.#.#.#.#.#.#.#.c",
"ap.#.#.#aqararararararasatararararararararararau"};
