/* XPM */
static char * redo_xpm[] = {
"32 32 140 2",
"  	c None",
". 	c #BAAD96",
"+ 	c #B29A54",
"@ 	c #B89B3B",
"# 	c #C8AE49",
"$ 	c #C3A93D",
"% 	c #B69B38",
"& 	c #B39C5A",
"* 	c #BBB09C",
"= 	c #BAAF9D",
"- 	c #BCB1A1",
"; 	c #B39C5B",
"> 	c #C7A427",
", 	c #EED159",
"' 	c #F4DF69",
") 	c #F9EC72",
"! 	c #F9EC71",
"~ 	c #F3DE64",
"{ 	c #EBD354",
"] 	c #C4AA29",
"^ 	c #B5A069",
"/ 	c #B6A478",
"( 	c #B99D23",
"_ 	c #AF9023",
": 	c #AE8D25",
"< 	c #DFB942",
"[ 	c #F5E069",
"} 	c #F7E567",
"| 	c #F5DF67",
"1 	c #DDC54B",
"2 	c #C4AC2A",
"3 	c #F1D967",
"4 	c #B19314",
"5 	c #B19953",
"6 	c #C8A238",
"7 	c #F3DA68",
"8 	c #F3D965",
"9 	c #F3D966",
"0 	c #EEC854",
"a 	c #E8B73A",
"b 	c #E8B73E",
"c 	c #EFCC5F",
"d 	c #F3DA65",
"e 	c #F3DB66",
"f 	c #F3DC68",
"g 	c #F3D969",
"h 	c #B9AB8D",
"i 	c #9F7A17",
"j 	c #EAC65B",
"k 	c #EECA5C",
"l 	c #E2A227",
"m 	c #CD8806",
"n 	c #C5901A",
"o 	c #C89615",
"p 	c #D59C0E",
"q 	c #DEAA21",
"r 	c #EBCD55",
"s 	c #EFD463",
"t 	c #EFD363",
"u 	c #EED164",
"v 	c #B09314",
"w 	c #AF964B",
"x 	c #AE8834",
"y 	c #ECC155",
"z 	c #EBC056",
"A 	c #E09D22",
"B 	c #996709",
"C 	c #876A0E",
"D 	c #AA9041",
"E 	c #AB8F38",
"F 	c #977A13",
"G 	c #C39D12",
"H 	c #DAB316",
"I 	c #E9CE56",
"J 	c #EBCF5C",
"K 	c #EBCB5D",
"L 	c #A28120",
"M 	c #C39337",
"N 	c #E6B54D",
"O 	c #DFA941",
"P 	c #C88C1F",
"Q 	c #A6810E",
"R 	c #B7A57B",
"S 	c #AC8B15",
"T 	c #D7BA11",
"U 	c #E1C92E",
"V 	c #E7CF4E",
"W 	c #E6C850",
"X 	c #E3BB40",
"Y 	c #B09214",
"Z 	c #8D6A07",
"` 	c #D3A044",
" .	c #DBAC55",
"..	c #D3A04B",
"+.	c #C3942B",
"@.	c #B19647",
"#.	c #BAAE96",
"$.	c #AB8713",
"%.	c #D1B21A",
"&.	c #D5B921",
"*.	c #D0B229",
"=.	c #C9AA27",
"-.	c #C39F18",
";.	c #C29D1A",
">.	c #AA8810",
",.	c #8F6A06",
"'.	c #C59138",
").	c #D19E4B",
"!.	c #CEA055",
"~.	c #C09536",
"{.	c #B19545",
"].	c #A88410",
"^.	c #A67F00",
"/.	c #A67F01",
"(.	c #A67F02",
"_.	c #AD9035",
":.	c #B8AA8A",
"<.	c #A58525",
"[.	c #AC843D",
"}.	c #CBA15D",
"|.	c #CAA366",
"1.	c #C6A56B",
"2.	c #AE880F",
"3.	c #B0974D",
"4.	c #A48440",
"5.	c #C8A671",
"6.	c #C6AA7B",
"7.	c #C6AE83",
"8.	c #BBA052",
"9.	c #A9840F",
"0.	c #B09649",
"a.	c #B9AB90",
"b.	c #A17C10",
"c.	c #C0AA82",
"d.	c #C4AF8D",
"e.	c #C3B292",
"f.	c #C2B49A",
"g.	c #B4A069",
"h.	c #B29C65",
"i.	c #C1B5A0",
"                                                                ",
"                                                                ",
"                                                                ",
"                                                                ",
"                                                                ",
"                                                                ",
"                                                                ",
"                                                                ",
"                                                                ",
"                          . + @ # $ % & *     = -               ",
"                        ; > , ' ) ! ~ { ] ^ / ( _               ",
"                      : < [ } } } } } } | 1 2 3 4               ",
"                    5 6 7 8 9 0 a b c d e f g g 4               ",
"                  h i j c k l m n o p q r s t u v               ",
"                  w x y z A B C D E F G H I J K 4               ",
"                  L M N O P Q     R S T U V W X Y               ",
"                  Z `  ...+.@.  #.$.%.&.*.=.-.;.>.              ",
"                  ,.'.).!.~.{.  #.].^.^./.^.(._.:.              ",
"                  <.[.}.|.1.2.-                                 ",
"                  3.4.5.6.7.8.9.0.                              ",
"                  a.b.c.d.e.f.                                  ",
"                    g.h.  i.                                    ",
"                                                                ",
"                                                                ",
"                                                                ",
"                                                                ",
"                                                                ",
"                                                                ",
"                                                                ",
"                                                                ",
"                                                                ",
"                                                                "};
