/* XPM */
static char * reel_delete_xpm[] = {
"32 32 94 2",
"  	c None",
". 	c #C40000",
"+ 	c #000000",
"@ 	c #8080B2",
"# 	c #090000",
"$ 	c #920000",
"% 	c #C10000",
"& 	c #4A0000",
"* 	c #0D0000",
"= 	c #990000",
"- 	c #650000",
"; 	c #A40000",
"> 	c #C30000",
", 	c #4C0000",
"' 	c #110000",
") 	c #BA1219",
"! 	c #590000",
"~ 	c #0F0000",
"{ 	c #9C0000",
"] 	c #600000",
"^ 	c #170000",
"/ 	c #C20000",
"( 	c #4F0000",
"_ 	c #827AAA",
": 	c #B51B26",
"< 	c #6B0000",
"[ 	c #1D0000",
"} 	c #AD0000",
"| 	c #C00000",
"1 	c #975475",
"2 	c #070000",
"3 	c #8D0000",
"4 	c #760000",
"5 	c #020000",
"6 	c #240000",
"7 	c #B30000",
"8 	c #BD0000",
"9 	c #3B0000",
"0 	c #040000",
"a 	c #840000",
"b 	c #800000",
"c 	c #2E0000",
"d 	c #B60000",
"e 	c #C00608",
"f 	c #330000",
"g 	c #AA3043",
"h 	c #2B0000",
"i 	c #43435D",
"j 	c #807FB1",
"k 	c #700000",
"l 	c #B20000",
"m 	c #7979A9",
"n 	c #460000",
"o 	c #A00000",
"p 	c #6E6E99",
"q 	c #7777A6",
"r 	c #2E2E40",
"s 	c #500000",
"t 	c #A10000",
"u 	c #120000",
"v 	c #666666",
"w 	c #6C6C97",
"x 	c #323246",
"y 	c #5B0000",
"z 	c #A80000",
"A 	c #A33C54",
"B 	c #A30A0E",
"C 	c #23161E",
"D 	c #070709",
"E 	c #450000",
"F 	c #B90609",
"G 	c #755A7E",
"H 	c #7C7CAD",
"I 	c #010000",
"J 	c #740000",
"K 	c #B2212E",
"L 	c #8379A9",
"M 	c #94597C",
"N 	c #C10405",
"O 	c #BE0B0F",
"P 	c #8C6790",
"Q 	c #7B0000",
"R 	c #880000",
"S 	c #827BAC",
"T 	c #915F85",
"U 	c #B70000",
"V 	c #2C0000",
"W 	c #7E0000",
"X 	c #3D0000",
"Y 	c #C20202",
"Z 	c #3F0000",
"` 	c #A60000",
" .	c #915F84",
"..	c #B61A24",
"                                                                ",
"                                                                ",
"                                                                ",
"        . .                                     . .             ",
"      . . . .             + + + + + + +       . . . .           ",
"        . . . .   + + + + + + + @ + + + + # $ . . . .           ",
"          . . . % & + @ + + + + @ + + + * = . . . -             ",
"            ; . . > , + @ @ + + + + + ' ) . . > ! + +           ",
"          + ~ { . . . ] + + @ + + + ^ ) . . / ( + + + +         ",
"          + @ _ : . . . < + + + + [ } . . | 1 @ @ @ @ +         ",
"        + + + + 2 3 . . . 4 5 + 6 7 . . 8 9 + + + + + + + +     ",
"        + + + + + 0 a . . . b c d . . e f + + + + + + + + +     ",
"          + + + + + 5 g . . . % . . d h @ @ + + + + + + i @ +   ",
"          + + + + + @ j k . . . . l 6 + + @ @ + + + + + m @ +   ",
"        + + + + + + + + n / . . . o * + + + + + + + + p @ @ +   ",
"        + + q r + + + s / . . > . . t u + + + + + r v + + + +   ",
"          + @ @ w x y > . . o ! / . . z ^ + + x w @ v @ @ @ +   ",
"          + + + @ A . . . B C D E | . . F G H @ @ @ v @ @ @ +   ",
"            + I J . . . K L @ @ @ M N . . O P @ @ + + @ @ @ +   ",
"              Q . . . R S @ @ @ @ @ T e . . U V + + + + + + +   ",
"            . . . . W + + + + + + + + h d . . .     + @ @ @ +   ",
"          . . . . .         + + + + +     . . . . X @ @ @ @ +   ",
"        . . . . .                           . . . Y Z @ @ +     ",
"        . . .                                 ` . N  .+ @ +     ",
"          .                                   ' ..M @ @ +       ",
"                                                I @ @ +         ",
"                                                  + +           ",
"                                                                ",
"                                                                ",
"                                                                ",
"                                                                ",
"                                                                "};
