/* XPM */
static const char * const reel_delete_36_xpm[] = {
"36 36 149 2",
"       c None",
".      c #FF0000",
"+      c #000000",
"@      c #010101",
"#      c #525272",
"$      c #3F0000",
"%      c #0F0000",
"&      c #292939",
"*      c #3B3B52",
"=      c #8989BE",
"-      c #8A4B68",
";      c #F50000",
">      c #D30000",
",      c #210000",
"'      c #42425C",
")      c #8D8DC4",
"!      c #111118",
"~      c #050507",
"{      c #3D3D54",
"]      c #A36E9A",
"^      c #F20101",
"/      c #D70000",
"(      c #160000",
"_      c #FD0000",
":      c #EC0000",
"<      c #430305",
"[      c #060608",
"}      c #000001",
"|      c #71719D",
"1      c #2E2E40",
"2      c #69374D",
"3      c #EF0000",
"4      c #DF0001",
"5      c #200407",
"6      c #030305",
"7      c #540000",
"8      c #F80305",
"9      c #FB0203",
"0      c #AB4966",
"a      c #393950",
"b      c #290000",
"c      c #EA0000",
"d      c #F10B0F",
"e      c #866289",
"f      c #7575A3",
"g      c #4B4B68",
"h      c #300000",
"i      c #E10000",
"j      c #910000",
"k      c #23202D",
"l      c #08080C",
"m      c #220000",
"n      c #E50102",
"o      c #2C0000",
"p      c #1A0000",
"q      c #CA0000",
"r      c #CC151E",
"s      c #190A0F",
"t      c #56374C",
"u      c #F20406",
"v      c #320203",
"w      c #0C0C11",
"x      c #38384F",
"y      c #121219",
"z      c #080000",
"A      c #AA0507",
"B      c #390000",
"C      c #ED131A",
"D      c #F30000",
"E      c #935A7D",
"F      c #6F6F9B",
"G      c #040405",
"H      c #2E2E41",
"I      c #8B8BC1",
"J      c #14141C",
"K      c #050204",
"L      c #960B0F",
"M      c #FE0000",
"N      c #FA0000",
"O      c #4B0000",
"P      c #0D0D12",
"Q      c #191923",
"R      c #191925",
"S      c #7C7CAC",
"T      c #9494CD",
"U      c #15151D",
"V      c #63638A",
"W      c #620000",
"X      c #F90000",
"Y      c #FC0000",
"Z      c #550000",
"`      c #373746",
" .	c #464645",
"..	c #010102",
"+.	c #64648B",
"@.	c #7D7DAE",
"#.	c #6D6D99",
"$.	c #2A2A3B",
"%.	c #0B0204",
"&.	c #820000",
"*.	c #020102",
"=.	c #333347",
"-.	c #7272A0",
";.	c #7E7EA8",
">.	c #6D6D7A",
",.	c #8585BC",
"'.	c #8D8DC5",
").	c #70709C",
"!.	c #8989BF",
"~.	c #847EB1",
"{.	c #D31D29",
"].	c #C41923",
"^.	c #706690",
"/.	c #8484B8",
"(.	c #8787BC",
"_.	c #8282B5",
":.	c #646485",
"<.	c #62626F",
"[.	c #8585BB",
"}.	c #8B8BC2",
"|.	c #5C5779",
"1.	c #C91A25",
"2.	c #C54763",
"3.	c #DE2838",
"4.	c #E81B25",
"5.	c #705475",
"6.	c #535373",
"7.	c #4F4F6D",
"8.	c #151520",
"9.	c #565678",
"0.	c #575779",
"a.	c #050000",
"b.	c #AF0000",
"c.	c #942331",
"d.	c #404059",
"e.	c #403F58",
"f.	c #9F1F2C",
"g.	c #400000",
"h.	c #0B0B10",
"i.	c #3C3C53",
"j.	c #580000",
"k.	c #080808",
"l.	c #8686BB",
"m.	c #9696D1",
"n.	c #322F41",
"o.	c #9292CB",
"p.	c #35354A",
"q.	c #BA0000",
"r.	c #800000",
"                                                                        ",
"                                                                        ",
"                                                                        ",
"                                                                        ",
"                                                                        ",
"                                                                        ",
"                                                      . .               ",
"          . .                   + + + @ +           . . . .             ",
"        . . . . .       + + + + + + # + + + @ + $ . . . .               ",
"          . . . . . % + + & * + + + = + + + + - ; . . .                 ",
"            . . . . > , + + ' ) ! + ~ + + { ] ^ . . / (                 ",
"                _ . . : < [ } + | ~ + + 1 2 3 . . 4 5 6 +               ",
"                7 8 . . 9 0 a + + + + + b c . . d e f g +               ",
"              + + h i . . . j k l + + m n . . : o + + + + +             ",
"                + + p q . . . r s + t i . . u v + + + + w x y           ",
"                + + + z A . . . > B C . . D E F G + + + H I J           ",
"                + + + + K L . . . M . . N O P Q @ + + R S T U           ",
"              + + V 1 + + + W X . . . Y Z + + + + + `  .+ ..+           ",
"                + +.@.#.$.@ %.q . . . M &.*.G ..=.-.;.>.,.'.J           ",
"                @ + + ).!.~.{.. . . . . . ].^./.(._.:.<.[.}.J           ",
"                  + + + |.1.. . . 2.3.. . . 4.5.6.7.+ 8.9.0.w           ",
"                      a.b.. . . c.d.e.f.M . . : g.  + h.i.i.l           ",
"                      . . . . . + + + + j.. . . .   k.).l.m.U           ",
"                    . . . . .               . . . k.k.n.o.p.            ",
"                  . . . . .                   . k.).).).).k.            ",
"                  . . . .                     k.q.).).k.k.              ",
"                . . . .                           r.).k.. .             ",
"              . . . .                               k.k.. . .           ",
"            . . . .                                     . . .           ",
"          . . . .                                         .             ",
"          . . .                                                         ",
"                                                                        ",
"                                                                        ",
"                                                                        ",
"                                                                        ",
"                                                                        "};
