/* XPM */
static char * reel_new_36_xpm[] = {
"36 36 262 2",
"  	c None",
". 	c #000000",
"+ 	c #020203",
"@ 	c #101015",
"# 	c #08080B",
"$ 	c #060608",
"% 	c #303043",
"& 	c #181822",
"* 	c #21212E",
"= 	c #262636",
"- 	c #050507",
"; 	c #0A0A0F",
"> 	c #5A5A7E",
", 	c #2E2E40",
"' 	c #020202",
") 	c #111117",
"! 	c #22222F",
"~ 	c #14141B",
"{ 	c #0D0D12",
"] 	c #303042",
"^ 	c #565677",
"/ 	c #37374D",
"( 	c #111118",
"_ 	c #010101",
": 	c #242431",
"< 	c #13131A",
"[ 	c #3E3E56",
"} 	c #3A3A50",
"| 	c #0E0E13",
"1 	c #131319",
"2 	c #22222E",
"3 	c #36364B",
"4 	c #252534",
"5 	c #0B0B0F",
"6 	c #282837",
"7 	c #353549",
"8 	c #333347",
"9 	c #272736",
"0 	c #15151D",
"a 	c #0E0E14",
"b 	c #0A0A0E",
"c 	c #14141C",
"d 	c #242432",
"e 	c #2A2A39",
"f 	c #282838",
"g 	c #2B2B3B",
"h 	c #181821",
"i 	c #1E1E29",
"j 	c #242433",
"k 	c #121219",
"l 	c #101016",
"m 	c #404059",
"n 	c #292939",
"o 	c #292938",
"p 	c #13131B",
"q 	c #232331",
"r 	c #3C3C54",
"s 	c #43435D",
"t 	c #41415A",
"u 	c #454561",
"v 	c #010102",
"w 	c #000001",
"x 	c #0A0A0D",
"y 	c #42425B",
"z 	c #42425C",
"A 	c #222230",
"B 	c #030305",
"C 	c #0D0D13",
"D 	c #16161F",
"E 	c #191923",
"F 	c #171720",
"G 	c #0C0C11",
"H 	c #1E1E2A",
"I 	c #0D0D11",
"J 	c #09090D",
"K 	c #2A2A3A",
"L 	c #1A1A24",
"M 	c #38384E",
"N 	c #2A2A3B",
"O 	c #1C1C27",
"P 	c #4D4D6B",
"Q 	c #686892",
"R 	c #464661",
"S 	c #5D5D80",
"T 	c #2F2F41",
"U 	c #4C4C6A",
"V 	c #6B6B95",
"W 	c #5F5F84",
"X 	c #494966",
"Y 	c #3D3D55",
"Z 	c #040406",
"` 	c #454560",
" .	c #5E5E82",
"..	c #2F2F42",
"+.	c #191922",
"@.	c #39394F",
"#.	c #484864",
"$.	c #1A1A25",
"%.	c #040405",
"&.	c #0C0C12",
"*.	c #7F7FB2",
"=.	c #535374",
"-.	c #0F0F15",
";.	c #1F1F2B",
">.	c #17171F",
",.	c #0B0B10",
"'.	c #606086",
").	c #313144",
"!.	c #0F0F14",
"~.	c #0C0C10",
"{.	c #010100",
"].	c #121214",
"^.	c #1E1E25",
"/.	c #36364A",
"(.	c #525273",
"_.	c #323246",
":.	c #3B3B52",
"<.	c #222231",
"[.	c #05050A",
"}.	c #030304",
"|.	c #000003",
"1.	c #000002",
"2.	c #08080E",
"3.	c #505072",
"4.	c #28283A",
"5.	c #1D1D25",
"6.	c #3D3E49",
"7.	c #383843",
"8.	c #2D2D39",
"9.	c #252533",
"0.	c #0E0E17",
"a.	c #35354A",
"b.	c #5A5A7C",
"c.	c #616190",
"d.	c #C0B908",
"e.	c #2C2C3E",
"f.	c #1B1B24",
"g.	c #0F101A",
"h.	c #060717",
"i.	c #01010E",
"j.	c #000007",
"k.	c #000005",
"l.	c #00000E",
"m.	c #000009",
"n.	c #000004",
"o.	c #050508",
"p.	c #060715",
"q.	c #0A0B1B",
"r.	c #151620",
"s.	c #2B2B3C",
"t.	c #525172",
"u.	c #6E6E99",
"v.	c #68698C",
"w.	c #6E6E8F",
"x.	c #76769C",
"y.	c #7575A3",
"z.	c #474764",
"A.	c #2A2B4C",
"B.	c #D0C900",
"C.	c #F2E900",
"D.	c #14141D",
"E.	c #1F1F36",
"F.	c #6D6D8D",
"G.	c #78751F",
"H.	c #5C5B6F",
"I.	c #5C5C7F",
"J.	c #656599",
"K.	c #7E7D94",
"L.	c #A9A54B",
"M.	c #8D8B80",
"N.	c #7A7BB4",
"O.	c #FFFF00",
"P.	c #C1BA00",
"Q.	c #747391",
"R.	c #ACA600",
"S.	c #A8A30C",
"T.	c #A29D14",
"U.	c #A19D2B",
"V.	c #4E4E6D",
"W.	c #CAC42F",
"X.	c #908D8A",
"Y.	c #5E5D7B",
"Z.	c #424373",
"`.	c #656453",
" +	c #959248",
".+	c #535481",
"++	c #27272D",
"@+	c #726E01",
"#+	c #4A493E",
"$+	c #373753",
"%+	c #3F3F54",
"&+	c #575775",
"*+	c #51506B",
"=+	c #3F3F5A",
"-+	c #3B3B56",
";+	c #8B8742",
">+	c #1C1C15",
",+	c #000008",
"'+	c #3A3908",
")+	c #8F8A13",
"!+	c #1F1F1C",
"~+	c #D8D101",
"{+	c #343314",
"]+	c #00001B",
"^+	c #040526",
"/+	c #000023",
"(+	c #00001C",
"_+	c #0F0F17",
":+	c #938E13",
"<+	c #8E8A0F",
"[+	c #171601",
"}+	c #272600",
"|+	c #C5BF2D",
"1+	c #565537",
"2+	c #EFE701",
"3+	c #6E6B00",
"4+	c #363400",
"5+	c #444100",
"6+	c #4C4900",
"7+	c #5C5900",
"8+	c #454300",
"9+	c #242200",
"0+	c #9C9700",
"a+	c #191800",
"b+	c #312F01",
"c+	c #7F7C3E",
"d+	c #ADA700",
"e+	c #B1AB00",
"f+	c #AAA500",
"g+	c #B2AC00",
"h+	c #DDD500",
"i+	c #C4BD00",
"j+	c #040400",
"k+	c #A39E00",
"l+	c #1A1900",
"m+	c #838020",
"n+	c #121116",
"o+	c #757100",
"p+	c #323000",
"q+	c #161500",
"r+	c #211F00",
"s+	c #787400",
"t+	c #1B1A00",
"u+	c #444203",
"v+	c #76720F",
"w+	c #25242D",
"x+	c #F4EB00",
"y+	c #3A3800",
"z+	c #B7B001",
"A+	c #3B3900",
"B+	c #3F3C00",
"C+	c #CBC405",
"D+	c #FFFF01",
"E+	c #827D00",
"F+	c #282830",
"G+	c #DFD700",
"H+	c #D8D100",
"I+	c #131314",
"J+	c #DED601",
"K+	c #040404",
"L+	c #D7CF01",
"M+	c #4E4B00",
"                                                                        ",
"                                                                        ",
"                                                                        ",
"                                                                        ",
"                                                                        ",
"                              . . + @ # . .                             ",
"                              . . $ % & . . .                           ",
"                  . . . * = - + . ; > , . . ' ) ! ~ $ .                 ",
"                . . . . { ] ^ / ( _ : < . . [ ^ } ) . . .               ",
"              | { | | | 1 2 3 } 4 5 # . # 6 7 8 9 0 a | { b             ",
"              c d e 6 f g h . i j k _ . l m a . k d n o n p $           ",
"          . b q r s t t u , . . v v . . w ' . x q r s y z A # .         ",
"          . B C D E h F p | G H c . . . I % J . # 0 E & E C _ . .       ",
"            . . . . . . l * K K c _ L J 5 M N O p _ . . . . $ E p l     ",
"              . . . v G P Q R a . 5 S T . . U V U ~ . . . . O W X Y     ",
"          w . . . . Z O ` z l _ . 5  .... . +.@.#.$.%.. . &.m *.=.[     ",
"          . $ ~ c - . -.;.>.. . . ,.'.).. . . !.! ~.. {.].^./.(._.d     ",
"          . ) _.:.<.[.}.. . |.1.. 2.3.4.. w 1.. . }.5 5.6.7.8.9.D 0.    ",
"              a.b.c.d.e.f.g.h.i.j.k.l.m.n.o.p.q.r.s.t.u.v.w.x.y.z.A.    ",
"      B.C.    D.E.d.d.F.d.d.d.d.d.d.d.d.d.).G.d.H.I.J.K.L.M.N.I.d.d.O.  ",
"    d.d.P.    . . d.d.Q.d.d.R.S.T.d.d.d.U.V.W.d.X.Y.Z.`.d. +.+I.d.d.d.  ",
"    d.d.d.d.d.  . d.d.++d.d.@+#+$+%+&+*+=+-+d.d.;+>+,+'+d.)+!+I.d.d.d.  ",
"    d.d.d.d.d.    d.d.  d.d.~+{+]+]+^+/+(+_+d.:+<+[+. }+d.|+1+x d.d.d.  ",
"    d.d.d.d.d.d.  d.d.  d.d.2+3+4+5+6+7+8+. 9+d.0+a+. b+d.d.c+| d.d.d.  ",
"    d.d.  d.d.d.d.d.d.  d.d.d+e+f+g+h+O.i+j+  d.k+l+[+d.d.d.m+n+d.d.d.  ",
"    d.d.  . d.d.d.d.d.  d.d.o+p+q+r+      {.  d.s+t+u+d.d.d.v+w+d.x+d.  ",
"    d.d.    y+d.d.d.d.  d.d.z+A+.             d.d.B+d.d.3 d.d.d.C+d.    ",
"    d.d.      d.d.d.d.  d.d.D+              . d.d.E+d.d.F+d.d.d.G+      ",
"    d.d.      j+d.d.d.  d.d.D+              . d.d.H+d.d.I+d.d.d.        ",
"    d.d.        d.d.d.  d.d.d.d.d.d.d.d.D+  . d.d.J+d.  K+w d.d.        ",
"    d.d.        . d.d.  d.d.d.d.d.d.d.d.D+    d.d.L+    . . M+d.        ",
"                    d.                        d.                        ",
"                                                                        ",
"                                                                        ",
"                                                                        ",
"                                                                        "};
