/* XPM */
static char * undo_xpm[] = {
"32 32 140 2",
"  	c None",
". 	c #BCB1A1",
"+ 	c #BAAF9D",
"@ 	c #BBB09C",
"# 	c #B39C5A",
"$ 	c #B69B38",
"% 	c #C3A93D",
"& 	c #C8AE49",
"* 	c #B89B3B",
"= 	c #B29A54",
"- 	c #BAAD96",
"; 	c #AF9023",
"> 	c #B99D23",
", 	c #B6A478",
"' 	c #B5A069",
") 	c #C4AA29",
"! 	c #EBD354",
"~ 	c #F3DE64",
"{ 	c #F9EC71",
"] 	c #F9EC72",
"^ 	c #F4DF69",
"/ 	c #EED159",
"( 	c #C7A427",
"_ 	c #B39C5B",
": 	c #B19314",
"< 	c #F1D967",
"[ 	c #C4AC2A",
"} 	c #DDC54B",
"| 	c #F5DF67",
"1 	c #F7E567",
"2 	c #F5E069",
"3 	c #DFB942",
"4 	c #AE8D25",
"5 	c #F3D969",
"6 	c #F3DC68",
"7 	c #F3DB66",
"8 	c #F3DA65",
"9 	c #EFCC5F",
"0 	c #E8B73E",
"a 	c #E8B73A",
"b 	c #EEC854",
"c 	c #F3D966",
"d 	c #F3D965",
"e 	c #F3DA68",
"f 	c #C8A238",
"g 	c #B19953",
"h 	c #B09314",
"i 	c #EED164",
"j 	c #EFD363",
"k 	c #EFD463",
"l 	c #EBCD55",
"m 	c #DEAA21",
"n 	c #D59C0E",
"o 	c #C89615",
"p 	c #C5901A",
"q 	c #CD8806",
"r 	c #E2A227",
"s 	c #EECA5C",
"t 	c #EAC65B",
"u 	c #9F7A17",
"v 	c #B9AB8D",
"w 	c #EBCB5D",
"x 	c #EBCF5C",
"y 	c #E9CE56",
"z 	c #DAB316",
"A 	c #C39D12",
"B 	c #977A13",
"C 	c #AB8F38",
"D 	c #AA9041",
"E 	c #876A0E",
"F 	c #996709",
"G 	c #E09D22",
"H 	c #EBC056",
"I 	c #ECC155",
"J 	c #AE8834",
"K 	c #AF964B",
"L 	c #B09214",
"M 	c #E3BB40",
"N 	c #E6C850",
"O 	c #E7CF4E",
"P 	c #E1C92E",
"Q 	c #D7BA11",
"R 	c #AC8B15",
"S 	c #B7A57B",
"T 	c #A6810E",
"U 	c #C88C1F",
"V 	c #DFA941",
"W 	c #E6B54D",
"X 	c #C39337",
"Y 	c #A28120",
"Z 	c #AA8810",
"` 	c #C29D1A",
" .	c #C39F18",
"..	c #C9AA27",
"+.	c #D0B229",
"@.	c #D5B921",
"#.	c #D1B21A",
"$.	c #AB8713",
"%.	c #BAAE96",
"&.	c #B19647",
"*.	c #C3942B",
"=.	c #D3A04B",
"-.	c #DBAC55",
";.	c #D3A044",
">.	c #8D6A07",
",.	c #B8AA8A",
"'.	c #AD9035",
").	c #A67F02",
"!.	c #A67F00",
"~.	c #A67F01",
"{.	c #A88410",
"].	c #B19545",
"^.	c #C09536",
"/.	c #CEA055",
"(.	c #D19E4B",
"_.	c #C59138",
":.	c #8F6A06",
"<.	c #AE880F",
"[.	c #C6A56B",
"}.	c #CAA366",
"|.	c #CBA15D",
"1.	c #AC843D",
"2.	c #A58525",
"3.	c #B09649",
"4.	c #A9840F",
"5.	c #BBA052",
"6.	c #C6AE83",
"7.	c #C6AA7B",
"8.	c #C8A671",
"9.	c #A48440",
"0.	c #B0974D",
"a.	c #C2B49A",
"b.	c #C3B292",
"c.	c #C4AF8D",
"d.	c #C0AA82",
"e.	c #A17C10",
"f.	c #B9AB90",
"g.	c #C1B5A0",
"h.	c #B29C65",
"i.	c #B4A069",
"                                                                ",
"                                                                ",
"                                                                ",
"                                                                ",
"                                                                ",
"                                                                ",
"                                                                ",
"                                                                ",
"                                                                ",
"              . +     @ # $ % & * = -                           ",
"              ; > , ' ) ! ~ { ] ^ / ( _                         ",
"              : < [ } | 1 1 1 1 1 1 2 3 4                       ",
"              : 5 5 6 7 8 9 0 a b c d e f g                     ",
"              h i j k l m n o p q r s 9 t u v                   ",
"              : w x y z A B C D E F G H I J K                   ",
"              L M N O P Q R S     T U V W X Y                   ",
"              Z `  ...+.@.#.$.%.  &.*.=.-.;.>.                  ",
"              ,.'.).!.~.!.!.{.%.  ].^./.(._.:.                  ",
"                                . <.[.}.|.1.2.                  ",
"                              3.4.5.6.7.8.9.0.                  ",
"                                  a.b.c.d.e.f.                  ",
"                                    g.  h.i.                    ",
"                                                                ",
"                                                                ",
"                                                                ",
"                                                                ",
"                                                                ",
"                                                                ",
"                                                                ",
"                                                                ",
"                                                                ",
"                                                                "};
